M48
; DRILL file {KiCad 9.0.3} date 2025-07-10T17:14:11-0700
; FORMAT={-:-/ absolute / metric / decimal}
; #@! TF.CreationDate,2025-07-10T17:14:11-07:00
; #@! TF.GenerationSoftware,Kicad,Pcbnew,9.0.3
; #@! TF.FileFunction,Plated,1,2,PTH
FMAT,2
METRIC
; #@! TA.AperFunction,Plated,PTH,ComponentDrill
T1C0.600
; #@! TA.AperFunction,Plated,PTH,ComponentDrill
T2C3.200
%
G90
G05
T1
X72.5Y-157.6
X72.5Y-182.6
X72.5Y-207.6
X72.5Y-232.6
X74.3Y-153.3
X74.3Y-161.9
X74.3Y-178.3
X74.3Y-186.9
X74.3Y-203.3
X74.3Y-211.9
X74.3Y-228.3
X74.3Y-236.9
X78.6Y-72.6
X78.6Y-94.1
X78.6Y-115.1
X78.6Y-136.6
X78.6Y-151.5
X78.6Y-163.7
X78.6Y-176.5
X78.6Y-188.7
X78.6Y-201.5
X78.6Y-213.7
X78.6Y-226.5
X78.6Y-238.7
X79.9Y-69.4
X79.9Y-75.8
X79.9Y-90.9
X79.9Y-97.3
X79.9Y-111.9
X79.9Y-118.3
X79.9Y-133.4
X79.9Y-139.8
X82.8Y-162.0
X82.8Y-187.0
X82.8Y-212.0
X82.8Y-237.0
X82.9Y-153.3
X82.9Y-178.3
X82.9Y-203.3
X82.9Y-228.3
X83.1Y-68.1
X83.1Y-77.1
X83.1Y-89.6
X83.1Y-98.6
X83.1Y-110.6
X83.1Y-119.6
X83.1Y-132.1
X83.1Y-141.1
X84.7Y-157.6
X84.7Y-182.6
X84.7Y-207.6
X84.7Y-232.6
X86.2Y-75.9
X86.2Y-97.4
X86.2Y-118.4
X86.2Y-139.9
X86.3Y-69.4
X86.3Y-90.9
X86.3Y-111.9
X86.3Y-133.4
X87.6Y-72.6
X87.6Y-94.1
X87.6Y-115.1
X87.6Y-136.6
X97.5Y-157.6
X97.5Y-182.6
X97.5Y-207.6
X97.5Y-232.6
X99.3Y-153.3
X99.3Y-161.9
X99.3Y-178.3
X99.3Y-186.9
X99.3Y-203.3
X99.3Y-211.9
X99.3Y-228.3
X99.3Y-236.9
X103.6Y-151.5
X103.6Y-163.7
X103.6Y-176.5
X103.6Y-188.7
X103.6Y-201.5
X103.6Y-213.7
X103.6Y-226.5
X103.6Y-238.7
X107.8Y-162.0
X107.8Y-187.0
X107.8Y-212.0
X107.8Y-237.0
X107.9Y-153.3
X107.9Y-178.3
X107.9Y-203.3
X107.9Y-228.3
X109.7Y-157.6
X109.7Y-182.6
X109.7Y-207.6
X109.7Y-232.6
T2
G00X69.1Y-60.6
M15
G01X71.9Y-60.6
M16
G05
G00X69.1Y-254.6
M15
G01X71.9Y-254.6
M16
G05
G00X113.1Y-60.6
M15
G01X110.3Y-60.6
M16
G05
G00X113.1Y-254.6
M15
G01X110.3Y-254.6
M16
G05
M30
