  0
SECTION
  2
HEADER
  9
$ANGBASE
  50
0.0
  9
$ANGDIR
  70
1
  9
$MEASUREMENT
  70
0
  0
ENDSEC
  0
SECTION
  2
TABLES
  0
TABLE
  2
LTYPE
  70
4
  0
LTYPE
  5
40F
  2
CONTINUOUS
  70
0
  3
Solid line
  72
65
  73
0
  40
0.0
  0
LTYPE
  5
410
  2
DASHDOT
 70
0
  3
Dash Dot ____ _ ____ _
 72
65
 73
4
 40
2.0
 49
1.25
 49
-0.25
 49
0.25
 49
-0.25
  0
LTYPE
  5
411
  2
DASHED
 70
0
  3
Dashed __ __ __ __ __
 72
65
 73
2
 40
0.75
 49
0.5
 49
-0.25
  0
LTYPE
  5
43B
  2
DOTTED
 70
0
  3
Dotted .  .  .  .
 72
65
 73
2
 40
0.2
 49
0.0
 49
-0.2
  0
ENDTAB
  0
TABLE
  2
STYLE
  70
4
  0
STYLE
  2
KICAD
  70
0
  40
0
  41
1
  42
1
  50
0
  71
0
  3
isocp.shx
  0
STYLE
  2
KICADB
  70
0
  40
0
  41
1
  42
1
  50
0
  71
0
  3
isocp.shx
  0
STYLE
  2
KICADI
  70
0
  40
0
  41
1
  42
1
  50
15
  71
0
  3
isocp.shx
  0
STYLE
  2
KICADBI
  70
0
  40
0
  41
1
  42
1
  50
15
  71
0
  3
isocp.shx
  0
ENDTAB
  0
TABLE
  2
LAYER
  70
1
  0
LAYER
  2
BLACK
  70
0
  62
7
  6
CONTINUOUS
  0
ENDTAB
  0
ENDSEC
  0
SECTION
  2
ENTITIES
0
LINE
8
BLACK
6
CONTINUOUS
10
4.457698228346457
20
-9.9608240944881885
11
4.4674611417322829
21
-9.9623703937007875
0
LINE
8
BLACK
6
CONTINUOUS
10
4.4674611417322829
20
-9.9623703937007875
11
4.4768619291338583
21
-9.9654249212598423
0
LINE
8
BLACK
6
CONTINUOUS
10
4.4768619291338583
20
-9.9654249212598423
11
4.4856692125984248
21
-9.9699124409448814
0
LINE
8
BLACK
6
CONTINUOUS
10
4.4856692125984248
20
-9.9699124409448814
11
4.4936660236220467
21
-9.9757224409448817
0
LINE
8
BLACK
6
CONTINUOUS
10
4.4936660236220467
20
-9.9757224409448817
11
4.5006555118110239
21
-9.982711929133858
0
LINE
8
BLACK
6
CONTINUOUS
10
4.5006555118110239
20
-9.982711929133858
11
4.5064655118110233
21
-9.9907087401574799
0
LINE
8
BLACK
6
CONTINUOUS
10
4.5064655118110233
20
-9.9907087401574799
11
4.5109530314960633
21
-9.9995160236220464
0
LINE
8
BLACK
6
CONTINUOUS
10
4.5109530314960633
20
-9.9995160236220464
11
4.5140075590551181
21
-10.0089168110236226
0
LINE
8
BLACK
6
CONTINUOUS
10
4.5140075590551181
20
-10.0089168110236226
11
4.5155538582677162
21
-10.0186797244094485
0
LINE
8
BLACK
6
CONTINUOUS
10
4.5155538582677162
20
-10.0186797244094485
11
4.5155538582677162
21
-10.0285643700787404
0
LINE
8
BLACK
6
CONTINUOUS
10
4.5155538582677162
20
-10.0285643700787404
11
4.5140075590551181
21
-10.0383272834645663
0
LINE
8
BLACK
6
CONTINUOUS
10
4.5140075590551181
20
-10.0383272834645663
11
4.5109530314960633
21
-10.0477280708661407
0
LINE
8
BLACK
6
CONTINUOUS
10
4.5109530314960633
20
-10.0477280708661407
11
4.5064655118110233
21
-10.056535354330709
0
LINE
8
BLACK
6
CONTINUOUS
10
4.5064655118110233
20
-10.056535354330709
11
4.5006555118110239
21
-10.0645321653543309
0
LINE
8
BLACK
6
CONTINUOUS
10
4.5006555118110239
20
-10.0645321653543309
11
4.4936660236220467
21
-10.0715216535433072
0
LINE
8
BLACK
6
CONTINUOUS
10
4.4936660236220467
20
-10.0715216535433072
11
4.4856692125984248
21
-10.0773316535433075
0
LINE
8
BLACK
6
CONTINUOUS
10
4.4856692125984248
20
-10.0773316535433075
11
4.4768619291338583
21
-10.0818191732283466
0
LINE
8
BLACK
6
CONTINUOUS
10
4.4768619291338583
20
-10.0818191732283466
11
4.4674611417322829
21
-10.0848737007874014
0
LINE
8
BLACK
6
CONTINUOUS
10
4.4674611417322829
20
-10.0848737007874014
11
4.457698228346457
21
-10.0864200000000004
0
LINE
8
BLACK
6
CONTINUOUS
10
4.457698228346457
20
-10.0864200000000004
11
4.4527559055118111
21
-10.0866141732283463
0
LINE
8
BLACK
6
CONTINUOUS
10
4.4527559055118111
20
-10.0866141732283463
11
4.3425196850393704
21
-10.0866141732283463
0
LINE
8
BLACK
6
CONTINUOUS
10
4.3425196850393704
20
-10.0866141732283463
11
4.3375773622047245
21
-10.0864200000000004
0
LINE
8
BLACK
6
CONTINUOUS
10
4.3375773622047245
20
-10.0864200000000004
11
4.3278144488188977
21
-10.0848737007874014
0
LINE
8
BLACK
6
CONTINUOUS
10
4.3278144488188977
20
-10.0848737007874014
11
4.3184136614173223
21
-10.0818191732283466
0
LINE
8
BLACK
6
CONTINUOUS
10
4.3184136614173223
20
-10.0818191732283466
11
4.3096063779527558
21
-10.0773316535433075
0
LINE
8
BLACK
6
CONTINUOUS
10
4.3096063779527558
20
-10.0773316535433075
11
4.3016095669291339
21
-10.0715216535433072
0
LINE
8
BLACK
6
CONTINUOUS
10
4.3016095669291339
20
-10.0715216535433072
11
4.2946200787401576
21
-10.0645321653543309
0
LINE
8
BLACK
6
CONTINUOUS
10
4.2946200787401576
20
-10.0645321653543309
11
4.2888100787401573
21
-10.056535354330709
0
LINE
8
BLACK
6
CONTINUOUS
10
4.2888100787401573
20
-10.056535354330709
11
4.2843225590551182
21
-10.0477280708661407
0
LINE
8
BLACK
6
CONTINUOUS
10
4.2843225590551182
20
-10.0477280708661407
11
4.2812680314960625
21
-10.0383272834645663
0
LINE
8
BLACK
6
CONTINUOUS
10
4.2812680314960625
20
-10.0383272834645663
11
4.2797217322834644
21
-10.0285643700787404
0
LINE
8
BLACK
6
CONTINUOUS
10
4.2797217322834644
20
-10.0285643700787404
11
4.2797217322834644
21
-10.0186797244094485
0
LINE
8
BLACK
6
CONTINUOUS
10
4.2797217322834644
20
-10.0186797244094485
11
4.2812680314960625
21
-10.0089168110236226
0
LINE
8
BLACK
6
CONTINUOUS
10
4.2812680314960625
20
-10.0089168110236226
11
4.2843225590551182
21
-9.9995160236220464
0
LINE
8
BLACK
6
CONTINUOUS
10
4.2843225590551182
20
-9.9995160236220464
11
4.2888100787401573
21
-9.9907087401574799
0
LINE
8
BLACK
6
CONTINUOUS
10
4.2888100787401573
20
-9.9907087401574799
11
4.2946200787401576
21
-9.982711929133858
0
LINE
8
BLACK
6
CONTINUOUS
10
4.2946200787401576
20
-9.982711929133858
11
4.3016095669291339
21
-9.9757224409448817
0
LINE
8
BLACK
6
CONTINUOUS
10
4.3016095669291339
20
-9.9757224409448817
11
4.3096063779527558
21
-9.9699124409448814
0
LINE
8
BLACK
6
CONTINUOUS
10
4.3096063779527558
20
-9.9699124409448814
11
4.3184136614173223
21
-9.9654249212598423
0
LINE
8
BLACK
6
CONTINUOUS
10
4.3184136614173223
20
-9.9654249212598423
11
4.3278144488188977
21
-9.9623703937007875
0
LINE
8
BLACK
6
CONTINUOUS
10
4.3278144488188977
20
-9.9623703937007875
11
4.3375773622047245
21
-9.9608240944881885
0
LINE
8
BLACK
6
CONTINUOUS
10
4.3375773622047245
20
-9.9608240944881885
11
4.3425196850393704
21
-9.9606299212598426
0
LINE
8
BLACK
6
CONTINUOUS
10
4.3425196850393704
20
-9.9606299212598426
11
4.4527559055118111
21
-9.9606299212598426
0
LINE
8
BLACK
6
CONTINUOUS
10
4.4527559055118111
20
-9.9606299212598426
11
4.457698228346457
21
-9.9608240944881885
0
LINE
8
BLACK
6
CONTINUOUS
10
4.457698228346457
20
-2.3230288188976376
11
4.4674611417322829
21
-2.3245751181102361
0
LINE
8
BLACK
6
CONTINUOUS
10
4.4674611417322829
20
-2.3245751181102361
11
4.4768619291338583
21
-2.3276296456692913
0
LINE
8
BLACK
6
CONTINUOUS
10
4.4768619291338583
20
-2.3276296456692913
11
4.4856692125984248
21
-2.3321171653543304
0
LINE
8
BLACK
6
CONTINUOUS
10
4.4856692125984248
20
-2.3321171653543304
11
4.4936660236220467
21
-2.3379271653543308
0
LINE
8
BLACK
6
CONTINUOUS
10
4.4936660236220467
20
-2.3379271653543308
11
4.5006555118110239
21
-2.344916653543307
0
LINE
8
BLACK
6
CONTINUOUS
10
4.5006555118110239
20
-2.344916653543307
11
4.5064655118110233
21
-2.352913464566929
0
LINE
8
BLACK
6
CONTINUOUS
10
4.5064655118110233
20
-2.352913464566929
11
4.5109530314960633
21
-2.3617207480314959
0
LINE
8
BLACK
6
CONTINUOUS
10
4.5109530314960633
20
-2.3617207480314959
11
4.5140075590551181
21
-2.3711215354330708
0
LINE
8
BLACK
6
CONTINUOUS
10
4.5140075590551181
20
-2.3711215354330708
11
4.5155538582677162
21
-2.3808844488188976
0
LINE
8
BLACK
6
CONTINUOUS
10
4.5155538582677162
20
-2.3808844488188976
11
4.5155538582677162
21
-2.390769094488189
0
LINE
8
BLACK
6
CONTINUOUS
10
4.5155538582677162
20
-2.390769094488189
11
4.5140075590551181
21
-2.4005320078740158
0
LINE
8
BLACK
6
CONTINUOUS
10
4.5140075590551181
20
-2.4005320078740158
11
4.5109530314960633
21
-2.4099327952755907
0
LINE
8
BLACK
6
CONTINUOUS
10
4.5109530314960633
20
-2.4099327952755907
11
4.5064655118110233
21
-2.4187400787401576
0
LINE
8
BLACK
6
CONTINUOUS
10
4.5064655118110233
20
-2.4187400787401576
11
4.5006555118110239
21
-2.4267368897637795
0
LINE
8
BLACK
6
CONTINUOUS
10
4.5006555118110239
20
-2.4267368897637795
11
4.4936660236220467
21
-2.4337263779527558
0
LINE
8
BLACK
6
CONTINUOUS
10
4.4936660236220467
20
-2.4337263779527558
11
4.4856692125984248
21
-2.4395363779527557
0
LINE
8
BLACK
6
CONTINUOUS
10
4.4856692125984248
20
-2.4395363779527557
11
4.4768619291338583
21
-2.4440238976377953
0
LINE
8
BLACK
6
CONTINUOUS
10
4.4768619291338583
20
-2.4440238976377953
11
4.4674611417322829
21
-2.4470784251968505
0
LINE
8
BLACK
6
CONTINUOUS
10
4.4674611417322829
20
-2.4470784251968505
11
4.457698228346457
21
-2.4486247244094486
0
LINE
8
BLACK
6
CONTINUOUS
10
4.457698228346457
20
-2.4486247244094486
11
4.4527559055118111
21
-2.4488188976377954
0
LINE
8
BLACK
6
CONTINUOUS
10
4.4527559055118111
20
-2.4488188976377954
11
4.3425196850393704
21
-2.4488188976377954
0
LINE
8
BLACK
6
CONTINUOUS
10
4.3425196850393704
20
-2.4488188976377954
11
4.3375773622047245
21
-2.4486247244094486
0
LINE
8
BLACK
6
CONTINUOUS
10
4.3375773622047245
20
-2.4486247244094486
11
4.3278144488188977
21
-2.4470784251968505
0
LINE
8
BLACK
6
CONTINUOUS
10
4.3278144488188977
20
-2.4470784251968505
11
4.3184136614173223
21
-2.4440238976377953
0
LINE
8
BLACK
6
CONTINUOUS
10
4.3184136614173223
20
-2.4440238976377953
11
4.3096063779527558
21
-2.4395363779527557
0
LINE
8
BLACK
6
CONTINUOUS
10
4.3096063779527558
20
-2.4395363779527557
11
4.3016095669291339
21
-2.4337263779527558
0
LINE
8
BLACK
6
CONTINUOUS
10
4.3016095669291339
20
-2.4337263779527558
11
4.2946200787401576
21
-2.4267368897637795
0
LINE
8
BLACK
6
CONTINUOUS
10
4.2946200787401576
20
-2.4267368897637795
11
4.2888100787401573
21
-2.4187400787401576
0
LINE
8
BLACK
6
CONTINUOUS
10
4.2888100787401573
20
-2.4187400787401576
11
4.2843225590551182
21
-2.4099327952755907
0
LINE
8
BLACK
6
CONTINUOUS
10
4.2843225590551182
20
-2.4099327952755907
11
4.2812680314960625
21
-2.4005320078740158
0
LINE
8
BLACK
6
CONTINUOUS
10
4.2812680314960625
20
-2.4005320078740158
11
4.2797217322834644
21
-2.390769094488189
0
LINE
8
BLACK
6
CONTINUOUS
10
4.2797217322834644
20
-2.390769094488189
11
4.2797217322834644
21
-2.3808844488188976
0
LINE
8
BLACK
6
CONTINUOUS
10
4.2797217322834644
20
-2.3808844488188976
11
4.2812680314960625
21
-2.3711215354330708
0
LINE
8
BLACK
6
CONTINUOUS
10
4.2812680314960625
20
-2.3711215354330708
11
4.2843225590551182
21
-2.3617207480314959
0
LINE
8
BLACK
6
CONTINUOUS
10
4.2843225590551182
20
-2.3617207480314959
11
4.2888100787401573
21
-2.352913464566929
0
LINE
8
BLACK
6
CONTINUOUS
10
4.2888100787401573
20
-2.352913464566929
11
4.2946200787401576
21
-2.344916653543307
0
LINE
8
BLACK
6
CONTINUOUS
10
4.2946200787401576
20
-2.344916653543307
11
4.3016095669291339
21
-2.3379271653543308
0
LINE
8
BLACK
6
CONTINUOUS
10
4.3016095669291339
20
-2.3379271653543308
11
4.3096063779527558
21
-2.3321171653543304
0
LINE
8
BLACK
6
CONTINUOUS
10
4.3096063779527558
20
-2.3321171653543304
11
4.3184136614173223
21
-2.3276296456692913
0
LINE
8
BLACK
6
CONTINUOUS
10
4.3184136614173223
20
-2.3276296456692913
11
4.3278144488188977
21
-2.3245751181102361
0
LINE
8
BLACK
6
CONTINUOUS
10
4.3278144488188977
20
-2.3245751181102361
11
4.3375773622047245
21
-2.3230288188976376
0
LINE
8
BLACK
6
CONTINUOUS
10
4.3375773622047245
20
-2.3230288188976376
11
4.3425196850393704
21
-2.3228346456692912
0
LINE
8
BLACK
6
CONTINUOUS
10
4.3425196850393704
20
-2.3228346456692912
11
4.4527559055118111
21
-2.3228346456692912
0
LINE
8
BLACK
6
CONTINUOUS
10
4.4527559055118111
20
-2.3228346456692912
11
4.457698228346457
21
-2.3230288188976376
0
CIRCLE
8
BLACK
10
2.8543307086614171
20
-8.1732283464566926
40
0.0118110236220472
0
CIRCLE
8
BLACK
10
2.9251968503937009
20
-8.0039370078740149
40
0.0118110236220472
0
CIRCLE
8
BLACK
10
2.9251968503937009
20
-8.3425196850393704
40
0.0118110236220472
0
CIRCLE
8
BLACK
10
3.0944881889763778
20
-7.9330708661417324
40
0.0118110236220472
0
CIRCLE
8
BLACK
10
3.0944881889763778
20
-8.4133858267716537
40
0.0118110236220472
0
CIRCLE
8
BLACK
10
3.2598425196850394
20
-8.3464566929133852
40
0.0118110236220472
0
CIRCLE
8
BLACK
10
3.2637795275590551
20
-8.0039370078740149
40
0.0118110236220472
0
CIRCLE
8
BLACK
10
3.3346456692913384
20
-8.1732283464566926
40
0.0118110236220472
0
LINE
8
BLACK
6
CONTINUOUS
10
2.8356509842519686
20
-2.3230288188976376
11
2.8454138976377954
21
-2.3245751181102361
0
LINE
8
BLACK
6
CONTINUOUS
10
2.8454138976377954
20
-2.3245751181102361
11
2.8548146850393699
21
-2.3276296456692913
0
LINE
8
BLACK
6
CONTINUOUS
10
2.8548146850393699
20
-2.3276296456692913
11
2.8636219685039368
21
-2.3321171653543304
0
LINE
8
BLACK
6
CONTINUOUS
10
2.8636219685039368
20
-2.3321171653543304
11
2.8716187795275592
21
-2.3379271653543308
0
LINE
8
BLACK
6
CONTINUOUS
10
2.8716187795275592
20
-2.3379271653543308
11
2.8786082677165354
21
-2.344916653543307
0
LINE
8
BLACK
6
CONTINUOUS
10
2.8786082677165354
20
-2.344916653543307
11
2.8844182677165353
21
-2.352913464566929
0
LINE
8
BLACK
6
CONTINUOUS
10
2.8844182677165353
20
-2.352913464566929
11
2.8889057874015749
21
-2.3617207480314959
0
LINE
8
BLACK
6
CONTINUOUS
10
2.8889057874015749
20
-2.3617207480314959
11
2.8919603149606297
21
-2.3711215354330708
0
LINE
8
BLACK
6
CONTINUOUS
10
2.8919603149606297
20
-2.3711215354330708
11
2.8935066141732282
21
-2.3808844488188976
0
LINE
8
BLACK
6
CONTINUOUS
10
2.8935066141732282
20
-2.3808844488188976
11
2.8935066141732282
21
-2.390769094488189
0
LINE
8
BLACK
6
CONTINUOUS
10
2.8935066141732282
20
-2.390769094488189
11
2.8919603149606297
21
-2.4005320078740158
0
LINE
8
BLACK
6
CONTINUOUS
10
2.8919603149606297
20
-2.4005320078740158
11
2.8889057874015749
21
-2.4099327952755907
0
LINE
8
BLACK
6
CONTINUOUS
10
2.8889057874015749
20
-2.4099327952755907
11
2.8844182677165353
21
-2.4187400787401576
0
LINE
8
BLACK
6
CONTINUOUS
10
2.8844182677165353
20
-2.4187400787401576
11
2.8786082677165354
21
-2.4267368897637795
0
LINE
8
BLACK
6
CONTINUOUS
10
2.8786082677165354
20
-2.4267368897637795
11
2.8716187795275592
21
-2.4337263779527558
0
LINE
8
BLACK
6
CONTINUOUS
10
2.8716187795275592
20
-2.4337263779527558
11
2.8636219685039368
21
-2.4395363779527557
0
LINE
8
BLACK
6
CONTINUOUS
10
2.8636219685039368
20
-2.4395363779527557
11
2.8548146850393699
21
-2.4440238976377953
0
LINE
8
BLACK
6
CONTINUOUS
10
2.8548146850393699
20
-2.4440238976377953
11
2.8454138976377954
21
-2.4470784251968505
0
LINE
8
BLACK
6
CONTINUOUS
10
2.8454138976377954
20
-2.4470784251968505
11
2.8356509842519686
21
-2.4486247244094486
0
LINE
8
BLACK
6
CONTINUOUS
10
2.8356509842519686
20
-2.4486247244094486
11
2.8307086614173227
21
-2.4488188976377954
0
LINE
8
BLACK
6
CONTINUOUS
10
2.8307086614173227
20
-2.4488188976377954
11
2.7204724409448819
21
-2.4488188976377954
0
LINE
8
BLACK
6
CONTINUOUS
10
2.7204724409448819
20
-2.4488188976377954
11
2.715530118110236
21
-2.4486247244094486
0
LINE
8
BLACK
6
CONTINUOUS
10
2.715530118110236
20
-2.4486247244094486
11
2.7057672047244092
21
-2.4470784251968505
0
LINE
8
BLACK
6
CONTINUOUS
10
2.7057672047244092
20
-2.4470784251968505
11
2.6963664173228348
21
-2.4440238976377953
0
LINE
8
BLACK
6
CONTINUOUS
10
2.6963664173228348
20
-2.4440238976377953
11
2.6875591338582678
21
-2.4395363779527557
0
LINE
8
BLACK
6
CONTINUOUS
10
2.6875591338582678
20
-2.4395363779527557
11
2.6795623228346455
21
-2.4337263779527558
0
LINE
8
BLACK
6
CONTINUOUS
10
2.6795623228346455
20
-2.4337263779527558
11
2.6725728346456692
21
-2.4267368897637795
0
LINE
8
BLACK
6
CONTINUOUS
10
2.6725728346456692
20
-2.4267368897637795
11
2.6667628346456693
21
-2.4187400787401576
0
LINE
8
BLACK
6
CONTINUOUS
10
2.6667628346456693
20
-2.4187400787401576
11
2.6622753149606297
21
-2.4099327952755907
0
LINE
8
BLACK
6
CONTINUOUS
10
2.6622753149606297
20
-2.4099327952755907
11
2.6592207874015745
21
-2.4005320078740158
0
LINE
8
BLACK
6
CONTINUOUS
10
2.6592207874015745
20
-2.4005320078740158
11
2.6576744881889764
21
-2.390769094488189
0
LINE
8
BLACK
6
CONTINUOUS
10
2.6576744881889764
20
-2.390769094488189
11
2.6576744881889764
21
-2.3808844488188976
0
LINE
8
BLACK
6
CONTINUOUS
10
2.6576744881889764
20
-2.3808844488188976
11
2.6592207874015745
21
-2.3711215354330708
0
LINE
8
BLACK
6
CONTINUOUS
10
2.6592207874015745
20
-2.3711215354330708
11
2.6622753149606297
21
-2.3617207480314959
0
LINE
8
BLACK
6
CONTINUOUS
10
2.6622753149606297
20
-2.3617207480314959
11
2.6667628346456693
21
-2.352913464566929
0
LINE
8
BLACK
6
CONTINUOUS
10
2.6667628346456693
20
-2.352913464566929
11
2.6725728346456692
21
-2.344916653543307
0
LINE
8
BLACK
6
CONTINUOUS
10
2.6725728346456692
20
-2.344916653543307
11
2.6795623228346455
21
-2.3379271653543308
0
LINE
8
BLACK
6
CONTINUOUS
10
2.6795623228346455
20
-2.3379271653543308
11
2.6875591338582678
21
-2.3321171653543304
0
LINE
8
BLACK
6
CONTINUOUS
10
2.6875591338582678
20
-2.3321171653543304
11
2.6963664173228348
21
-2.3276296456692913
0
LINE
8
BLACK
6
CONTINUOUS
10
2.6963664173228348
20
-2.3276296456692913
11
2.7057672047244092
21
-2.3245751181102361
0
LINE
8
BLACK
6
CONTINUOUS
10
2.7057672047244092
20
-2.3245751181102361
11
2.715530118110236
21
-2.3230288188976376
0
LINE
8
BLACK
6
CONTINUOUS
10
2.715530118110236
20
-2.3230288188976376
11
2.7204724409448819
21
-2.3228346456692912
0
LINE
8
BLACK
6
CONTINUOUS
10
2.7204724409448819
20
-2.3228346456692912
11
2.8307086614173227
21
-2.3228346456692912
0
LINE
8
BLACK
6
CONTINUOUS
10
2.8307086614173227
20
-2.3228346456692912
11
2.8356509842519686
21
-2.3230288188976376
0
LINE
8
BLACK
6
CONTINUOUS
10
2.8356509842519686
20
-9.9608240944881885
11
2.8454138976377954
21
-9.9623703937007875
0
LINE
8
BLACK
6
CONTINUOUS
10
2.8454138976377954
20
-9.9623703937007875
11
2.8548146850393699
21
-9.9654249212598423
0
LINE
8
BLACK
6
CONTINUOUS
10
2.8548146850393699
20
-9.9654249212598423
11
2.8636219685039368
21
-9.9699124409448814
0
LINE
8
BLACK
6
CONTINUOUS
10
2.8636219685039368
20
-9.9699124409448814
11
2.8716187795275592
21
-9.9757224409448817
0
LINE
8
BLACK
6
CONTINUOUS
10
2.8716187795275592
20
-9.9757224409448817
11
2.8786082677165354
21
-9.982711929133858
0
LINE
8
BLACK
6
CONTINUOUS
10
2.8786082677165354
20
-9.982711929133858
11
2.8844182677165353
21
-9.9907087401574799
0
LINE
8
BLACK
6
CONTINUOUS
10
2.8844182677165353
20
-9.9907087401574799
11
2.8889057874015749
21
-9.9995160236220464
0
LINE
8
BLACK
6
CONTINUOUS
10
2.8889057874015749
20
-9.9995160236220464
11
2.8919603149606297
21
-10.0089168110236226
0
LINE
8
BLACK
6
CONTINUOUS
10
2.8919603149606297
20
-10.0089168110236226
11
2.8935066141732282
21
-10.0186797244094485
0
LINE
8
BLACK
6
CONTINUOUS
10
2.8935066141732282
20
-10.0186797244094485
11
2.8935066141732282
21
-10.0285643700787404
0
LINE
8
BLACK
6
CONTINUOUS
10
2.8935066141732282
20
-10.0285643700787404
11
2.8919603149606297
21
-10.0383272834645663
0
LINE
8
BLACK
6
CONTINUOUS
10
2.8919603149606297
20
-10.0383272834645663
11
2.8889057874015749
21
-10.0477280708661407
0
LINE
8
BLACK
6
CONTINUOUS
10
2.8889057874015749
20
-10.0477280708661407
11
2.8844182677165353
21
-10.056535354330709
0
LINE
8
BLACK
6
CONTINUOUS
10
2.8844182677165353
20
-10.056535354330709
11
2.8786082677165354
21
-10.0645321653543309
0
LINE
8
BLACK
6
CONTINUOUS
10
2.8786082677165354
20
-10.0645321653543309
11
2.8716187795275592
21
-10.0715216535433072
0
LINE
8
BLACK
6
CONTINUOUS
10
2.8716187795275592
20
-10.0715216535433072
11
2.8636219685039368
21
-10.0773316535433075
0
LINE
8
BLACK
6
CONTINUOUS
10
2.8636219685039368
20
-10.0773316535433075
11
2.8548146850393699
21
-10.0818191732283466
0
LINE
8
BLACK
6
CONTINUOUS
10
2.8548146850393699
20
-10.0818191732283466
11
2.8454138976377954
21
-10.0848737007874014
0
LINE
8
BLACK
6
CONTINUOUS
10
2.8454138976377954
20
-10.0848737007874014
11
2.8356509842519686
21
-10.0864200000000004
0
LINE
8
BLACK
6
CONTINUOUS
10
2.8356509842519686
20
-10.0864200000000004
11
2.8307086614173227
21
-10.0866141732283463
0
LINE
8
BLACK
6
CONTINUOUS
10
2.8307086614173227
20
-10.0866141732283463
11
2.7204724409448819
21
-10.0866141732283463
0
LINE
8
BLACK
6
CONTINUOUS
10
2.7204724409448819
20
-10.0866141732283463
11
2.715530118110236
21
-10.0864200000000004
0
LINE
8
BLACK
6
CONTINUOUS
10
2.715530118110236
20
-10.0864200000000004
11
2.7057672047244092
21
-10.0848737007874014
0
LINE
8
BLACK
6
CONTINUOUS
10
2.7057672047244092
20
-10.0848737007874014
11
2.6963664173228348
21
-10.0818191732283466
0
LINE
8
BLACK
6
CONTINUOUS
10
2.6963664173228348
20
-10.0818191732283466
11
2.6875591338582678
21
-10.0773316535433075
0
LINE
8
BLACK
6
CONTINUOUS
10
2.6875591338582678
20
-10.0773316535433075
11
2.6795623228346455
21
-10.0715216535433072
0
LINE
8
BLACK
6
CONTINUOUS
10
2.6795623228346455
20
-10.0715216535433072
11
2.6725728346456692
21
-10.0645321653543309
0
LINE
8
BLACK
6
CONTINUOUS
10
2.6725728346456692
20
-10.0645321653543309
11
2.6667628346456693
21
-10.056535354330709
0
LINE
8
BLACK
6
CONTINUOUS
10
2.6667628346456693
20
-10.056535354330709
11
2.6622753149606297
21
-10.0477280708661407
0
LINE
8
BLACK
6
CONTINUOUS
10
2.6622753149606297
20
-10.0477280708661407
11
2.6592207874015745
21
-10.0383272834645663
0
LINE
8
BLACK
6
CONTINUOUS
10
2.6592207874015745
20
-10.0383272834645663
11
2.6576744881889764
21
-10.0285643700787404
0
LINE
8
BLACK
6
CONTINUOUS
10
2.6576744881889764
20
-10.0285643700787404
11
2.6576744881889764
21
-10.0186797244094485
0
LINE
8
BLACK
6
CONTINUOUS
10
2.6576744881889764
20
-10.0186797244094485
11
2.6592207874015745
21
-10.0089168110236226
0
LINE
8
BLACK
6
CONTINUOUS
10
2.6592207874015745
20
-10.0089168110236226
11
2.6622753149606297
21
-9.9995160236220464
0
LINE
8
BLACK
6
CONTINUOUS
10
2.6622753149606297
20
-9.9995160236220464
11
2.6667628346456693
21
-9.9907087401574799
0
LINE
8
BLACK
6
CONTINUOUS
10
2.6667628346456693
20
-9.9907087401574799
11
2.6725728346456692
21
-9.982711929133858
0
LINE
8
BLACK
6
CONTINUOUS
10
2.6725728346456692
20
-9.982711929133858
11
2.6795623228346455
21
-9.9757224409448817
0
LINE
8
BLACK
6
CONTINUOUS
10
2.6795623228346455
20
-9.9757224409448817
11
2.6875591338582678
21
-9.9699124409448814
0
LINE
8
BLACK
6
CONTINUOUS
10
2.6875591338582678
20
-9.9699124409448814
11
2.6963664173228348
21
-9.9654249212598423
0
LINE
8
BLACK
6
CONTINUOUS
10
2.6963664173228348
20
-9.9654249212598423
11
2.7057672047244092
21
-9.9623703937007875
0
LINE
8
BLACK
6
CONTINUOUS
10
2.7057672047244092
20
-9.9623703937007875
11
2.715530118110236
21
-9.9608240944881885
0
LINE
8
BLACK
6
CONTINUOUS
10
2.715530118110236
20
-9.9608240944881885
11
2.7204724409448819
21
-9.9606299212598426
0
LINE
8
BLACK
6
CONTINUOUS
10
2.7204724409448819
20
-9.9606299212598426
11
2.8307086614173227
21
-9.9606299212598426
0
LINE
8
BLACK
6
CONTINUOUS
10
2.8307086614173227
20
-9.9606299212598426
11
2.8356509842519686
21
-9.9608240944881885
0
CIRCLE
8
BLACK
10
2.8543307086614171
20
-9.1574803149606296
40
0.0118110236220472
0
CIRCLE
8
BLACK
10
2.9251968503937009
20
-8.9881889763779519
40
0.0118110236220472
0
CIRCLE
8
BLACK
10
2.9251968503937009
20
-9.3267716535433074
40
0.0118110236220472
0
CIRCLE
8
BLACK
10
3.0944881889763778
20
-8.9173228346456686
40
0.0118110236220472
0
CIRCLE
8
BLACK
10
3.0944881889763778
20
-9.3976377952755907
40
0.0118110236220472
0
CIRCLE
8
BLACK
10
3.2598425196850394
20
-9.3307086614173222
40
0.0118110236220472
0
CIRCLE
8
BLACK
10
3.2637795275590551
20
-8.9881889763779519
40
0.0118110236220472
0
CIRCLE
8
BLACK
10
3.3346456692913384
20
-9.1574803149606296
40
0.0118110236220472
0
CIRCLE
8
BLACK
10
3.8385826771653542
20
-8.1574803149606296
40
0.0118110236220472
0
CIRCLE
8
BLACK
10
3.9094488188976375
20
-7.9881889763779528
40
0.0118110236220472
0
CIRCLE
8
BLACK
10
3.9094488188976375
20
-8.3267716535433074
40
0.0118110236220472
0
CIRCLE
8
BLACK
10
4.0787401574803148
20
-7.9173228346456694
40
0.0118110236220472
0
CIRCLE
8
BLACK
10
4.0787401574803148
20
-8.3976377952755907
40
0.0118110236220472
0
CIRCLE
8
BLACK
10
4.2440944881889759
20
-8.3307086614173222
40
0.0118110236220472
0
CIRCLE
8
BLACK
10
4.2480314960629917
20
-7.9881889763779528
40
0.0118110236220472
0
CIRCLE
8
BLACK
10
4.3188976377952759
20
-8.1574803149606296
40
0.0118110236220472
0
CIRCLE
8
BLACK
10
3.8385826771653542
20
-9.1535433070866148
40
0.0118110236220472
0
CIRCLE
8
BLACK
10
3.9094488188976375
20
-8.984251968503937
40
0.0118110236220472
0
CIRCLE
8
BLACK
10
3.9094488188976375
20
-9.3228346456692908
40
0.0118110236220472
0
CIRCLE
8
BLACK
10
4.0787401574803148
20
-8.9133858267716537
40
0.0118110236220472
0
CIRCLE
8
BLACK
10
4.0787401574803148
20
-9.3937007874015741
40
0.0118110236220472
0
CIRCLE
8
BLACK
10
4.2440944881889759
20
-9.3267716535433074
40
0.0118110236220472
0
CIRCLE
8
BLACK
10
4.2480314960629917
20
-8.984251968503937
40
0.0118110236220472
0
CIRCLE
8
BLACK
10
4.3188976377952759
20
-9.1535433070866148
40
0.0118110236220472
0
CIRCLE
8
BLACK
10
3.8385826771653542
20
-6.1889763779527556
40
0.0118110236220472
0
CIRCLE
8
BLACK
10
3.9094488188976375
20
-6.0196850393700787
40
0.0118110236220472
0
CIRCLE
8
BLACK
10
3.9094488188976375
20
-6.3582677165354333
40
0.0118110236220472
0
CIRCLE
8
BLACK
10
4.0787401574803148
20
-5.9488188976377954
40
0.0118110236220472
0
CIRCLE
8
BLACK
10
4.0787401574803148
20
-6.4291338582677167
40
0.0118110236220472
0
CIRCLE
8
BLACK
10
4.2440944881889759
20
-6.3622047244094491
40
0.0118110236220472
0
CIRCLE
8
BLACK
10
4.2480314960629917
20
-6.0196850393700787
40
0.0118110236220472
0
CIRCLE
8
BLACK
10
4.3188976377952759
20
-6.1889763779527556
40
0.0118110236220472
0
CIRCLE
8
BLACK
10
2.8543307086614171
20
-7.1889763779527556
40
0.0118110236220472
0
CIRCLE
8
BLACK
10
2.9251968503937009
20
-7.0196850393700787
40
0.0118110236220472
0
CIRCLE
8
BLACK
10
2.9251968503937009
20
-7.3582677165354333
40
0.0118110236220472
0
CIRCLE
8
BLACK
10
3.0944881889763778
20
-6.9488188976377954
40
0.0118110236220472
0
CIRCLE
8
BLACK
10
3.0944881889763778
20
-7.4291338582677167
40
0.0118110236220472
0
CIRCLE
8
BLACK
10
3.2598425196850394
20
-7.3622047244094491
40
0.0118110236220472
0
CIRCLE
8
BLACK
10
3.2637795275590551
20
-7.0196850393700787
40
0.0118110236220472
0
CIRCLE
8
BLACK
10
3.3346456692913384
20
-7.1889763779527556
40
0.0118110236220472
0
CIRCLE
8
BLACK
10
2.9173228346456694
20
-5.377952755905512
40
0.0118110236220472
0
CIRCLE
8
BLACK
10
2.9685039370078741
20
-5.2519685039370074
40
0.0118110236220472
0
CIRCLE
8
BLACK
10
2.9685039370078741
20
-5.5039370078740157
40
0.0118110236220472
0
CIRCLE
8
BLACK
10
3.0944881889763778
20
-5.2007874015748028
40
0.0118110236220472
0
CIRCLE
8
BLACK
10
3.0944881889763778
20
-5.5551181102362204
40
0.0118110236220472
0
CIRCLE
8
BLACK
10
3.2165354330708662
20
-5.5078740157480315
40
0.0118110236220472
0
CIRCLE
8
BLACK
10
3.2204724409448819
20
-5.2519685039370074
40
0.0118110236220472
0
CIRCLE
8
BLACK
10
3.2716535433070866
20
-5.377952755905512
40
0.0118110236220472
0
CIRCLE
8
BLACK
10
2.9173228346456694
20
-4.5380577559055117
40
0.0118110236220472
0
CIRCLE
8
BLACK
10
2.9685039370078741
20
-4.412073503937008
40
0.0118110236220472
0
CIRCLE
8
BLACK
10
2.9685039370078741
20
-4.6640420078740155
40
0.0118110236220472
0
CIRCLE
8
BLACK
10
3.0944881889763778
20
-4.3608924015748034
40
0.0118110236220472
0
CIRCLE
8
BLACK
10
3.0944881889763778
20
-4.7152231102362201
40
0.0118110236220472
0
CIRCLE
8
BLACK
10
3.2165354330708662
20
-4.6679790157480312
40
0.0118110236220472
0
CIRCLE
8
BLACK
10
3.2204724409448819
20
-4.412073503937008
40
0.0118110236220472
0
CIRCLE
8
BLACK
10
3.2716535433070866
20
-4.5380577559055117
40
0.0118110236220472
0
CIRCLE
8
BLACK
10
2.8543307086614171
20
-6.2047244094488185
40
0.0118110236220472
0
CIRCLE
8
BLACK
10
2.9251968503937009
20
-6.0354330708661417
40
0.0118110236220472
0
CIRCLE
8
BLACK
10
2.9251968503937009
20
-6.3740157480314963
40
0.0118110236220472
0
CIRCLE
8
BLACK
10
3.0944881889763778
20
-5.9645669291338583
40
0.0118110236220472
0
CIRCLE
8
BLACK
10
3.0944881889763778
20
-6.4448818897637796
40
0.0118110236220472
0
CIRCLE
8
BLACK
10
3.2598425196850394
20
-6.377952755905512
40
0.0118110236220472
0
CIRCLE
8
BLACK
10
3.2637795275590551
20
-6.0354330708661417
40
0.0118110236220472
0
CIRCLE
8
BLACK
10
3.3346456692913384
20
-6.2047244094488185
40
0.0118110236220472
0
CIRCLE
8
BLACK
10
3.8385826771653542
20
-7.1889763779527556
40
0.0118110236220472
0
CIRCLE
8
BLACK
10
3.9094488188976375
20
-7.0196850393700787
40
0.0118110236220472
0
CIRCLE
8
BLACK
10
3.9094488188976375
20
-7.3582677165354333
40
0.0118110236220472
0
CIRCLE
8
BLACK
10
4.0787401574803148
20
-6.9488188976377954
40
0.0118110236220472
0
CIRCLE
8
BLACK
10
4.0787401574803148
20
-7.4291338582677167
40
0.0118110236220472
0
CIRCLE
8
BLACK
10
4.2440944881889759
20
-7.3622047244094491
40
0.0118110236220472
0
CIRCLE
8
BLACK
10
4.2480314960629917
20
-7.0196850393700787
40
0.0118110236220472
0
CIRCLE
8
BLACK
10
4.3188976377952759
20
-7.1889763779527556
40
0.0118110236220472
0
CIRCLE
8
BLACK
10
2.9173228346456694
20
-2.8582677165354329
40
0.0118110236220472
0
CIRCLE
8
BLACK
10
2.9685039370078741
20
-2.7322834645669292
40
0.0118110236220472
0
CIRCLE
8
BLACK
10
2.9685039370078741
20
-2.984251968503937
40
0.0118110236220472
0
CIRCLE
8
BLACK
10
3.0944881889763778
20
-2.6811023622047245
40
0.0118110236220472
0
CIRCLE
8
BLACK
10
3.0944881889763778
20
-3.0354330708661417
40
0.0118110236220472
0
CIRCLE
8
BLACK
10
3.2165354330708662
20
-2.9881889763779528
40
0.0118110236220472
0
CIRCLE
8
BLACK
10
3.2204724409448819
20
-2.7322834645669292
40
0.0118110236220472
0
CIRCLE
8
BLACK
10
3.2716535433070866
20
-2.8582677165354329
40
0.0118110236220472
0
CIRCLE
8
BLACK
10
2.9173228346456694
20
-3.6981627165354332
40
0.0118110236220472
0
CIRCLE
8
BLACK
10
2.9685039370078741
20
-3.572178464566929
40
0.0118110236220472
0
CIRCLE
8
BLACK
10
2.9685039370078741
20
-3.8241469685039369
40
0.0118110236220472
0
CIRCLE
8
BLACK
10
3.0944881889763778
20
-3.5209973622047244
40
0.0118110236220472
0
CIRCLE
8
BLACK
10
3.0944881889763778
20
-3.8753280708661415
40
0.0118110236220472
0
CIRCLE
8
BLACK
10
3.2165354330708662
20
-3.8280839763779526
40
0.0118110236220472
0
CIRCLE
8
BLACK
10
3.2204724409448819
20
-3.572178464566929
40
0.0118110236220472
0
CIRCLE
8
BLACK
10
3.2716535433070866
20
-3.6981627165354332
40
0.0118110236220472
0
LINE
8
BLACK
6
CONTINUOUS
10
4.4527559055118111
20
-9.9606299212598426
11
4.3425196850393704
21
-9.9606299212598426
0
ARC
8
BLACK
10
4.3425196850393704
20
-10.0236220472440944
40
0.062992125984252
50
90.00000000
51
270.00000000
0
LINE
8
BLACK
6
CONTINUOUS
10
4.3425196850393704
20
-10.0866141732283463
11
4.4527559055118111
21
-10.0866141732283463
0
ARC
8
BLACK
10
4.4527559055118111
20
-10.0236220472440944
40
0.062992125984252
50
270.00000000
51
450.00000000
0
LINE
8
BLACK
6
CONTINUOUS
10
4.4527559055118111
20
-2.3228346456692912
11
4.3425196850393704
21
-2.3228346456692912
0
ARC
8
BLACK
10
4.3425196850393704
20
-2.3858267716535431
40
0.062992125984252
50
90.00000000
51
270.00000000
0
LINE
8
BLACK
6
CONTINUOUS
10
4.3425196850393704
20
-2.4488188976377954
11
4.4527559055118111
21
-2.4488188976377954
0
ARC
8
BLACK
10
4.4527559055118111
20
-2.3858267716535431
40
0.062992125984252
50
270.00000000
51
450.00000000
0
CIRCLE
8
BLACK
10
2.8543307086614171
20
-8.1732283464566926
40
0.0118110236220472
0
CIRCLE
8
BLACK
10
2.9251968503937009
20
-8.0039370078740149
40
0.0118110236220472
0
CIRCLE
8
BLACK
10
2.9251968503937009
20
-8.3425196850393704
40
0.0118110236220472
0
CIRCLE
8
BLACK
10
3.0944881889763778
20
-7.9330708661417324
40
0.0118110236220472
0
CIRCLE
8
BLACK
10
3.0944881889763778
20
-8.4133858267716537
40
0.0118110236220472
0
CIRCLE
8
BLACK
10
3.2598425196850394
20
-8.3464566929133852
40
0.0118110236220472
0
CIRCLE
8
BLACK
10
3.2637795275590551
20
-8.0039370078740149
40
0.0118110236220472
0
CIRCLE
8
BLACK
10
3.3346456692913384
20
-8.1732283464566926
40
0.0118110236220472
0
LINE
8
BLACK
6
CONTINUOUS
10
2.7204724409448819
20
-2.4488188976377954
11
2.8307086614173227
21
-2.4488188976377954
0
ARC
8
BLACK
10
2.8307086614173227
20
-2.3858267716535431
40
0.062992125984252
50
-90.00000000
51
90.00000000
0
LINE
8
BLACK
6
CONTINUOUS
10
2.8307086614173227
20
-2.3228346456692912
11
2.7204724409448819
21
-2.3228346456692912
0
ARC
8
BLACK
10
2.7204724409448819
20
-2.3858267716535431
40
0.062992125984252
50
90.00000000
51
270.00000000
0
LINE
8
BLACK
6
CONTINUOUS
10
2.7204724409448819
20
-10.0866141732283463
11
2.8307086614173227
21
-10.0866141732283463
0
ARC
8
BLACK
10
2.8307086614173227
20
-10.0236220472440944
40
0.062992125984252
50
-90.00000000
51
90.00000000
0
LINE
8
BLACK
6
CONTINUOUS
10
2.8307086614173227
20
-9.9606299212598426
11
2.7204724409448819
21
-9.9606299212598426
0
ARC
8
BLACK
10
2.7204724409448819
20
-10.0236220472440944
40
0.062992125984252
50
90.00000000
51
270.00000000
0
CIRCLE
8
BLACK
10
2.8543307086614171
20
-9.1574803149606296
40
0.0118110236220472
0
CIRCLE
8
BLACK
10
2.9251968503937009
20
-8.9881889763779519
40
0.0118110236220472
0
CIRCLE
8
BLACK
10
2.9251968503937009
20
-9.3267716535433074
40
0.0118110236220472
0
CIRCLE
8
BLACK
10
3.0944881889763778
20
-8.9173228346456686
40
0.0118110236220472
0
CIRCLE
8
BLACK
10
3.0944881889763778
20
-9.3976377952755907
40
0.0118110236220472
0
CIRCLE
8
BLACK
10
3.2598425196850394
20
-9.3307086614173222
40
0.0118110236220472
0
CIRCLE
8
BLACK
10
3.2637795275590551
20
-8.9881889763779519
40
0.0118110236220472
0
CIRCLE
8
BLACK
10
3.3346456692913384
20
-9.1574803149606296
40
0.0118110236220472
0
CIRCLE
8
BLACK
10
3.8385826771653542
20
-8.1574803149606296
40
0.0118110236220472
0
CIRCLE
8
BLACK
10
3.9094488188976375
20
-7.9881889763779528
40
0.0118110236220472
0
CIRCLE
8
BLACK
10
3.9094488188976375
20
-8.3267716535433074
40
0.0118110236220472
0
CIRCLE
8
BLACK
10
4.0787401574803148
20
-7.9173228346456694
40
0.0118110236220472
0
CIRCLE
8
BLACK
10
4.0787401574803148
20
-8.3976377952755907
40
0.0118110236220472
0
CIRCLE
8
BLACK
10
4.2440944881889759
20
-8.3307086614173222
40
0.0118110236220472
0
CIRCLE
8
BLACK
10
4.2480314960629917
20
-7.9881889763779528
40
0.0118110236220472
0
CIRCLE
8
BLACK
10
4.3188976377952759
20
-8.1574803149606296
40
0.0118110236220472
0
CIRCLE
8
BLACK
10
3.8385826771653542
20
-9.1535433070866148
40
0.0118110236220472
0
CIRCLE
8
BLACK
10
3.9094488188976375
20
-8.984251968503937
40
0.0118110236220472
0
CIRCLE
8
BLACK
10
3.9094488188976375
20
-9.3228346456692908
40
0.0118110236220472
0
CIRCLE
8
BLACK
10
4.0787401574803148
20
-8.9133858267716537
40
0.0118110236220472
0
CIRCLE
8
BLACK
10
4.0787401574803148
20
-9.3937007874015741
40
0.0118110236220472
0
CIRCLE
8
BLACK
10
4.2440944881889759
20
-9.3267716535433074
40
0.0118110236220472
0
CIRCLE
8
BLACK
10
4.2480314960629917
20
-8.984251968503937
40
0.0118110236220472
0
CIRCLE
8
BLACK
10
4.3188976377952759
20
-9.1535433070866148
40
0.0118110236220472
0
CIRCLE
8
BLACK
10
3.8385826771653542
20
-6.1889763779527556
40
0.0118110236220472
0
CIRCLE
8
BLACK
10
3.9094488188976375
20
-6.0196850393700787
40
0.0118110236220472
0
CIRCLE
8
BLACK
10
3.9094488188976375
20
-6.3582677165354333
40
0.0118110236220472
0
CIRCLE
8
BLACK
10
4.0787401574803148
20
-5.9488188976377954
40
0.0118110236220472
0
CIRCLE
8
BLACK
10
4.0787401574803148
20
-6.4291338582677167
40
0.0118110236220472
0
CIRCLE
8
BLACK
10
4.2440944881889759
20
-6.3622047244094491
40
0.0118110236220472
0
CIRCLE
8
BLACK
10
4.2480314960629917
20
-6.0196850393700787
40
0.0118110236220472
0
CIRCLE
8
BLACK
10
4.3188976377952759
20
-6.1889763779527556
40
0.0118110236220472
0
CIRCLE
8
BLACK
10
2.8543307086614171
20
-7.1889763779527556
40
0.0118110236220472
0
CIRCLE
8
BLACK
10
2.9251968503937009
20
-7.0196850393700787
40
0.0118110236220472
0
CIRCLE
8
BLACK
10
2.9251968503937009
20
-7.3582677165354333
40
0.0118110236220472
0
CIRCLE
8
BLACK
10
3.0944881889763778
20
-6.9488188976377954
40
0.0118110236220472
0
CIRCLE
8
BLACK
10
3.0944881889763778
20
-7.4291338582677167
40
0.0118110236220472
0
CIRCLE
8
BLACK
10
3.2598425196850394
20
-7.3622047244094491
40
0.0118110236220472
0
CIRCLE
8
BLACK
10
3.2637795275590551
20
-7.0196850393700787
40
0.0118110236220472
0
CIRCLE
8
BLACK
10
3.3346456692913384
20
-7.1889763779527556
40
0.0118110236220472
0
CIRCLE
8
BLACK
10
2.9173228346456694
20
-5.377952755905512
40
0.0118110236220472
0
CIRCLE
8
BLACK
10
2.9685039370078741
20
-5.2519685039370074
40
0.0118110236220472
0
CIRCLE
8
BLACK
10
2.9685039370078741
20
-5.5039370078740157
40
0.0118110236220472
0
CIRCLE
8
BLACK
10
3.0944881889763778
20
-5.2007874015748028
40
0.0118110236220472
0
CIRCLE
8
BLACK
10
3.0944881889763778
20
-5.5551181102362204
40
0.0118110236220472
0
CIRCLE
8
BLACK
10
3.2165354330708662
20
-5.5078740157480315
40
0.0118110236220472
0
CIRCLE
8
BLACK
10
3.2204724409448819
20
-5.2519685039370074
40
0.0118110236220472
0
CIRCLE
8
BLACK
10
3.2716535433070866
20
-5.377952755905512
40
0.0118110236220472
0
CIRCLE
8
BLACK
10
2.9173228346456694
20
-4.5380577559055117
40
0.0118110236220472
0
CIRCLE
8
BLACK
10
2.9685039370078741
20
-4.412073503937008
40
0.0118110236220472
0
CIRCLE
8
BLACK
10
2.9685039370078741
20
-4.6640420078740155
40
0.0118110236220472
0
CIRCLE
8
BLACK
10
3.0944881889763778
20
-4.3608924015748034
40
0.0118110236220472
0
CIRCLE
8
BLACK
10
3.0944881889763778
20
-4.7152231102362201
40
0.0118110236220472
0
CIRCLE
8
BLACK
10
3.2165354330708662
20
-4.6679790157480312
40
0.0118110236220472
0
CIRCLE
8
BLACK
10
3.2204724409448819
20
-4.412073503937008
40
0.0118110236220472
0
CIRCLE
8
BLACK
10
3.2716535433070866
20
-4.5380577559055117
40
0.0118110236220472
0
CIRCLE
8
BLACK
10
2.8543307086614171
20
-6.2047244094488185
40
0.0118110236220472
0
CIRCLE
8
BLACK
10
2.9251968503937009
20
-6.0354330708661417
40
0.0118110236220472
0
CIRCLE
8
BLACK
10
2.9251968503937009
20
-6.3740157480314963
40
0.0118110236220472
0
CIRCLE
8
BLACK
10
3.0944881889763778
20
-5.9645669291338583
40
0.0118110236220472
0
CIRCLE
8
BLACK
10
3.0944881889763778
20
-6.4448818897637796
40
0.0118110236220472
0
CIRCLE
8
BLACK
10
3.2598425196850394
20
-6.377952755905512
40
0.0118110236220472
0
CIRCLE
8
BLACK
10
3.2637795275590551
20
-6.0354330708661417
40
0.0118110236220472
0
CIRCLE
8
BLACK
10
3.3346456692913384
20
-6.2047244094488185
40
0.0118110236220472
0
CIRCLE
8
BLACK
10
3.8385826771653542
20
-7.1889763779527556
40
0.0118110236220472
0
CIRCLE
8
BLACK
10
3.9094488188976375
20
-7.0196850393700787
40
0.0118110236220472
0
CIRCLE
8
BLACK
10
3.9094488188976375
20
-7.3582677165354333
40
0.0118110236220472
0
CIRCLE
8
BLACK
10
4.0787401574803148
20
-6.9488188976377954
40
0.0118110236220472
0
CIRCLE
8
BLACK
10
4.0787401574803148
20
-7.4291338582677167
40
0.0118110236220472
0
CIRCLE
8
BLACK
10
4.2440944881889759
20
-7.3622047244094491
40
0.0118110236220472
0
CIRCLE
8
BLACK
10
4.2480314960629917
20
-7.0196850393700787
40
0.0118110236220472
0
CIRCLE
8
BLACK
10
4.3188976377952759
20
-7.1889763779527556
40
0.0118110236220472
0
CIRCLE
8
BLACK
10
2.9173228346456694
20
-2.8582677165354329
40
0.0118110236220472
0
CIRCLE
8
BLACK
10
2.9685039370078741
20
-2.7322834645669292
40
0.0118110236220472
0
CIRCLE
8
BLACK
10
2.9685039370078741
20
-2.984251968503937
40
0.0118110236220472
0
CIRCLE
8
BLACK
10
3.0944881889763778
20
-2.6811023622047245
40
0.0118110236220472
0
CIRCLE
8
BLACK
10
3.0944881889763778
20
-3.0354330708661417
40
0.0118110236220472
0
CIRCLE
8
BLACK
10
3.2165354330708662
20
-2.9881889763779528
40
0.0118110236220472
0
CIRCLE
8
BLACK
10
3.2204724409448819
20
-2.7322834645669292
40
0.0118110236220472
0
CIRCLE
8
BLACK
10
3.2716535433070866
20
-2.8582677165354329
40
0.0118110236220472
0
CIRCLE
8
BLACK
10
2.9173228346456694
20
-3.6981627165354332
40
0.0118110236220472
0
CIRCLE
8
BLACK
10
2.9685039370078741
20
-3.572178464566929
40
0.0118110236220472
0
CIRCLE
8
BLACK
10
2.9685039370078741
20
-3.8241469685039369
40
0.0118110236220472
0
CIRCLE
8
BLACK
10
3.0944881889763778
20
-3.5209973622047244
40
0.0118110236220472
0
CIRCLE
8
BLACK
10
3.0944881889763778
20
-3.8753280708661415
40
0.0118110236220472
0
CIRCLE
8
BLACK
10
3.2165354330708662
20
-3.8280839763779526
40
0.0118110236220472
0
CIRCLE
8
BLACK
10
3.2204724409448819
20
-3.572178464566929
40
0.0118110236220472
0
CIRCLE
8
BLACK
10
3.2716535433070866
20
-3.6981627165354332
40
0.0118110236220472
  0
ENDSEC
  0
EOF
