  0
SECTION
  2
HEADER
  9
$ANGBASE
  50
0.0
  9
$ANGDIR
  70
1
  9
$MEASUREMENT
  70
1
  0
ENDSEC
  0
SECTION
  2
TABLES
  0
TABLE
  2
LTYPE
  70
4
  0
LTYPE
  5
40F
  2
CONTINUOUS
  70
0
  3
Solid line
  72
65
  73
0
  40
0.0
  0
LTYPE
  5
410
  2
DASHDOT
 70
0
  3
Dash Dot ____ _ ____ _
 72
65
 73
4
 40
2.0
 49
1.25
 49
-0.25
 49
0.25
 49
-0.25
  0
LTYPE
  5
411
  2
DASHED
 70
0
  3
Dashed __ __ __ __ __
 72
65
 73
2
 40
0.75
 49
0.5
 49
-0.25
  0
LTYPE
  5
43B
  2
DOTTED
 70
0
  3
Dotted .  .  .  .
 72
65
 73
2
 40
0.2
 49
0.0
 49
-0.2
  0
ENDTAB
  0
TABLE
  2
STYLE
  70
4
  0
STYLE
  2
KICAD
  70
0
  40
0
  41
1
  42
1
  50
0
  71
0
  3
isocp.shx
  0
STYLE
  2
KICADB
  70
0
  40
0
  41
1
  42
1
  50
0
  71
0
  3
isocp.shx
  0
STYLE
  2
KICADI
  70
0
  40
0
  41
1
  42
1
  50
15
  71
0
  3
isocp.shx
  0
STYLE
  2
KICADBI
  70
0
  40
0
  41
1
  42
1
  50
15
  71
0
  3
isocp.shx
  0
ENDTAB
  0
TABLE
  2
LAYER
  70
1
  0
LAYER
  2
BLACK
  70
0
  62
7
  6
CONTINUOUS
  0
ENDTAB
  0
ENDSEC
  0
SECTION
  2
ENTITIES
0
LINE
8
BLACK
6
CONTINUOUS
10
66.0999999999999943
20
-257.5999999999999659
11
116.0999999999999943
21
-257.5999999999999659
0
LINE
8
BLACK
6
CONTINUOUS
10
116.0999999999999943
20
-57.5999999999999943
11
66.0999999999999943
21
-57.5999999999999943
0
LINE
8
BLACK
6
CONTINUOUS
10
66.0999999999999943
20
-57.5999999999999943
11
66.0999999999999943
21
-257.5999999999999659
0
LINE
8
BLACK
6
CONTINUOUS
10
116.0999999999999943
20
-257.5999999999999659
11
116.0999999999999943
21
-57.5999999999999943
0
CIRCLE
8
BLACK
10
83.0999999999999943
20
-94.0999999999999943
40
3.2999999999999998
0
CIRCLE
8
BLACK
10
83.0999999999999943
20
-72.5999999999999943
40
3.2999999999999998
0
CIRCLE
8
BLACK
10
83.0999999999999943
20
-115.0999999999999943
40
3.2999999999999998
0
CIRCLE
8
BLACK
10
83.0999999999999943
20
-136.5999999999999943
40
3.2999999999999998
0
CIRCLE
8
BLACK
10
103.5999999999999943
20
-182.5999999999999943
40
4.8999999999999995
0
CIRCLE
8
BLACK
10
78.5999999999999943
20
-157.5999999999999943
40
4.8999999999999995
0
CIRCLE
8
BLACK
10
78.5999999999999943
20
-182.5999999999999943
40
4.8999999999999995
0
CIRCLE
8
BLACK
10
103.5999999999999943
20
-157.5999999999999943
40
4.8999999999999995
0
CIRCLE
8
BLACK
10
103.5999999999999943
20
-207.5999999999999943
40
4.8999999999999995
0
CIRCLE
8
BLACK
10
78.5999999999999943
20
-232.5999999999999943
40
4.8999999999999995
0
CIRCLE
8
BLACK
10
78.5999999999999943
20
-207.5999999999999943
40
4.8999999999999995
0
CIRCLE
8
BLACK
10
103.5999999999999943
20
-232.5999999999999943
40
4.8999999999999995
0
LINE
8
BLACK
6
CONTINUOUS
10
68.6577679999999901
20
-260.7648379999999975
11
68.6577679999999901
21
-258.7648379999999975
0
LINE
8
BLACK
6
CONTINUOUS
10
68.6577679999999901
20
-258.7648379999999975
11
69.1339579999999927
21
-258.7648379999999975
0
LINE
8
BLACK
6
CONTINUOUS
10
69.1339579999999927
20
-258.7648379999999975
11
69.4196730000000031
21
-258.8600759999999923
0
LINE
8
BLACK
6
CONTINUOUS
10
69.4196730000000031
20
-258.8600759999999923
11
69.6101489999999927
21
-259.0505519999999819
0
LINE
8
BLACK
6
CONTINUOUS
10
69.6101489999999927
20
-259.0505519999999819
11
69.7053870000000018
21
-259.2410279999999716
0
LINE
8
BLACK
6
CONTINUOUS
10
69.7053870000000018
20
-259.2410279999999716
11
69.8006249999999966
21
-259.6219800000000077
0
LINE
8
BLACK
6
CONTINUOUS
10
69.8006249999999966
20
-259.6219800000000077
11
69.8006249999999966
21
-259.9076949999999897
0
LINE
8
BLACK
6
CONTINUOUS
10
69.8006249999999966
20
-259.9076949999999897
11
69.7053870000000018
21
-260.288646999999969
0
LINE
8
BLACK
6
CONTINUOUS
10
69.7053870000000018
20
-260.288646999999969
11
69.6101489999999927
21
-260.4791230000000155
0
LINE
8
BLACK
6
CONTINUOUS
10
69.6101489999999927
20
-260.4791230000000155
11
69.4196730000000031
21
-260.6696000000000026
0
LINE
8
BLACK
6
CONTINUOUS
10
69.4196730000000031
20
-260.6696000000000026
11
69.1339579999999927
21
-260.7648379999999975
0
LINE
8
BLACK
6
CONTINUOUS
10
69.1339579999999927
20
-260.7648379999999975
11
68.6577679999999901
21
-260.7648379999999975
0
LINE
8
BLACK
6
CONTINUOUS
10
70.6577679999999901
20
-260.7648379999999975
11
70.6577679999999901
21
-259.4315039999999613
0
LINE
8
BLACK
6
CONTINUOUS
10
70.6577679999999901
20
-259.8124569999999949
11
70.7530059999999992
21
-259.6219800000000077
0
LINE
8
BLACK
6
CONTINUOUS
10
70.7530059999999992
20
-259.6219800000000077
11
70.848243999999994
21
-259.5267420000000129
0
LINE
8
BLACK
6
CONTINUOUS
10
70.848243999999994
20
-259.5267420000000129
11
71.0387199999999979
21
-259.4315039999999613
0
LINE
8
BLACK
6
CONTINUOUS
10
71.0387199999999979
20
-259.4315039999999613
11
71.2291969999999992
21
-259.4315039999999613
0
LINE
8
BLACK
6
CONTINUOUS
10
71.8958629999999914
20
-260.7648379999999975
11
71.8958629999999914
21
-259.4315039999999613
0
LINE
8
BLACK
6
CONTINUOUS
10
71.8958629999999914
20
-258.7648379999999975
11
71.8006249999999966
21
-258.8600759999999923
0
LINE
8
BLACK
6
CONTINUOUS
10
71.8006249999999966
20
-258.8600759999999923
11
71.8958629999999914
21
-258.9553139999999871
0
LINE
8
BLACK
6
CONTINUOUS
10
71.8958629999999914
20
-258.9553139999999871
11
71.9911010000000005
21
-258.8600759999999923
0
LINE
8
BLACK
6
CONTINUOUS
10
71.9911010000000005
20
-258.8600759999999923
11
71.8958629999999914
21
-258.7648379999999975
0
LINE
8
BLACK
6
CONTINUOUS
10
71.8958629999999914
20
-258.7648379999999975
11
71.8958629999999914
21
-258.9553139999999871
0
LINE
8
BLACK
6
CONTINUOUS
10
73.1339579999999927
20
-260.7648379999999975
11
72.943482000000003
21
-260.6696000000000026
0
LINE
8
BLACK
6
CONTINUOUS
10
72.943482000000003
20
-260.6696000000000026
11
72.848243999999994
21
-260.4791230000000155
0
LINE
8
BLACK
6
CONTINUOUS
10
72.848243999999994
20
-260.4791230000000155
11
72.848243999999994
21
-258.7648379999999975
0
LINE
8
BLACK
6
CONTINUOUS
10
74.1815769999999901
20
-260.7648379999999975
11
73.9911010000000005
21
-260.6696000000000026
0
LINE
8
BLACK
6
CONTINUOUS
10
73.9911010000000005
20
-260.6696000000000026
11
73.8958629999999914
21
-260.4791230000000155
0
LINE
8
BLACK
6
CONTINUOUS
10
73.8958629999999914
20
-260.4791230000000155
11
73.8958629999999914
21
-258.7648379999999975
0
LINE
8
BLACK
6
CONTINUOUS
10
76.4672920000000005
20
-260.7648379999999975
11
76.4672920000000005
21
-258.7648379999999975
0
LINE
8
BLACK
6
CONTINUOUS
10
76.4672920000000005
20
-258.7648379999999975
11
77.1339589999999902
21
-260.1934089999999742
0
LINE
8
BLACK
6
CONTINUOUS
10
77.1339589999999902
20
-260.1934089999999742
11
77.8006249999999966
21
-258.7648379999999975
0
LINE
8
BLACK
6
CONTINUOUS
10
77.8006249999999966
20
-258.7648379999999975
11
77.8006249999999966
21
-260.7648379999999975
0
LINE
8
BLACK
6
CONTINUOUS
10
79.6101489999999927
20
-260.7648379999999975
11
79.6101489999999927
21
-259.7172190000000001
0
LINE
8
BLACK
6
CONTINUOUS
10
79.6101489999999927
20
-259.7172190000000001
11
79.5149109999999979
21
-259.5267420000000129
0
LINE
8
BLACK
6
CONTINUOUS
10
79.5149109999999979
20
-259.5267420000000129
11
79.324434999999994
21
-259.4315039999999613
0
LINE
8
BLACK
6
CONTINUOUS
10
79.324434999999994
20
-259.4315039999999613
11
78.943482000000003
21
-259.4315039999999613
0
LINE
8
BLACK
6
CONTINUOUS
10
78.943482000000003
20
-259.4315039999999613
11
78.7530059999999992
21
-259.5267420000000129
0
LINE
8
BLACK
6
CONTINUOUS
10
79.6101489999999927
20
-260.6696000000000026
11
79.4196730000000031
21
-260.7648379999999975
0
LINE
8
BLACK
6
CONTINUOUS
10
79.4196730000000031
20
-260.7648379999999975
11
78.943482000000003
21
-260.7648379999999975
0
LINE
8
BLACK
6
CONTINUOUS
10
78.943482000000003
20
-260.7648379999999975
11
78.7530059999999992
21
-260.6696000000000026
0
LINE
8
BLACK
6
CONTINUOUS
10
78.7530059999999992
20
-260.6696000000000026
11
78.6577679999999901
21
-260.4791230000000155
0
LINE
8
BLACK
6
CONTINUOUS
10
78.6577679999999901
20
-260.4791230000000155
11
78.6577679999999901
21
-260.288646999999969
0
LINE
8
BLACK
6
CONTINUOUS
10
78.6577679999999901
20
-260.288646999999969
11
78.7530059999999992
21
-260.0981709999999794
0
LINE
8
BLACK
6
CONTINUOUS
10
78.7530059999999992
20
-260.0981709999999794
11
78.943482000000003
21
-260.0029329999999845
0
LINE
8
BLACK
6
CONTINUOUS
10
78.943482000000003
20
-260.0029329999999845
11
79.4196730000000031
21
-260.0029329999999845
0
LINE
8
BLACK
6
CONTINUOUS
10
79.4196730000000031
20
-260.0029329999999845
11
79.6101489999999927
21
-259.9076949999999897
0
LINE
8
BLACK
6
CONTINUOUS
10
80.5625299999999953
20
-259.4315039999999613
11
80.5625299999999953
21
-261.4315039999999613
0
LINE
8
BLACK
6
CONTINUOUS
10
80.5625299999999953
20
-259.5267420000000129
11
80.7530059999999992
21
-259.4315039999999613
0
LINE
8
BLACK
6
CONTINUOUS
10
80.7530059999999992
20
-259.4315039999999613
11
81.1339589999999902
21
-259.4315039999999613
0
LINE
8
BLACK
6
CONTINUOUS
10
81.1339589999999902
20
-259.4315039999999613
11
81.324434999999994
21
-259.5267420000000129
0
LINE
8
BLACK
6
CONTINUOUS
10
81.324434999999994
20
-259.5267420000000129
11
81.4196730000000031
21
-259.6219800000000077
0
LINE
8
BLACK
6
CONTINUOUS
10
81.4196730000000031
20
-259.6219800000000077
11
81.5149109999999979
21
-259.8124569999999949
0
LINE
8
BLACK
6
CONTINUOUS
10
81.5149109999999979
20
-259.8124569999999949
11
81.5149109999999979
21
-260.3838849999999638
0
LINE
8
BLACK
6
CONTINUOUS
10
81.5149109999999979
20
-260.3838849999999638
11
81.4196730000000031
21
-260.5743610000000103
0
LINE
8
BLACK
6
CONTINUOUS
10
81.4196730000000031
20
-260.5743610000000103
11
81.324434999999994
21
-260.6696000000000026
0
LINE
8
BLACK
6
CONTINUOUS
10
81.324434999999994
20
-260.6696000000000026
11
81.1339589999999902
21
-260.7648379999999975
0
LINE
8
BLACK
6
CONTINUOUS
10
81.1339589999999902
20
-260.7648379999999975
11
80.7530059999999992
21
-260.7648379999999975
0
LINE
8
BLACK
6
CONTINUOUS
10
80.7530059999999992
20
-260.7648379999999975
11
80.5625299999999953
21
-260.6696000000000026
0
LINE
8
BLACK
6
CONTINUOUS
10
82.3720539999999914
20
-260.5743610000000103
11
82.4672920000000005
21
-260.6696000000000026
0
LINE
8
BLACK
6
CONTINUOUS
10
82.4672920000000005
20
-260.6696000000000026
11
82.3720539999999914
21
-260.7648379999999975
0
LINE
8
BLACK
6
CONTINUOUS
10
82.3720539999999914
20
-260.7648379999999975
11
82.2768159999999966
21
-260.6696000000000026
0
LINE
8
BLACK
6
CONTINUOUS
10
82.2768159999999966
20
-260.6696000000000026
11
82.3720539999999914
21
-260.5743610000000103
0
LINE
8
BLACK
6
CONTINUOUS
10
82.3720539999999914
20
-260.5743610000000103
11
82.3720539999999914
21
-260.7648379999999975
0
LINE
8
BLACK
6
CONTINUOUS
10
82.3720539999999914
20
-259.5267420000000129
11
82.4672920000000005
21
-259.6219800000000077
0
LINE
8
BLACK
6
CONTINUOUS
10
82.4672920000000005
20
-259.6219800000000077
11
82.3720539999999914
21
-259.7172190000000001
0
LINE
8
BLACK
6
CONTINUOUS
10
82.3720539999999914
20
-259.7172190000000001
11
82.2768159999999966
21
-259.6219800000000077
0
LINE
8
BLACK
6
CONTINUOUS
10
82.2768159999999966
20
-259.6219800000000077
11
82.3720539999999914
21
-259.5267420000000129
0
LINE
8
BLACK
6
CONTINUOUS
10
82.3720539999999914
20
-259.5267420000000129
11
82.3720539999999914
21
-259.7172190000000001
  0
ENDSEC
  0
EOF
