M48
; DRILL file {KiCad 9.0.3} date 2025-07-18T21:49:39-0700
; FORMAT={-:-/ absolute / metric / decimal}
; #@! TF.CreationDate,2025-07-18T21:49:39-07:00
; #@! TF.GenerationSoftware,Kicad,Pcbnew,9.0.3
; #@! TF.FileFunction,Plated,1,2,PTH
FMAT,2
METRIC
; #@! TA.AperFunction,Plated,PTH,ComponentDrill
T1C0.600
; #@! TA.AperFunction,Plated,PTH,ComponentDrill
T2C3.200
%
G90
G05
T1
X72.5Y-157.6
X72.5Y-182.6
X72.5Y-207.6
X72.5Y-232.6
X73.85Y-74.933
X73.85Y-96.267
X73.85Y-117.6
X73.85Y-138.933
X74.3Y-153.3
X74.3Y-161.9
X74.3Y-178.3
X74.3Y-186.9
X74.3Y-203.3
X74.3Y-211.9
X74.3Y-228.3
X74.3Y-236.9
X75.15Y-71.733
X75.15Y-78.133
X75.15Y-93.067
X75.15Y-99.467
X75.15Y-114.4
X75.15Y-120.8
X75.15Y-135.733
X75.15Y-142.133
X78.35Y-70.433
X78.35Y-79.433
X78.35Y-91.767
X78.35Y-100.767
X78.35Y-113.1
X78.35Y-122.1
X78.35Y-134.433
X78.35Y-143.433
X78.6Y-151.5
X78.6Y-163.7
X78.6Y-176.5
X78.6Y-188.7
X78.6Y-201.5
X78.6Y-213.7
X78.6Y-226.5
X78.6Y-238.7
X81.45Y-78.233
X81.45Y-99.567
X81.45Y-120.9
X81.45Y-142.233
X81.55Y-71.733
X81.55Y-93.067
X81.55Y-114.4
X81.55Y-135.733
X82.8Y-162.0
X82.8Y-187.0
X82.8Y-212.0
X82.8Y-237.0
X82.85Y-74.933
X82.85Y-96.267
X82.85Y-117.6
X82.85Y-138.933
X82.9Y-153.3
X82.9Y-178.3
X82.9Y-203.3
X82.9Y-228.3
X84.7Y-157.6
X84.7Y-182.6
X84.7Y-207.6
X84.7Y-232.6
X97.5Y-157.2
X97.5Y-182.6
X97.5Y-207.2
X97.5Y-232.5
X99.3Y-152.9
X99.3Y-161.5
X99.3Y-178.3
X99.3Y-186.9
X99.3Y-202.9
X99.3Y-211.5
X99.3Y-228.2
X99.3Y-236.8
X103.6Y-151.1
X103.6Y-163.3
X103.6Y-176.5
X103.6Y-188.7
X103.6Y-201.1
X103.6Y-213.3
X103.6Y-226.4
X103.6Y-238.6
X107.8Y-161.6
X107.8Y-187.0
X107.8Y-211.6
X107.8Y-236.9
X107.9Y-152.9
X107.9Y-178.3
X107.9Y-202.9
X107.9Y-228.2
X109.7Y-157.2
X109.7Y-182.6
X109.7Y-207.2
X109.7Y-232.5
T2
G00X69.1Y-60.6
M15
G01X71.9Y-60.6
M16
G05
G00X69.1Y-254.6
M15
G01X71.9Y-254.6
M16
G05
G00X113.1Y-60.6
M15
G01X110.3Y-60.6
M16
G05
G00X113.1Y-254.6
M15
G01X110.3Y-254.6
M16
G05
M30
