  0
SECTION
  2
HEADER
  9
$ANGBASE
  50
0.0
  9
$ANGDIR
  70
1
  9
$MEASUREMENT
  70
1
  0
ENDSEC
  0
SECTION
  2
TABLES
  0
TABLE
  2
LTYPE
  70
4
  0
LTYPE
  5
40F
  2
CONTINUOUS
  70
0
  3
Solid line
  72
65
  73
0
  40
0.0
  0
LTYPE
  5
410
  2
DASHDOT
 70
0
  3
Dash Dot ____ _ ____ _
 72
65
 73
4
 40
2.0
 49
1.25
 49
-0.25
 49
0.25
 49
-0.25
  0
LTYPE
  5
411
  2
DASHED
 70
0
  3
Dashed __ __ __ __ __
 72
65
 73
2
 40
0.75
 49
0.5
 49
-0.25
  0
LTYPE
  5
43B
  2
DOTTED
 70
0
  3
Dotted .  .  .  .
 72
65
 73
2
 40
0.2
 49
0.0
 49
-0.2
  0
ENDTAB
  0
TABLE
  2
STYLE
  70
4
  0
STYLE
  2
KICAD
  70
0
  40
0
  41
1
  42
1
  50
0
  71
0
  3
isocp.shx
  0
STYLE
  2
KICADB
  70
0
  40
0
  41
1
  42
1
  50
0
  71
0
  3
isocp.shx
  0
STYLE
  2
KICADI
  70
0
  40
0
  41
1
  42
1
  50
15
  71
0
  3
isocp.shx
  0
STYLE
  2
KICADBI
  70
0
  40
0
  41
1
  42
1
  50
15
  71
0
  3
isocp.shx
  0
ENDTAB
  0
TABLE
  2
LAYER
  70
1
  0
LAYER
  2
BLACK
  70
0
  62
7
  6
CONTINUOUS
  0
ENDTAB
  0
ENDSEC
  0
SECTION
  2
ENTITIES
0
LINE
8
BLACK
6
CONTINUOUS
10
66.0999999999999943
20
-257.5999999999999659
11
116.0999999999999943
21
-257.5999999999999659
0
LINE
8
BLACK
6
CONTINUOUS
10
116.0999999999999943
20
-57.5999999999999943
11
66.0999999999999943
21
-57.5999999999999943
0
LINE
8
BLACK
6
CONTINUOUS
10
66.0999999999999943
20
-57.5999999999999943
11
66.0999999999999943
21
-257.5999999999999659
0
LINE
8
BLACK
6
CONTINUOUS
10
116.0999999999999943
20
-257.5999999999999659
11
116.0999999999999943
21
-57.5999999999999943
0
CIRCLE
8
BLACK
10
83.0999999999999943
20
-94.0999999999999943
40
3.2999999999999998
0
CIRCLE
8
BLACK
10
83.0999999999999943
20
-72.5999999999999943
40
3.2999999999999998
0
CIRCLE
8
BLACK
10
83.0999999999999943
20
-115.0999999999999943
40
3.2999999999999998
0
CIRCLE
8
BLACK
10
83.0999999999999943
20
-136.5999999999999943
40
3.2999999999999998
0
CIRCLE
8
BLACK
10
103.5999999999999943
20
-182.5999999999999943
40
4.8999999999999995
0
CIRCLE
8
BLACK
10
78.5999999999999943
20
-157.5999999999999943
40
4.8999999999999995
0
CIRCLE
8
BLACK
10
78.5999999999999943
20
-182.5999999999999943
40
4.8999999999999995
0
CIRCLE
8
BLACK
10
103.5999999999999943
20
-157.5999999999999943
40
4.8999999999999995
0
CIRCLE
8
BLACK
10
103.5999999999999943
20
-207.5999999999999943
40
4.8999999999999995
0
CIRCLE
8
BLACK
10
78.5999999999999943
20
-232.5999999999999943
40
4.8999999999999995
0
CIRCLE
8
BLACK
10
78.5999999999999943
20
-207.5999999999999943
40
4.8999999999999995
0
CIRCLE
8
BLACK
10
103.5999999999999943
20
-232.5999999999999943
40
4.8999999999999995
0
LINE
8
BLACK
6
CONTINUOUS
10
72.2000000000000028
20
-157.2999999999999829
11
72.7999999999999972
21
-157.9000000000000057
0
LINE
8
BLACK
6
CONTINUOUS
10
72.7999999999999972
20
-157.2999999999999829
11
72.2000000000000028
21
-157.9000000000000057
0
LINE
8
BLACK
6
CONTINUOUS
10
72.2000000000000028
20
-182.2999999999999829
11
72.7999999999999972
21
-182.9000000000000057
0
LINE
8
BLACK
6
CONTINUOUS
10
72.7999999999999972
20
-182.2999999999999829
11
72.2000000000000028
21
-182.9000000000000057
0
LINE
8
BLACK
6
CONTINUOUS
10
72.2000000000000028
20
-207.2999999999999829
11
72.7999999999999972
21
-207.8999999999999773
0
LINE
8
BLACK
6
CONTINUOUS
10
72.7999999999999972
20
-207.2999999999999829
11
72.2000000000000028
21
-207.8999999999999773
0
LINE
8
BLACK
6
CONTINUOUS
10
72.2000000000000028
20
-232.2999999999999829
11
72.7999999999999972
21
-232.8999999999999773
0
LINE
8
BLACK
6
CONTINUOUS
10
72.7999999999999972
20
-232.2999999999999829
11
72.2000000000000028
21
-232.8999999999999773
0
LINE
8
BLACK
6
CONTINUOUS
10
74.
20
-153.
11
74.5999999999999943
21
-153.5999999999999943
0
LINE
8
BLACK
6
CONTINUOUS
10
74.5999999999999943
20
-153.
11
74.
21
-153.5999999999999943
0
LINE
8
BLACK
6
CONTINUOUS
10
74.
20
-161.5999999999999943
11
74.5999999999999943
21
-162.1999999999999886
0
LINE
8
BLACK
6
CONTINUOUS
10
74.5999999999999943
20
-161.5999999999999943
11
74.
21
-162.1999999999999886
0
LINE
8
BLACK
6
CONTINUOUS
10
74.
20
-178.
11
74.5999999999999943
21
-178.5999999999999943
0
LINE
8
BLACK
6
CONTINUOUS
10
74.5999999999999943
20
-178.
11
74.
21
-178.5999999999999943
0
LINE
8
BLACK
6
CONTINUOUS
10
74.
20
-186.5999999999999943
11
74.5999999999999943
21
-187.1999999999999886
0
LINE
8
BLACK
6
CONTINUOUS
10
74.5999999999999943
20
-186.5999999999999943
11
74.
21
-187.1999999999999886
0
LINE
8
BLACK
6
CONTINUOUS
10
74.
20
-203.
11
74.5999999999999943
21
-203.5999999999999943
0
LINE
8
BLACK
6
CONTINUOUS
10
74.5999999999999943
20
-203.
11
74.
21
-203.5999999999999943
0
LINE
8
BLACK
6
CONTINUOUS
10
74.
20
-211.5999999999999943
11
74.5999999999999943
21
-212.1999999999999886
0
LINE
8
BLACK
6
CONTINUOUS
10
74.5999999999999943
20
-211.5999999999999943
11
74.
21
-212.1999999999999886
0
LINE
8
BLACK
6
CONTINUOUS
10
74.
20
-228.
11
74.5999999999999943
21
-228.5999999999999943
0
LINE
8
BLACK
6
CONTINUOUS
10
74.5999999999999943
20
-228.
11
74.
21
-228.5999999999999943
0
LINE
8
BLACK
6
CONTINUOUS
10
74.
20
-236.5999999999999943
11
74.5999999999999943
21
-237.1999999999999886
0
LINE
8
BLACK
6
CONTINUOUS
10
74.5999999999999943
20
-236.5999999999999943
11
74.
21
-237.1999999999999886
0
LINE
8
BLACK
6
CONTINUOUS
10
78.2999999999999972
20
-72.2999999999999972
11
78.8999999999999915
21
-72.8999999999999915
0
LINE
8
BLACK
6
CONTINUOUS
10
78.8999999999999915
20
-72.2999999999999972
11
78.2999999999999972
21
-72.8999999999999915
0
LINE
8
BLACK
6
CONTINUOUS
10
78.2999999999999972
20
-93.7999999999999972
11
78.8999999999999915
21
-94.3999999999999915
0
LINE
8
BLACK
6
CONTINUOUS
10
78.8999999999999915
20
-93.7999999999999972
11
78.2999999999999972
21
-94.3999999999999915
0
LINE
8
BLACK
6
CONTINUOUS
10
78.2999999999999972
20
-114.7999999999999972
11
78.8999999999999915
21
-115.3999999999999915
0
LINE
8
BLACK
6
CONTINUOUS
10
78.8999999999999915
20
-114.7999999999999972
11
78.2999999999999972
21
-115.3999999999999915
0
LINE
8
BLACK
6
CONTINUOUS
10
78.2999999999999972
20
-136.2999999999999829
11
78.8999999999999915
21
-136.9000000000000057
0
LINE
8
BLACK
6
CONTINUOUS
10
78.8999999999999915
20
-136.2999999999999829
11
78.2999999999999972
21
-136.9000000000000057
0
LINE
8
BLACK
6
CONTINUOUS
10
78.2999999999999972
20
-151.1999999999999886
11
78.8999999999999915
21
-151.7999999999999829
0
LINE
8
BLACK
6
CONTINUOUS
10
78.8999999999999915
20
-151.1999999999999886
11
78.2999999999999972
21
-151.7999999999999829
0
LINE
8
BLACK
6
CONTINUOUS
10
78.2999999999999972
20
-163.4000000000000057
11
78.8999999999999915
21
-164.
0
LINE
8
BLACK
6
CONTINUOUS
10
78.8999999999999915
20
-163.4000000000000057
11
78.2999999999999972
21
-164.
0
LINE
8
BLACK
6
CONTINUOUS
10
78.2999999999999972
20
-176.1999999999999886
11
78.8999999999999915
21
-176.7999999999999829
0
LINE
8
BLACK
6
CONTINUOUS
10
78.8999999999999915
20
-176.1999999999999886
11
78.2999999999999972
21
-176.7999999999999829
0
LINE
8
BLACK
6
CONTINUOUS
10
78.2999999999999972
20
-188.4000000000000057
11
78.8999999999999915
21
-189.
0
LINE
8
BLACK
6
CONTINUOUS
10
78.8999999999999915
20
-188.4000000000000057
11
78.2999999999999972
21
-189.
0
LINE
8
BLACK
6
CONTINUOUS
10
78.2999999999999972
20
-201.1999999999999886
11
78.8999999999999915
21
-201.7999999999999829
0
LINE
8
BLACK
6
CONTINUOUS
10
78.8999999999999915
20
-201.1999999999999886
11
78.2999999999999972
21
-201.7999999999999829
0
LINE
8
BLACK
6
CONTINUOUS
10
78.2999999999999972
20
-213.3999999999999773
11
78.8999999999999915
21
-214.
0
LINE
8
BLACK
6
CONTINUOUS
10
78.8999999999999915
20
-213.3999999999999773
11
78.2999999999999972
21
-214.
0
LINE
8
BLACK
6
CONTINUOUS
10
78.2999999999999972
20
-226.1999999999999886
11
78.8999999999999915
21
-226.7999999999999829
0
LINE
8
BLACK
6
CONTINUOUS
10
78.8999999999999915
20
-226.1999999999999886
11
78.2999999999999972
21
-226.7999999999999829
0
LINE
8
BLACK
6
CONTINUOUS
10
78.2999999999999972
20
-238.3999999999999773
11
78.8999999999999915
21
-239.
0
LINE
8
BLACK
6
CONTINUOUS
10
78.8999999999999915
20
-238.3999999999999773
11
78.2999999999999972
21
-239.
0
LINE
8
BLACK
6
CONTINUOUS
10
79.5999999999999943
20
-69.0999999999999943
11
80.2000000000000028
21
-69.7000000000000028
0
LINE
8
BLACK
6
CONTINUOUS
10
80.2000000000000028
20
-69.0999999999999943
11
79.5999999999999943
21
-69.7000000000000028
0
LINE
8
BLACK
6
CONTINUOUS
10
79.5999999999999943
20
-75.5
11
80.2000000000000028
21
-76.0999999999999943
0
LINE
8
BLACK
6
CONTINUOUS
10
80.2000000000000028
20
-75.5
11
79.5999999999999943
21
-76.0999999999999943
0
LINE
8
BLACK
6
CONTINUOUS
10
79.5999999999999943
20
-90.5999999999999943
11
80.2000000000000028
21
-91.2000000000000028
0
LINE
8
BLACK
6
CONTINUOUS
10
80.2000000000000028
20
-90.5999999999999943
11
79.5999999999999943
21
-91.2000000000000028
0
LINE
8
BLACK
6
CONTINUOUS
10
79.5999999999999943
20
-97.
11
80.2000000000000028
21
-97.5999999999999943
0
LINE
8
BLACK
6
CONTINUOUS
10
80.2000000000000028
20
-97.
11
79.5999999999999943
21
-97.5999999999999943
0
LINE
8
BLACK
6
CONTINUOUS
10
79.5999999999999943
20
-111.5999999999999943
11
80.2000000000000028
21
-112.1999999999999886
0
LINE
8
BLACK
6
CONTINUOUS
10
80.2000000000000028
20
-111.5999999999999943
11
79.5999999999999943
21
-112.1999999999999886
0
LINE
8
BLACK
6
CONTINUOUS
10
79.5999999999999943
20
-118.
11
80.2000000000000028
21
-118.5999999999999943
0
LINE
8
BLACK
6
CONTINUOUS
10
80.2000000000000028
20
-118.
11
79.5999999999999943
21
-118.5999999999999943
0
LINE
8
BLACK
6
CONTINUOUS
10
79.5999999999999943
20
-133.0999999999999943
11
80.2000000000000028
21
-133.6999999999999886
0
LINE
8
BLACK
6
CONTINUOUS
10
80.2000000000000028
20
-133.0999999999999943
11
79.5999999999999943
21
-133.6999999999999886
0
LINE
8
BLACK
6
CONTINUOUS
10
79.5999999999999943
20
-139.5
11
80.2000000000000028
21
-140.0999999999999943
0
LINE
8
BLACK
6
CONTINUOUS
10
80.2000000000000028
20
-139.5
11
79.5999999999999943
21
-140.0999999999999943
0
LINE
8
BLACK
6
CONTINUOUS
10
82.5
20
-161.6999999999999886
11
83.0999999999999943
21
-162.2999999999999829
0
LINE
8
BLACK
6
CONTINUOUS
10
83.0999999999999943
20
-161.6999999999999886
11
82.5
21
-162.2999999999999829
0
LINE
8
BLACK
6
CONTINUOUS
10
82.5
20
-186.6999999999999886
11
83.0999999999999943
21
-187.2999999999999829
0
LINE
8
BLACK
6
CONTINUOUS
10
83.0999999999999943
20
-186.6999999999999886
11
82.5
21
-187.2999999999999829
0
LINE
8
BLACK
6
CONTINUOUS
10
82.5
20
-211.6999999999999886
11
83.0999999999999943
21
-212.2999999999999829
0
LINE
8
BLACK
6
CONTINUOUS
10
83.0999999999999943
20
-211.6999999999999886
11
82.5
21
-212.2999999999999829
0
LINE
8
BLACK
6
CONTINUOUS
10
82.5
20
-236.6999999999999886
11
83.0999999999999943
21
-237.2999999999999829
0
LINE
8
BLACK
6
CONTINUOUS
10
83.0999999999999943
20
-236.6999999999999886
11
82.5
21
-237.2999999999999829
0
LINE
8
BLACK
6
CONTINUOUS
10
82.5999999999999943
20
-153.
11
83.2000000000000028
21
-153.5999999999999943
0
LINE
8
BLACK
6
CONTINUOUS
10
83.2000000000000028
20
-153.
11
82.5999999999999943
21
-153.5999999999999943
0
LINE
8
BLACK
6
CONTINUOUS
10
82.5999999999999943
20
-178.
11
83.2000000000000028
21
-178.5999999999999943
0
LINE
8
BLACK
6
CONTINUOUS
10
83.2000000000000028
20
-178.
11
82.5999999999999943
21
-178.5999999999999943
0
LINE
8
BLACK
6
CONTINUOUS
10
82.5999999999999943
20
-203.
11
83.2000000000000028
21
-203.5999999999999943
0
LINE
8
BLACK
6
CONTINUOUS
10
83.2000000000000028
20
-203.
11
82.5999999999999943
21
-203.5999999999999943
0
LINE
8
BLACK
6
CONTINUOUS
10
82.5999999999999943
20
-228.
11
83.2000000000000028
21
-228.5999999999999943
0
LINE
8
BLACK
6
CONTINUOUS
10
83.2000000000000028
20
-228.
11
82.5999999999999943
21
-228.5999999999999943
0
LINE
8
BLACK
6
CONTINUOUS
10
82.7999999999999972
20
-67.7999999999999972
11
83.3999999999999915
21
-68.3999999999999915
0
LINE
8
BLACK
6
CONTINUOUS
10
83.3999999999999915
20
-67.7999999999999972
11
82.7999999999999972
21
-68.3999999999999915
0
LINE
8
BLACK
6
CONTINUOUS
10
82.7999999999999972
20
-76.7999999999999972
11
83.3999999999999915
21
-77.3999999999999915
0
LINE
8
BLACK
6
CONTINUOUS
10
83.3999999999999915
20
-76.7999999999999972
11
82.7999999999999972
21
-77.3999999999999915
0
LINE
8
BLACK
6
CONTINUOUS
10
82.7999999999999972
20
-89.2999999999999972
11
83.3999999999999915
21
-89.8999999999999915
0
LINE
8
BLACK
6
CONTINUOUS
10
83.3999999999999915
20
-89.2999999999999972
11
82.7999999999999972
21
-89.8999999999999915
0
LINE
8
BLACK
6
CONTINUOUS
10
82.7999999999999972
20
-98.2999999999999972
11
83.3999999999999915
21
-98.8999999999999915
0
LINE
8
BLACK
6
CONTINUOUS
10
83.3999999999999915
20
-98.2999999999999972
11
82.7999999999999972
21
-98.8999999999999915
0
LINE
8
BLACK
6
CONTINUOUS
10
82.7999999999999972
20
-110.2999999999999972
11
83.3999999999999915
21
-110.8999999999999915
0
LINE
8
BLACK
6
CONTINUOUS
10
83.3999999999999915
20
-110.2999999999999972
11
82.7999999999999972
21
-110.8999999999999915
0
LINE
8
BLACK
6
CONTINUOUS
10
82.7999999999999972
20
-119.2999999999999972
11
83.3999999999999915
21
-119.8999999999999915
0
LINE
8
BLACK
6
CONTINUOUS
10
83.3999999999999915
20
-119.2999999999999972
11
82.7999999999999972
21
-119.8999999999999915
0
LINE
8
BLACK
6
CONTINUOUS
10
82.7999999999999972
20
-131.7999999999999829
11
83.3999999999999915
21
-132.4000000000000057
0
LINE
8
BLACK
6
CONTINUOUS
10
83.3999999999999915
20
-131.7999999999999829
11
82.7999999999999972
21
-132.4000000000000057
0
LINE
8
BLACK
6
CONTINUOUS
10
82.7999999999999972
20
-140.7999999999999829
11
83.3999999999999915
21
-141.4000000000000057
0
LINE
8
BLACK
6
CONTINUOUS
10
83.3999999999999915
20
-140.7999999999999829
11
82.7999999999999972
21
-141.4000000000000057
0
LINE
8
BLACK
6
CONTINUOUS
10
84.3999999999999915
20
-157.2999999999999829
11
85.
21
-157.9000000000000057
0
LINE
8
BLACK
6
CONTINUOUS
10
85.
20
-157.2999999999999829
11
84.3999999999999915
21
-157.9000000000000057
0
LINE
8
BLACK
6
CONTINUOUS
10
84.3999999999999915
20
-182.2999999999999829
11
85.
21
-182.9000000000000057
0
LINE
8
BLACK
6
CONTINUOUS
10
85.
20
-182.2999999999999829
11
84.3999999999999915
21
-182.9000000000000057
0
LINE
8
BLACK
6
CONTINUOUS
10
84.3999999999999915
20
-207.2999999999999829
11
85.
21
-207.8999999999999773
0
LINE
8
BLACK
6
CONTINUOUS
10
85.
20
-207.2999999999999829
11
84.3999999999999915
21
-207.8999999999999773
0
LINE
8
BLACK
6
CONTINUOUS
10
84.3999999999999915
20
-232.2999999999999829
11
85.
21
-232.8999999999999773
0
LINE
8
BLACK
6
CONTINUOUS
10
85.
20
-232.2999999999999829
11
84.3999999999999915
21
-232.8999999999999773
0
LINE
8
BLACK
6
CONTINUOUS
10
85.8999999999999915
20
-75.5999999999999943
11
86.5
21
-76.2000000000000028
0
LINE
8
BLACK
6
CONTINUOUS
10
86.5
20
-75.5999999999999943
11
85.8999999999999915
21
-76.2000000000000028
0
LINE
8
BLACK
6
CONTINUOUS
10
85.8999999999999915
20
-97.0999999999999943
11
86.5
21
-97.6999999999999886
0
LINE
8
BLACK
6
CONTINUOUS
10
86.5
20
-97.0999999999999943
11
85.8999999999999915
21
-97.6999999999999886
0
LINE
8
BLACK
6
CONTINUOUS
10
85.8999999999999915
20
-118.0999999999999943
11
86.5
21
-118.6999999999999886
0
LINE
8
BLACK
6
CONTINUOUS
10
86.5
20
-118.0999999999999943
11
85.8999999999999915
21
-118.6999999999999886
0
LINE
8
BLACK
6
CONTINUOUS
10
85.8999999999999915
20
-139.5999999999999943
11
86.5
21
-140.1999999999999886
0
LINE
8
BLACK
6
CONTINUOUS
10
86.5
20
-139.5999999999999943
11
85.8999999999999915
21
-140.1999999999999886
0
LINE
8
BLACK
6
CONTINUOUS
10
86.
20
-69.0999999999999943
11
86.5999999999999943
21
-69.7000000000000028
0
LINE
8
BLACK
6
CONTINUOUS
10
86.5999999999999943
20
-69.0999999999999943
11
86.
21
-69.7000000000000028
0
LINE
8
BLACK
6
CONTINUOUS
10
86.
20
-90.5999999999999943
11
86.5999999999999943
21
-91.2000000000000028
0
LINE
8
BLACK
6
CONTINUOUS
10
86.5999999999999943
20
-90.5999999999999943
11
86.
21
-91.2000000000000028
0
LINE
8
BLACK
6
CONTINUOUS
10
86.
20
-111.5999999999999943
11
86.5999999999999943
21
-112.1999999999999886
0
LINE
8
BLACK
6
CONTINUOUS
10
86.5999999999999943
20
-111.5999999999999943
11
86.
21
-112.1999999999999886
0
LINE
8
BLACK
6
CONTINUOUS
10
86.
20
-133.0999999999999943
11
86.5999999999999943
21
-133.6999999999999886
0
LINE
8
BLACK
6
CONTINUOUS
10
86.5999999999999943
20
-133.0999999999999943
11
86.
21
-133.6999999999999886
0
LINE
8
BLACK
6
CONTINUOUS
10
87.2999999999999972
20
-72.2999999999999972
11
87.8999999999999915
21
-72.8999999999999915
0
LINE
8
BLACK
6
CONTINUOUS
10
87.8999999999999915
20
-72.2999999999999972
11
87.2999999999999972
21
-72.8999999999999915
0
LINE
8
BLACK
6
CONTINUOUS
10
87.2999999999999972
20
-93.7999999999999972
11
87.8999999999999915
21
-94.3999999999999915
0
LINE
8
BLACK
6
CONTINUOUS
10
87.8999999999999915
20
-93.7999999999999972
11
87.2999999999999972
21
-94.3999999999999915
0
LINE
8
BLACK
6
CONTINUOUS
10
87.2999999999999972
20
-114.7999999999999972
11
87.8999999999999915
21
-115.3999999999999915
0
LINE
8
BLACK
6
CONTINUOUS
10
87.8999999999999915
20
-114.7999999999999972
11
87.2999999999999972
21
-115.3999999999999915
0
LINE
8
BLACK
6
CONTINUOUS
10
87.2999999999999972
20
-136.2999999999999829
11
87.8999999999999915
21
-136.9000000000000057
0
LINE
8
BLACK
6
CONTINUOUS
10
87.8999999999999915
20
-136.2999999999999829
11
87.2999999999999972
21
-136.9000000000000057
0
LINE
8
BLACK
6
CONTINUOUS
10
97.1999999999999886
20
-157.2999999999999829
11
97.7999999999999972
21
-157.9000000000000057
0
LINE
8
BLACK
6
CONTINUOUS
10
97.7999999999999972
20
-157.2999999999999829
11
97.1999999999999886
21
-157.9000000000000057
0
LINE
8
BLACK
6
CONTINUOUS
10
97.1999999999999886
20
-182.2999999999999829
11
97.7999999999999972
21
-182.9000000000000057
0
LINE
8
BLACK
6
CONTINUOUS
10
97.7999999999999972
20
-182.2999999999999829
11
97.1999999999999886
21
-182.9000000000000057
0
LINE
8
BLACK
6
CONTINUOUS
10
97.1999999999999886
20
-207.2999999999999829
11
97.7999999999999972
21
-207.8999999999999773
0
LINE
8
BLACK
6
CONTINUOUS
10
97.7999999999999972
20
-207.2999999999999829
11
97.1999999999999886
21
-207.8999999999999773
0
LINE
8
BLACK
6
CONTINUOUS
10
97.1999999999999886
20
-232.2999999999999829
11
97.7999999999999972
21
-232.8999999999999773
0
LINE
8
BLACK
6
CONTINUOUS
10
97.7999999999999972
20
-232.2999999999999829
11
97.1999999999999886
21
-232.8999999999999773
0
LINE
8
BLACK
6
CONTINUOUS
10
99.
20
-153.
11
99.5999999999999943
21
-153.5999999999999943
0
LINE
8
BLACK
6
CONTINUOUS
10
99.5999999999999943
20
-153.
11
99.
21
-153.5999999999999943
0
LINE
8
BLACK
6
CONTINUOUS
10
99.
20
-161.5999999999999943
11
99.5999999999999943
21
-162.1999999999999886
0
LINE
8
BLACK
6
CONTINUOUS
10
99.5999999999999943
20
-161.5999999999999943
11
99.
21
-162.1999999999999886
0
LINE
8
BLACK
6
CONTINUOUS
10
99.
20
-178.
11
99.5999999999999943
21
-178.5999999999999943
0
LINE
8
BLACK
6
CONTINUOUS
10
99.5999999999999943
20
-178.
11
99.
21
-178.5999999999999943
0
LINE
8
BLACK
6
CONTINUOUS
10
99.
20
-186.5999999999999943
11
99.5999999999999943
21
-187.1999999999999886
0
LINE
8
BLACK
6
CONTINUOUS
10
99.5999999999999943
20
-186.5999999999999943
11
99.
21
-187.1999999999999886
0
LINE
8
BLACK
6
CONTINUOUS
10
99.
20
-203.
11
99.5999999999999943
21
-203.5999999999999943
0
LINE
8
BLACK
6
CONTINUOUS
10
99.5999999999999943
20
-203.
11
99.
21
-203.5999999999999943
0
LINE
8
BLACK
6
CONTINUOUS
10
99.
20
-211.5999999999999943
11
99.5999999999999943
21
-212.1999999999999886
0
LINE
8
BLACK
6
CONTINUOUS
10
99.5999999999999943
20
-211.5999999999999943
11
99.
21
-212.1999999999999886
0
LINE
8
BLACK
6
CONTINUOUS
10
99.
20
-228.
11
99.5999999999999943
21
-228.5999999999999943
0
LINE
8
BLACK
6
CONTINUOUS
10
99.5999999999999943
20
-228.
11
99.
21
-228.5999999999999943
0
LINE
8
BLACK
6
CONTINUOUS
10
99.
20
-236.5999999999999943
11
99.5999999999999943
21
-237.1999999999999886
0
LINE
8
BLACK
6
CONTINUOUS
10
99.5999999999999943
20
-236.5999999999999943
11
99.
21
-237.1999999999999886
0
LINE
8
BLACK
6
CONTINUOUS
10
103.2999999999999972
20
-151.1999999999999886
11
103.8999999999999915
21
-151.7999999999999829
0
LINE
8
BLACK
6
CONTINUOUS
10
103.8999999999999915
20
-151.1999999999999886
11
103.2999999999999972
21
-151.7999999999999829
0
LINE
8
BLACK
6
CONTINUOUS
10
103.2999999999999972
20
-163.4000000000000057
11
103.8999999999999915
21
-164.
0
LINE
8
BLACK
6
CONTINUOUS
10
103.8999999999999915
20
-163.4000000000000057
11
103.2999999999999972
21
-164.
0
LINE
8
BLACK
6
CONTINUOUS
10
103.2999999999999972
20
-176.1999999999999886
11
103.8999999999999915
21
-176.7999999999999829
0
LINE
8
BLACK
6
CONTINUOUS
10
103.8999999999999915
20
-176.1999999999999886
11
103.2999999999999972
21
-176.7999999999999829
0
LINE
8
BLACK
6
CONTINUOUS
10
103.2999999999999972
20
-188.4000000000000057
11
103.8999999999999915
21
-189.
0
LINE
8
BLACK
6
CONTINUOUS
10
103.8999999999999915
20
-188.4000000000000057
11
103.2999999999999972
21
-189.
0
LINE
8
BLACK
6
CONTINUOUS
10
103.2999999999999972
20
-201.1999999999999886
11
103.8999999999999915
21
-201.7999999999999829
0
LINE
8
BLACK
6
CONTINUOUS
10
103.8999999999999915
20
-201.1999999999999886
11
103.2999999999999972
21
-201.7999999999999829
0
LINE
8
BLACK
6
CONTINUOUS
10
103.2999999999999972
20
-213.3999999999999773
11
103.8999999999999915
21
-214.
0
LINE
8
BLACK
6
CONTINUOUS
10
103.8999999999999915
20
-213.3999999999999773
11
103.2999999999999972
21
-214.
0
LINE
8
BLACK
6
CONTINUOUS
10
103.2999999999999972
20
-226.1999999999999886
11
103.8999999999999915
21
-226.7999999999999829
0
LINE
8
BLACK
6
CONTINUOUS
10
103.8999999999999915
20
-226.1999999999999886
11
103.2999999999999972
21
-226.7999999999999829
0
LINE
8
BLACK
6
CONTINUOUS
10
103.2999999999999972
20
-238.3999999999999773
11
103.8999999999999915
21
-239.
0
LINE
8
BLACK
6
CONTINUOUS
10
103.8999999999999915
20
-238.3999999999999773
11
103.2999999999999972
21
-239.
0
LINE
8
BLACK
6
CONTINUOUS
10
107.5
20
-161.6999999999999886
11
108.0999999999999943
21
-162.2999999999999829
0
LINE
8
BLACK
6
CONTINUOUS
10
108.0999999999999943
20
-161.6999999999999886
11
107.5
21
-162.2999999999999829
0
LINE
8
BLACK
6
CONTINUOUS
10
107.5
20
-186.6999999999999886
11
108.0999999999999943
21
-187.2999999999999829
0
LINE
8
BLACK
6
CONTINUOUS
10
108.0999999999999943
20
-186.6999999999999886
11
107.5
21
-187.2999999999999829
0
LINE
8
BLACK
6
CONTINUOUS
10
107.5
20
-211.6999999999999886
11
108.0999999999999943
21
-212.2999999999999829
0
LINE
8
BLACK
6
CONTINUOUS
10
108.0999999999999943
20
-211.6999999999999886
11
107.5
21
-212.2999999999999829
0
LINE
8
BLACK
6
CONTINUOUS
10
107.5
20
-236.6999999999999886
11
108.0999999999999943
21
-237.2999999999999829
0
LINE
8
BLACK
6
CONTINUOUS
10
108.0999999999999943
20
-236.6999999999999886
11
107.5
21
-237.2999999999999829
0
LINE
8
BLACK
6
CONTINUOUS
10
107.5999999999999943
20
-153.
11
108.1999999999999886
21
-153.5999999999999943
0
LINE
8
BLACK
6
CONTINUOUS
10
108.1999999999999886
20
-153.
11
107.5999999999999943
21
-153.5999999999999943
0
LINE
8
BLACK
6
CONTINUOUS
10
107.5999999999999943
20
-178.
11
108.1999999999999886
21
-178.5999999999999943
0
LINE
8
BLACK
6
CONTINUOUS
10
108.1999999999999886
20
-178.
11
107.5999999999999943
21
-178.5999999999999943
0
LINE
8
BLACK
6
CONTINUOUS
10
107.5999999999999943
20
-203.
11
108.1999999999999886
21
-203.5999999999999943
0
LINE
8
BLACK
6
CONTINUOUS
10
108.1999999999999886
20
-203.
11
107.5999999999999943
21
-203.5999999999999943
0
LINE
8
BLACK
6
CONTINUOUS
10
107.5999999999999943
20
-228.
11
108.1999999999999886
21
-228.5999999999999943
0
LINE
8
BLACK
6
CONTINUOUS
10
108.1999999999999886
20
-228.
11
107.5999999999999943
21
-228.5999999999999943
0
LINE
8
BLACK
6
CONTINUOUS
10
109.3999999999999915
20
-157.2999999999999829
11
110.
21
-157.9000000000000057
0
LINE
8
BLACK
6
CONTINUOUS
10
110.
20
-157.2999999999999829
11
109.3999999999999915
21
-157.9000000000000057
0
LINE
8
BLACK
6
CONTINUOUS
10
109.3999999999999915
20
-182.2999999999999829
11
110.
21
-182.9000000000000057
0
LINE
8
BLACK
6
CONTINUOUS
10
110.
20
-182.2999999999999829
11
109.3999999999999915
21
-182.9000000000000057
0
LINE
8
BLACK
6
CONTINUOUS
10
109.3999999999999915
20
-207.2999999999999829
11
110.
21
-207.8999999999999773
0
LINE
8
BLACK
6
CONTINUOUS
10
110.
20
-207.2999999999999829
11
109.3999999999999915
21
-207.8999999999999773
0
LINE
8
BLACK
6
CONTINUOUS
10
109.3999999999999915
20
-232.2999999999999829
11
110.
21
-232.8999999999999773
0
LINE
8
BLACK
6
CONTINUOUS
10
110.
20
-232.2999999999999829
11
109.3999999999999915
21
-232.8999999999999773
0
CIRCLE
8
BLACK
10
70.5
20
-60.5999999999999943
40
1.5999999999999999
0
LINE
8
BLACK
6
CONTINUOUS
10
69.0999999999999943
20
-62.1999999999999957
11
71.8999999999999915
21
-62.1999999999999957
0
ARC
8
BLACK
10
71.8999999999999915
20
-60.5999999999999943
40
1.5999999999999999
50
-90.00000000
51
90.00000000
0
LINE
8
BLACK
6
CONTINUOUS
10
71.8999999999999915
20
-59.
11
69.0999999999999943
21
-59.
0
ARC
8
BLACK
10
69.0999999999999943
20
-60.5999999999999943
40
1.5999999999999999
50
90.00000000
51
270.00000000
0
CIRCLE
8
BLACK
10
70.5
20
-254.5999999999999943
40
1.5999999999999999
0
LINE
8
BLACK
6
CONTINUOUS
10
69.0999999999999943
20
-256.1999999999999886
11
71.8999999999999915
21
-256.1999999999999886
0
ARC
8
BLACK
10
71.8999999999999915
20
-254.5999999999999943
40
1.5999999999999999
50
-90.00000000
51
90.00000000
0
LINE
8
BLACK
6
CONTINUOUS
10
71.8999999999999915
20
-253.
11
69.0999999999999943
21
-253.
0
ARC
8
BLACK
10
69.0999999999999943
20
-254.5999999999999943
40
1.5999999999999999
50
90.00000000
51
270.00000000
0
CIRCLE
8
BLACK
10
111.6999999999999886
20
-60.5999999999999943
40
1.5999999999999999
0
LINE
8
BLACK
6
CONTINUOUS
10
113.0999999999999943
20
-59.
11
110.2999999999999972
21
-59.
0
ARC
8
BLACK
10
110.2999999999999972
20
-60.5999999999999943
40
1.5999999999999999
50
90.00000000
51
270.00000000
0
LINE
8
BLACK
6
CONTINUOUS
10
110.2999999999999972
20
-62.1999999999999957
11
113.0999999999999943
21
-62.1999999999999957
0
ARC
8
BLACK
10
113.0999999999999943
20
-60.5999999999999943
40
1.5999999999999999
50
270.00000000
51
450.00000000
0
CIRCLE
8
BLACK
10
111.6999999999999886
20
-254.5999999999999943
40
1.5999999999999999
0
LINE
8
BLACK
6
CONTINUOUS
10
113.0999999999999943
20
-253.
11
110.2999999999999972
21
-253.
0
ARC
8
BLACK
10
110.2999999999999972
20
-254.5999999999999943
40
1.5999999999999999
50
90.00000000
51
270.00000000
0
LINE
8
BLACK
6
CONTINUOUS
10
110.2999999999999972
20
-256.1999999999999886
11
113.0999999999999943
21
-256.1999999999999886
0
ARC
8
BLACK
10
113.0999999999999943
20
-254.5999999999999943
40
1.5999999999999999
50
270.00000000
51
450.00000000
0
LINE
8
BLACK
6
CONTINUOUS
10
68.6577679999999901
20
-260.7648379999999975
11
68.6577679999999901
21
-258.7648379999999975
0
LINE
8
BLACK
6
CONTINUOUS
10
68.6577679999999901
20
-258.7648379999999975
11
69.1339579999999927
21
-258.7648379999999975
0
LINE
8
BLACK
6
CONTINUOUS
10
69.1339579999999927
20
-258.7648379999999975
11
69.4196730000000031
21
-258.8600759999999923
0
LINE
8
BLACK
6
CONTINUOUS
10
69.4196730000000031
20
-258.8600759999999923
11
69.6101489999999927
21
-259.0505519999999819
0
LINE
8
BLACK
6
CONTINUOUS
10
69.6101489999999927
20
-259.0505519999999819
11
69.7053870000000018
21
-259.2410279999999716
0
LINE
8
BLACK
6
CONTINUOUS
10
69.7053870000000018
20
-259.2410279999999716
11
69.8006249999999966
21
-259.6219800000000077
0
LINE
8
BLACK
6
CONTINUOUS
10
69.8006249999999966
20
-259.6219800000000077
11
69.8006249999999966
21
-259.9076949999999897
0
LINE
8
BLACK
6
CONTINUOUS
10
69.8006249999999966
20
-259.9076949999999897
11
69.7053870000000018
21
-260.288646999999969
0
LINE
8
BLACK
6
CONTINUOUS
10
69.7053870000000018
20
-260.288646999999969
11
69.6101489999999927
21
-260.4791230000000155
0
LINE
8
BLACK
6
CONTINUOUS
10
69.6101489999999927
20
-260.4791230000000155
11
69.4196730000000031
21
-260.6696000000000026
0
LINE
8
BLACK
6
CONTINUOUS
10
69.4196730000000031
20
-260.6696000000000026
11
69.1339579999999927
21
-260.7648379999999975
0
LINE
8
BLACK
6
CONTINUOUS
10
69.1339579999999927
20
-260.7648379999999975
11
68.6577679999999901
21
-260.7648379999999975
0
LINE
8
BLACK
6
CONTINUOUS
10
70.6577679999999901
20
-260.7648379999999975
11
70.6577679999999901
21
-259.4315039999999613
0
LINE
8
BLACK
6
CONTINUOUS
10
70.6577679999999901
20
-259.8124569999999949
11
70.7530059999999992
21
-259.6219800000000077
0
LINE
8
BLACK
6
CONTINUOUS
10
70.7530059999999992
20
-259.6219800000000077
11
70.848243999999994
21
-259.5267420000000129
0
LINE
8
BLACK
6
CONTINUOUS
10
70.848243999999994
20
-259.5267420000000129
11
71.0387199999999979
21
-259.4315039999999613
0
LINE
8
BLACK
6
CONTINUOUS
10
71.0387199999999979
20
-259.4315039999999613
11
71.2291969999999992
21
-259.4315039999999613
0
LINE
8
BLACK
6
CONTINUOUS
10
71.8958629999999914
20
-260.7648379999999975
11
71.8958629999999914
21
-259.4315039999999613
0
LINE
8
BLACK
6
CONTINUOUS
10
71.8958629999999914
20
-258.7648379999999975
11
71.8006249999999966
21
-258.8600759999999923
0
LINE
8
BLACK
6
CONTINUOUS
10
71.8006249999999966
20
-258.8600759999999923
11
71.8958629999999914
21
-258.9553139999999871
0
LINE
8
BLACK
6
CONTINUOUS
10
71.8958629999999914
20
-258.9553139999999871
11
71.9911010000000005
21
-258.8600759999999923
0
LINE
8
BLACK
6
CONTINUOUS
10
71.9911010000000005
20
-258.8600759999999923
11
71.8958629999999914
21
-258.7648379999999975
0
LINE
8
BLACK
6
CONTINUOUS
10
71.8958629999999914
20
-258.7648379999999975
11
71.8958629999999914
21
-258.9553139999999871
0
LINE
8
BLACK
6
CONTINUOUS
10
73.1339579999999927
20
-260.7648379999999975
11
72.943482000000003
21
-260.6696000000000026
0
LINE
8
BLACK
6
CONTINUOUS
10
72.943482000000003
20
-260.6696000000000026
11
72.848243999999994
21
-260.4791230000000155
0
LINE
8
BLACK
6
CONTINUOUS
10
72.848243999999994
20
-260.4791230000000155
11
72.848243999999994
21
-258.7648379999999975
0
LINE
8
BLACK
6
CONTINUOUS
10
74.1815769999999901
20
-260.7648379999999975
11
73.9911010000000005
21
-260.6696000000000026
0
LINE
8
BLACK
6
CONTINUOUS
10
73.9911010000000005
20
-260.6696000000000026
11
73.8958629999999914
21
-260.4791230000000155
0
LINE
8
BLACK
6
CONTINUOUS
10
73.8958629999999914
20
-260.4791230000000155
11
73.8958629999999914
21
-258.7648379999999975
0
LINE
8
BLACK
6
CONTINUOUS
10
76.4672920000000005
20
-260.7648379999999975
11
76.4672920000000005
21
-258.7648379999999975
0
LINE
8
BLACK
6
CONTINUOUS
10
76.4672920000000005
20
-258.7648379999999975
11
77.1339589999999902
21
-260.1934089999999742
0
LINE
8
BLACK
6
CONTINUOUS
10
77.1339589999999902
20
-260.1934089999999742
11
77.8006249999999966
21
-258.7648379999999975
0
LINE
8
BLACK
6
CONTINUOUS
10
77.8006249999999966
20
-258.7648379999999975
11
77.8006249999999966
21
-260.7648379999999975
0
LINE
8
BLACK
6
CONTINUOUS
10
79.6101489999999927
20
-260.7648379999999975
11
79.6101489999999927
21
-259.7172190000000001
0
LINE
8
BLACK
6
CONTINUOUS
10
79.6101489999999927
20
-259.7172190000000001
11
79.5149109999999979
21
-259.5267420000000129
0
LINE
8
BLACK
6
CONTINUOUS
10
79.5149109999999979
20
-259.5267420000000129
11
79.324434999999994
21
-259.4315039999999613
0
LINE
8
BLACK
6
CONTINUOUS
10
79.324434999999994
20
-259.4315039999999613
11
78.943482000000003
21
-259.4315039999999613
0
LINE
8
BLACK
6
CONTINUOUS
10
78.943482000000003
20
-259.4315039999999613
11
78.7530059999999992
21
-259.5267420000000129
0
LINE
8
BLACK
6
CONTINUOUS
10
79.6101489999999927
20
-260.6696000000000026
11
79.4196730000000031
21
-260.7648379999999975
0
LINE
8
BLACK
6
CONTINUOUS
10
79.4196730000000031
20
-260.7648379999999975
11
78.943482000000003
21
-260.7648379999999975
0
LINE
8
BLACK
6
CONTINUOUS
10
78.943482000000003
20
-260.7648379999999975
11
78.7530059999999992
21
-260.6696000000000026
0
LINE
8
BLACK
6
CONTINUOUS
10
78.7530059999999992
20
-260.6696000000000026
11
78.6577679999999901
21
-260.4791230000000155
0
LINE
8
BLACK
6
CONTINUOUS
10
78.6577679999999901
20
-260.4791230000000155
11
78.6577679999999901
21
-260.288646999999969
0
LINE
8
BLACK
6
CONTINUOUS
10
78.6577679999999901
20
-260.288646999999969
11
78.7530059999999992
21
-260.0981709999999794
0
LINE
8
BLACK
6
CONTINUOUS
10
78.7530059999999992
20
-260.0981709999999794
11
78.943482000000003
21
-260.0029329999999845
0
LINE
8
BLACK
6
CONTINUOUS
10
78.943482000000003
20
-260.0029329999999845
11
79.4196730000000031
21
-260.0029329999999845
0
LINE
8
BLACK
6
CONTINUOUS
10
79.4196730000000031
20
-260.0029329999999845
11
79.6101489999999927
21
-259.9076949999999897
0
LINE
8
BLACK
6
CONTINUOUS
10
80.5625299999999953
20
-259.4315039999999613
11
80.5625299999999953
21
-261.4315039999999613
0
LINE
8
BLACK
6
CONTINUOUS
10
80.5625299999999953
20
-259.5267420000000129
11
80.7530059999999992
21
-259.4315039999999613
0
LINE
8
BLACK
6
CONTINUOUS
10
80.7530059999999992
20
-259.4315039999999613
11
81.1339589999999902
21
-259.4315039999999613
0
LINE
8
BLACK
6
CONTINUOUS
10
81.1339589999999902
20
-259.4315039999999613
11
81.324434999999994
21
-259.5267420000000129
0
LINE
8
BLACK
6
CONTINUOUS
10
81.324434999999994
20
-259.5267420000000129
11
81.4196730000000031
21
-259.6219800000000077
0
LINE
8
BLACK
6
CONTINUOUS
10
81.4196730000000031
20
-259.6219800000000077
11
81.5149109999999979
21
-259.8124569999999949
0
LINE
8
BLACK
6
CONTINUOUS
10
81.5149109999999979
20
-259.8124569999999949
11
81.5149109999999979
21
-260.3838849999999638
0
LINE
8
BLACK
6
CONTINUOUS
10
81.5149109999999979
20
-260.3838849999999638
11
81.4196730000000031
21
-260.5743610000000103
0
LINE
8
BLACK
6
CONTINUOUS
10
81.4196730000000031
20
-260.5743610000000103
11
81.324434999999994
21
-260.6696000000000026
0
LINE
8
BLACK
6
CONTINUOUS
10
81.324434999999994
20
-260.6696000000000026
11
81.1339589999999902
21
-260.7648379999999975
0
LINE
8
BLACK
6
CONTINUOUS
10
81.1339589999999902
20
-260.7648379999999975
11
80.7530059999999992
21
-260.7648379999999975
0
LINE
8
BLACK
6
CONTINUOUS
10
80.7530059999999992
20
-260.7648379999999975
11
80.5625299999999953
21
-260.6696000000000026
0
LINE
8
BLACK
6
CONTINUOUS
10
82.3720539999999914
20
-260.5743610000000103
11
82.4672920000000005
21
-260.6696000000000026
0
LINE
8
BLACK
6
CONTINUOUS
10
82.4672920000000005
20
-260.6696000000000026
11
82.3720539999999914
21
-260.7648379999999975
0
LINE
8
BLACK
6
CONTINUOUS
10
82.3720539999999914
20
-260.7648379999999975
11
82.2768159999999966
21
-260.6696000000000026
0
LINE
8
BLACK
6
CONTINUOUS
10
82.2768159999999966
20
-260.6696000000000026
11
82.3720539999999914
21
-260.5743610000000103
0
LINE
8
BLACK
6
CONTINUOUS
10
82.3720539999999914
20
-260.5743610000000103
11
82.3720539999999914
21
-260.7648379999999975
0
LINE
8
BLACK
6
CONTINUOUS
10
82.3720539999999914
20
-259.5267420000000129
11
82.4672920000000005
21
-259.6219800000000077
0
LINE
8
BLACK
6
CONTINUOUS
10
82.4672920000000005
20
-259.6219800000000077
11
82.3720539999999914
21
-259.7172190000000001
0
LINE
8
BLACK
6
CONTINUOUS
10
82.3720539999999914
20
-259.7172190000000001
11
82.2768159999999966
21
-259.6219800000000077
0
LINE
8
BLACK
6
CONTINUOUS
10
82.2768159999999966
20
-259.6219800000000077
11
82.3720539999999914
21
-259.5267420000000129
0
LINE
8
BLACK
6
CONTINUOUS
10
82.3720539999999914
20
-259.5267420000000129
11
82.3720539999999914
21
-259.7172190000000001
0
LINE
8
BLACK
6
CONTINUOUS
10
65.4500000000000028
20
-263.75
11
66.0499999999999972
21
-264.3499999999999659
0
LINE
8
BLACK
6
CONTINUOUS
10
66.0499999999999972
20
-263.75
11
65.4500000000000028
21
-264.3499999999999659
0
LINE
8
BLACK
6
CONTINUOUS
10
69.0387199999999979
20
-262.9648379999999861
11
69.2291969999999992
21
-262.9648379999999861
0
LINE
8
BLACK
6
CONTINUOUS
10
69.2291969999999992
20
-262.9648379999999861
11
69.4196730000000031
21
-263.0600759999999809
0
LINE
8
BLACK
6
CONTINUOUS
10
69.4196730000000031
20
-263.0600759999999809
11
69.5149109999999979
21
-263.1553139999999757
0
LINE
8
BLACK
6
CONTINUOUS
10
69.5149109999999979
20
-263.1553139999999757
11
69.6101489999999927
21
-263.3457899999999654
0
LINE
8
BLACK
6
CONTINUOUS
10
69.6101489999999927
20
-263.3457899999999654
11
69.7053870000000018
21
-263.7267420000000016
0
LINE
8
BLACK
6
CONTINUOUS
10
69.7053870000000018
20
-263.7267420000000016
11
69.7053870000000018
21
-264.2029329999999732
0
LINE
8
BLACK
6
CONTINUOUS
10
69.7053870000000018
20
-264.2029329999999732
11
69.6101489999999927
21
-264.5838850000000093
0
LINE
8
BLACK
6
CONTINUOUS
10
69.6101489999999927
20
-264.5838850000000093
11
69.5149109999999979
21
-264.774360999999999
0
LINE
8
BLACK
6
CONTINUOUS
10
69.5149109999999979
20
-264.774360999999999
11
69.4196730000000031
21
-264.8695999999999913
0
LINE
8
BLACK
6
CONTINUOUS
10
69.4196730000000031
20
-264.8695999999999913
11
69.2291969999999992
21
-264.9648379999999861
0
LINE
8
BLACK
6
CONTINUOUS
10
69.2291969999999992
20
-264.9648379999999861
11
69.0387199999999979
21
-264.9648379999999861
0
LINE
8
BLACK
6
CONTINUOUS
10
69.0387199999999979
20
-264.9648379999999861
11
68.848243999999994
21
-264.8695999999999913
0
LINE
8
BLACK
6
CONTINUOUS
10
68.848243999999994
20
-264.8695999999999913
11
68.7530059999999992
21
-264.774360999999999
0
LINE
8
BLACK
6
CONTINUOUS
10
68.7530059999999992
20
-264.774360999999999
11
68.6577679999999901
21
-264.5838850000000093
0
LINE
8
BLACK
6
CONTINUOUS
10
68.6577679999999901
20
-264.5838850000000093
11
68.5625299999999953
21
-264.2029329999999732
0
LINE
8
BLACK
6
CONTINUOUS
10
68.5625299999999953
20
-264.2029329999999732
11
68.5625299999999953
21
-263.7267420000000016
0
LINE
8
BLACK
6
CONTINUOUS
10
68.5625299999999953
20
-263.7267420000000016
11
68.6577679999999901
21
-263.3457899999999654
0
LINE
8
BLACK
6
CONTINUOUS
10
68.6577679999999901
20
-263.3457899999999654
11
68.7530059999999992
21
-263.1553139999999757
0
LINE
8
BLACK
6
CONTINUOUS
10
68.7530059999999992
20
-263.1553139999999757
11
68.848243999999994
21
-263.0600759999999809
0
LINE
8
BLACK
6
CONTINUOUS
10
68.848243999999994
20
-263.0600759999999809
11
69.0387199999999979
21
-262.9648379999999861
0
LINE
8
BLACK
6
CONTINUOUS
10
70.5625299999999953
20
-264.774360999999999
11
70.6577679999999901
21
-264.8695999999999913
0
LINE
8
BLACK
6
CONTINUOUS
10
70.6577679999999901
20
-264.8695999999999913
11
70.5625299999999953
21
-264.9648379999999861
0
LINE
8
BLACK
6
CONTINUOUS
10
70.5625299999999953
20
-264.9648379999999861
11
70.4672920000000005
21
-264.8695999999999913
0
LINE
8
BLACK
6
CONTINUOUS
10
70.4672920000000005
20
-264.8695999999999913
11
70.5625299999999953
21
-264.774360999999999
0
LINE
8
BLACK
6
CONTINUOUS
10
70.5625299999999953
20
-264.774360999999999
11
70.5625299999999953
21
-264.9648379999999861
0
LINE
8
BLACK
6
CONTINUOUS
10
72.3720539999999914
20
-262.9648379999999861
11
71.9911010000000005
21
-262.9648379999999861
0
LINE
8
BLACK
6
CONTINUOUS
10
71.9911010000000005
20
-262.9648379999999861
11
71.8006249999999966
21
-263.0600759999999809
0
LINE
8
BLACK
6
CONTINUOUS
10
71.8006249999999966
20
-263.0600759999999809
11
71.7053870000000018
21
-263.1553139999999757
0
LINE
8
BLACK
6
CONTINUOUS
10
71.7053870000000018
20
-263.1553139999999757
11
71.5149109999999979
21
-263.4410279999999602
0
LINE
8
BLACK
6
CONTINUOUS
10
71.5149109999999979
20
-263.4410279999999602
11
71.4196730000000031
21
-263.8219799999999964
0
LINE
8
BLACK
6
CONTINUOUS
10
71.4196730000000031
20
-263.8219799999999964
11
71.4196730000000031
21
-264.5838850000000093
0
LINE
8
BLACK
6
CONTINUOUS
10
71.4196730000000031
20
-264.5838850000000093
11
71.5149109999999979
21
-264.774360999999999
0
LINE
8
BLACK
6
CONTINUOUS
10
71.5149109999999979
20
-264.774360999999999
11
71.6101489999999927
21
-264.8695999999999913
0
LINE
8
BLACK
6
CONTINUOUS
10
71.6101489999999927
20
-264.8695999999999913
11
71.8006249999999966
21
-264.9648379999999861
0
LINE
8
BLACK
6
CONTINUOUS
10
71.8006249999999966
20
-264.9648379999999861
11
72.1815780000000018
21
-264.9648379999999861
0
LINE
8
BLACK
6
CONTINUOUS
10
72.1815780000000018
20
-264.9648379999999861
11
72.3720539999999914
21
-264.8695999999999913
0
LINE
8
BLACK
6
CONTINUOUS
10
72.3720539999999914
20
-264.8695999999999913
11
72.4672920000000005
21
-264.774360999999999
0
LINE
8
BLACK
6
CONTINUOUS
10
72.4672920000000005
20
-264.774360999999999
11
72.5625299999999953
21
-264.5838850000000093
0
LINE
8
BLACK
6
CONTINUOUS
10
72.5625299999999953
20
-264.5838850000000093
11
72.5625299999999953
21
-264.1076949999999783
0
LINE
8
BLACK
6
CONTINUOUS
10
72.5625299999999953
20
-264.1076949999999783
11
72.4672920000000005
21
-263.9172189999999887
0
LINE
8
BLACK
6
CONTINUOUS
10
72.4672920000000005
20
-263.9172189999999887
11
72.3720539999999914
21
-263.8219799999999964
0
LINE
8
BLACK
6
CONTINUOUS
10
72.3720539999999914
20
-263.8219799999999964
11
72.1815780000000018
21
-263.7267420000000016
0
LINE
8
BLACK
6
CONTINUOUS
10
72.1815780000000018
20
-263.7267420000000016
11
71.8006249999999966
21
-263.7267420000000016
0
LINE
8
BLACK
6
CONTINUOUS
10
71.8006249999999966
20
-263.7267420000000016
11
71.6101489999999927
21
-263.8219799999999964
0
LINE
8
BLACK
6
CONTINUOUS
10
71.6101489999999927
20
-263.8219799999999964
11
71.5149109999999979
21
-263.9172189999999887
0
LINE
8
BLACK
6
CONTINUOUS
10
71.5149109999999979
20
-263.9172189999999887
11
71.4196730000000031
21
-264.1076949999999783
0
LINE
8
BLACK
6
CONTINUOUS
10
73.8006249999999966
20
-262.9648379999999861
11
73.9911019999999979
21
-262.9648379999999861
0
LINE
8
BLACK
6
CONTINUOUS
10
73.9911019999999979
20
-262.9648379999999861
11
74.1815780000000018
21
-263.0600759999999809
0
LINE
8
BLACK
6
CONTINUOUS
10
74.1815780000000018
20
-263.0600759999999809
11
74.2768159999999966
21
-263.1553139999999757
0
LINE
8
BLACK
6
CONTINUOUS
10
74.2768159999999966
20
-263.1553139999999757
11
74.3720539999999914
21
-263.3457899999999654
0
LINE
8
BLACK
6
CONTINUOUS
10
74.3720539999999914
20
-263.3457899999999654
11
74.4672920000000005
21
-263.7267420000000016
0
LINE
8
BLACK
6
CONTINUOUS
10
74.4672920000000005
20
-263.7267420000000016
11
74.4672920000000005
21
-264.2029329999999732
0
LINE
8
BLACK
6
CONTINUOUS
10
74.4672920000000005
20
-264.2029329999999732
11
74.3720539999999914
21
-264.5838850000000093
0
LINE
8
BLACK
6
CONTINUOUS
10
74.3720539999999914
20
-264.5838850000000093
11
74.2768159999999966
21
-264.774360999999999
0
LINE
8
BLACK
6
CONTINUOUS
10
74.2768159999999966
20
-264.774360999999999
11
74.1815780000000018
21
-264.8695999999999913
0
LINE
8
BLACK
6
CONTINUOUS
10
74.1815780000000018
20
-264.8695999999999913
11
73.9911019999999979
21
-264.9648379999999861
0
LINE
8
BLACK
6
CONTINUOUS
10
73.9911019999999979
20
-264.9648379999999861
11
73.8006249999999966
21
-264.9648379999999861
0
LINE
8
BLACK
6
CONTINUOUS
10
73.8006249999999966
20
-264.9648379999999861
11
73.6101489999999927
21
-264.8695999999999913
0
LINE
8
BLACK
6
CONTINUOUS
10
73.6101489999999927
20
-264.8695999999999913
11
73.5149109999999979
21
-264.774360999999999
0
LINE
8
BLACK
6
CONTINUOUS
10
73.5149109999999979
20
-264.774360999999999
11
73.4196730000000031
21
-264.5838850000000093
0
LINE
8
BLACK
6
CONTINUOUS
10
73.4196730000000031
20
-264.5838850000000093
11
73.324434999999994
21
-264.2029329999999732
0
LINE
8
BLACK
6
CONTINUOUS
10
73.324434999999994
20
-264.2029329999999732
11
73.324434999999994
21
-263.7267420000000016
0
LINE
8
BLACK
6
CONTINUOUS
10
73.324434999999994
20
-263.7267420000000016
11
73.4196730000000031
21
-263.3457899999999654
0
LINE
8
BLACK
6
CONTINUOUS
10
73.4196730000000031
20
-263.3457899999999654
11
73.5149109999999979
21
-263.1553139999999757
0
LINE
8
BLACK
6
CONTINUOUS
10
73.5149109999999979
20
-263.1553139999999757
11
73.6101489999999927
21
-263.0600759999999809
0
LINE
8
BLACK
6
CONTINUOUS
10
73.6101489999999927
20
-263.0600759999999809
11
73.8006249999999966
21
-262.9648379999999861
0
LINE
8
BLACK
6
CONTINUOUS
10
75.7053870000000018
20
-262.9648379999999861
11
75.8958640000000031
21
-262.9648379999999861
0
LINE
8
BLACK
6
CONTINUOUS
10
75.8958640000000031
20
-262.9648379999999861
11
76.0863399999999928
21
-263.0600759999999809
0
LINE
8
BLACK
6
CONTINUOUS
10
76.0863399999999928
20
-263.0600759999999809
11
76.1815780000000018
21
-263.1553139999999757
0
LINE
8
BLACK
6
CONTINUOUS
10
76.1815780000000018
20
-263.1553139999999757
11
76.2768159999999966
21
-263.3457899999999654
0
LINE
8
BLACK
6
CONTINUOUS
10
76.2768159999999966
20
-263.3457899999999654
11
76.3720539999999914
21
-263.7267420000000016
0
LINE
8
BLACK
6
CONTINUOUS
10
76.3720539999999914
20
-263.7267420000000016
11
76.3720539999999914
21
-264.2029329999999732
0
LINE
8
BLACK
6
CONTINUOUS
10
76.3720539999999914
20
-264.2029329999999732
11
76.2768159999999966
21
-264.5838850000000093
0
LINE
8
BLACK
6
CONTINUOUS
10
76.2768159999999966
20
-264.5838850000000093
11
76.1815780000000018
21
-264.774360999999999
0
LINE
8
BLACK
6
CONTINUOUS
10
76.1815780000000018
20
-264.774360999999999
11
76.0863399999999928
21
-264.8695999999999913
0
LINE
8
BLACK
6
CONTINUOUS
10
76.0863399999999928
20
-264.8695999999999913
11
75.8958640000000031
21
-264.9648379999999861
0
LINE
8
BLACK
6
CONTINUOUS
10
75.8958640000000031
20
-264.9648379999999861
11
75.7053870000000018
21
-264.9648379999999861
0
LINE
8
BLACK
6
CONTINUOUS
10
75.7053870000000018
20
-264.9648379999999861
11
75.5149109999999979
21
-264.8695999999999913
0
LINE
8
BLACK
6
CONTINUOUS
10
75.5149109999999979
20
-264.8695999999999913
11
75.4196730000000031
21
-264.774360999999999
0
LINE
8
BLACK
6
CONTINUOUS
10
75.4196730000000031
20
-264.774360999999999
11
75.324434999999994
21
-264.5838850000000093
0
LINE
8
BLACK
6
CONTINUOUS
10
75.324434999999994
20
-264.5838850000000093
11
75.2291969999999992
21
-264.2029329999999732
0
LINE
8
BLACK
6
CONTINUOUS
10
75.2291969999999992
20
-264.2029329999999732
11
75.2291969999999992
21
-263.7267420000000016
0
LINE
8
BLACK
6
CONTINUOUS
10
75.2291969999999992
20
-263.7267420000000016
11
75.324434999999994
21
-263.3457899999999654
0
LINE
8
BLACK
6
CONTINUOUS
10
75.324434999999994
20
-263.3457899999999654
11
75.4196730000000031
21
-263.1553139999999757
0
LINE
8
BLACK
6
CONTINUOUS
10
75.4196730000000031
20
-263.1553139999999757
11
75.5149109999999979
21
-263.0600759999999809
0
LINE
8
BLACK
6
CONTINUOUS
10
75.5149109999999979
20
-263.0600759999999809
11
75.7053870000000018
21
-262.9648379999999861
0
LINE
8
BLACK
6
CONTINUOUS
10
77.2291969999999992
20
-264.9648379999999861
11
77.2291969999999992
21
-263.6315040000000067
0
LINE
8
BLACK
6
CONTINUOUS
10
77.2291969999999992
20
-263.8219799999999964
11
77.324434999999994
21
-263.7267420000000016
0
LINE
8
BLACK
6
CONTINUOUS
10
77.324434999999994
20
-263.7267420000000016
11
77.5149109999999979
21
-263.6315040000000067
0
LINE
8
BLACK
6
CONTINUOUS
10
77.5149109999999979
20
-263.6315040000000067
11
77.8006259999999941
21
-263.6315040000000067
0
LINE
8
BLACK
6
CONTINUOUS
10
77.8006259999999941
20
-263.6315040000000067
11
77.9911019999999979
21
-263.7267420000000016
0
LINE
8
BLACK
6
CONTINUOUS
10
77.9911019999999979
20
-263.7267420000000016
11
78.0863399999999928
21
-263.9172189999999887
0
LINE
8
BLACK
6
CONTINUOUS
10
78.0863399999999928
20
-263.9172189999999887
11
78.0863399999999928
21
-264.9648379999999861
0
LINE
8
BLACK
6
CONTINUOUS
10
78.0863399999999928
20
-263.9172189999999887
11
78.1815780000000018
21
-263.7267420000000016
0
LINE
8
BLACK
6
CONTINUOUS
10
78.1815780000000018
20
-263.7267420000000016
11
78.3720539999999914
21
-263.6315040000000067
0
LINE
8
BLACK
6
CONTINUOUS
10
78.3720539999999914
20
-263.6315040000000067
11
78.6577679999999901
21
-263.6315040000000067
0
LINE
8
BLACK
6
CONTINUOUS
10
78.6577679999999901
20
-263.6315040000000067
11
78.8482449999999915
21
-263.7267420000000016
0
LINE
8
BLACK
6
CONTINUOUS
10
78.8482449999999915
20
-263.7267420000000016
11
78.9434830000000005
21
-263.9172189999999887
0
LINE
8
BLACK
6
CONTINUOUS
10
78.9434830000000005
20
-263.9172189999999887
11
78.9434830000000005
21
-264.9648379999999861
0
LINE
8
BLACK
6
CONTINUOUS
10
79.8958640000000031
20
-264.9648379999999861
11
79.8958640000000031
21
-263.6315040000000067
0
LINE
8
BLACK
6
CONTINUOUS
10
79.8958640000000031
20
-263.8219799999999964
11
79.9911019999999979
21
-263.7267420000000016
0
LINE
8
BLACK
6
CONTINUOUS
10
79.9911019999999979
20
-263.7267420000000016
11
80.1815780000000018
21
-263.6315040000000067
0
LINE
8
BLACK
6
CONTINUOUS
10
80.1815780000000018
20
-263.6315040000000067
11
80.467292999999998
21
-263.6315040000000067
0
LINE
8
BLACK
6
CONTINUOUS
10
80.467292999999998
20
-263.6315040000000067
11
80.6577690000000018
21
-263.7267420000000016
0
LINE
8
BLACK
6
CONTINUOUS
10
80.6577690000000018
20
-263.7267420000000016
11
80.7530069999999967
21
-263.9172189999999887
0
LINE
8
BLACK
6
CONTINUOUS
10
80.7530069999999967
20
-263.9172189999999887
11
80.7530069999999967
21
-264.9648379999999861
0
LINE
8
BLACK
6
CONTINUOUS
10
80.7530069999999967
20
-263.9172189999999887
11
80.8482449999999915
21
-263.7267420000000016
0
LINE
8
BLACK
6
CONTINUOUS
10
80.8482449999999915
20
-263.7267420000000016
11
81.0387209999999953
21
-263.6315040000000067
0
LINE
8
BLACK
6
CONTINUOUS
10
81.0387209999999953
20
-263.6315040000000067
11
81.324434999999994
21
-263.6315040000000067
0
LINE
8
BLACK
6
CONTINUOUS
10
81.324434999999994
20
-263.6315040000000067
11
81.5149119999999954
21
-263.7267420000000016
0
LINE
8
BLACK
6
CONTINUOUS
10
81.5149119999999954
20
-263.7267420000000016
11
81.6101499999999902
21
-263.9172189999999887
0
LINE
8
BLACK
6
CONTINUOUS
10
81.6101499999999902
20
-263.9172189999999887
11
81.6101499999999902
21
-264.9648379999999861
0
LINE
8
BLACK
6
CONTINUOUS
10
85.5149119999999954
20
-262.8695999999999913
11
83.8006269999999915
21
-265.4410279999999602
0
LINE
8
BLACK
6
CONTINUOUS
10
88.0863409999999902
20
-262.9648379999999861
11
88.2768179999999916
21
-262.9648379999999861
0
LINE
8
BLACK
6
CONTINUOUS
10
88.2768179999999916
20
-262.9648379999999861
11
88.4672939999999954
21
-263.0600759999999809
0
LINE
8
BLACK
6
CONTINUOUS
10
88.4672939999999954
20
-263.0600759999999809
11
88.5625319999999903
21
-263.1553139999999757
0
LINE
8
BLACK
6
CONTINUOUS
10
88.5625319999999903
20
-263.1553139999999757
11
88.6577699999999993
21
-263.3457899999999654
0
LINE
8
BLACK
6
CONTINUOUS
10
88.6577699999999993
20
-263.3457899999999654
11
88.7530079999999941
21
-263.7267420000000016
0
LINE
8
BLACK
6
CONTINUOUS
10
88.7530079999999941
20
-263.7267420000000016
11
88.7530079999999941
21
-264.2029329999999732
0
LINE
8
BLACK
6
CONTINUOUS
10
88.7530079999999941
20
-264.2029329999999732
11
88.6577699999999993
21
-264.5838850000000093
0
LINE
8
BLACK
6
CONTINUOUS
10
88.6577699999999993
20
-264.5838850000000093
11
88.5625319999999903
21
-264.774360999999999
0
LINE
8
BLACK
6
CONTINUOUS
10
88.5625319999999903
20
-264.774360999999999
11
88.4672939999999954
21
-264.8695999999999913
0
LINE
8
BLACK
6
CONTINUOUS
10
88.4672939999999954
20
-264.8695999999999913
11
88.2768179999999916
21
-264.9648379999999861
0
LINE
8
BLACK
6
CONTINUOUS
10
88.2768179999999916
20
-264.9648379999999861
11
88.0863409999999902
21
-264.9648379999999861
0
LINE
8
BLACK
6
CONTINUOUS
10
88.0863409999999902
20
-264.9648379999999861
11
87.8958650000000006
21
-264.8695999999999913
0
LINE
8
BLACK
6
CONTINUOUS
10
87.8958650000000006
20
-264.8695999999999913
11
87.8006269999999915
21
-264.774360999999999
0
LINE
8
BLACK
6
CONTINUOUS
10
87.8006269999999915
20
-264.774360999999999
11
87.7053889999999967
21
-264.5838850000000093
0
LINE
8
BLACK
6
CONTINUOUS
10
87.7053889999999967
20
-264.5838850000000093
11
87.6101510000000019
21
-264.2029329999999732
0
LINE
8
BLACK
6
CONTINUOUS
10
87.6101510000000019
20
-264.2029329999999732
11
87.6101510000000019
21
-263.7267420000000016
0
LINE
8
BLACK
6
CONTINUOUS
10
87.6101510000000019
20
-263.7267420000000016
11
87.7053889999999967
21
-263.3457899999999654
0
LINE
8
BLACK
6
CONTINUOUS
10
87.7053889999999967
20
-263.3457899999999654
11
87.8006269999999915
21
-263.1553139999999757
0
LINE
8
BLACK
6
CONTINUOUS
10
87.8006269999999915
20
-263.1553139999999757
11
87.8958650000000006
21
-263.0600759999999809
0
LINE
8
BLACK
6
CONTINUOUS
10
87.8958650000000006
20
-263.0600759999999809
11
88.0863409999999902
21
-262.9648379999999861
0
LINE
8
BLACK
6
CONTINUOUS
10
89.6101510000000019
20
-264.774360999999999
11
89.7053889999999967
21
-264.8695999999999913
0
LINE
8
BLACK
6
CONTINUOUS
10
89.7053889999999967
20
-264.8695999999999913
11
89.6101510000000019
21
-264.9648379999999861
0
LINE
8
BLACK
6
CONTINUOUS
10
89.6101510000000019
20
-264.9648379999999861
11
89.5149129999999928
21
-264.8695999999999913
0
LINE
8
BLACK
6
CONTINUOUS
10
89.5149129999999928
20
-264.8695999999999913
11
89.6101510000000019
21
-264.774360999999999
0
LINE
8
BLACK
6
CONTINUOUS
10
89.6101510000000019
20
-264.774360999999999
11
89.6101510000000019
21
-264.9648379999999861
0
LINE
8
BLACK
6
CONTINUOUS
10
90.943483999999998
20
-262.9648379999999861
11
91.1339609999999993
21
-262.9648379999999861
0
LINE
8
BLACK
6
CONTINUOUS
10
91.1339609999999993
20
-262.9648379999999861
11
91.324436999999989
21
-263.0600759999999809
0
LINE
8
BLACK
6
CONTINUOUS
10
91.324436999999989
20
-263.0600759999999809
11
91.419674999999998
21
-263.1553139999999757
0
LINE
8
BLACK
6
CONTINUOUS
10
91.419674999999998
20
-263.1553139999999757
11
91.5149129999999928
21
-263.3457899999999654
0
LINE
8
BLACK
6
CONTINUOUS
10
91.5149129999999928
20
-263.3457899999999654
11
91.6101510000000019
21
-263.7267420000000016
0
LINE
8
BLACK
6
CONTINUOUS
10
91.6101510000000019
20
-263.7267420000000016
11
91.6101510000000019
21
-264.2029329999999732
0
LINE
8
BLACK
6
CONTINUOUS
10
91.6101510000000019
20
-264.2029329999999732
11
91.5149129999999928
21
-264.5838850000000093
0
LINE
8
BLACK
6
CONTINUOUS
10
91.5149129999999928
20
-264.5838850000000093
11
91.419674999999998
21
-264.774360999999999
0
LINE
8
BLACK
6
CONTINUOUS
10
91.419674999999998
20
-264.774360999999999
11
91.324436999999989
21
-264.8695999999999913
0
LINE
8
BLACK
6
CONTINUOUS
10
91.324436999999989
20
-264.8695999999999913
11
91.1339609999999993
21
-264.9648379999999861
0
LINE
8
BLACK
6
CONTINUOUS
10
91.1339609999999993
20
-264.9648379999999861
11
90.943483999999998
21
-264.9648379999999861
0
LINE
8
BLACK
6
CONTINUOUS
10
90.943483999999998
20
-264.9648379999999861
11
90.7530079999999941
21
-264.8695999999999913
0
LINE
8
BLACK
6
CONTINUOUS
10
90.7530079999999941
20
-264.8695999999999913
11
90.6577699999999993
21
-264.774360999999999
0
LINE
8
BLACK
6
CONTINUOUS
10
90.6577699999999993
20
-264.774360999999999
11
90.5625319999999903
21
-264.5838850000000093
0
LINE
8
BLACK
6
CONTINUOUS
10
90.5625319999999903
20
-264.5838850000000093
11
90.4672939999999954
21
-264.2029329999999732
0
LINE
8
BLACK
6
CONTINUOUS
10
90.4672939999999954
20
-264.2029329999999732
11
90.4672939999999954
21
-263.7267420000000016
0
LINE
8
BLACK
6
CONTINUOUS
10
90.4672939999999954
20
-263.7267420000000016
11
90.5625319999999903
21
-263.3457899999999654
0
LINE
8
BLACK
6
CONTINUOUS
10
90.5625319999999903
20
-263.3457899999999654
11
90.6577699999999993
21
-263.1553139999999757
0
LINE
8
BLACK
6
CONTINUOUS
10
90.6577699999999993
20
-263.1553139999999757
11
90.7530079999999941
21
-263.0600759999999809
0
LINE
8
BLACK
6
CONTINUOUS
10
90.7530079999999941
20
-263.0600759999999809
11
90.943483999999998
21
-262.9648379999999861
0
LINE
8
BLACK
6
CONTINUOUS
10
92.3720560000000006
20
-263.1553139999999757
11
92.4672939999999954
21
-263.0600759999999809
0
LINE
8
BLACK
6
CONTINUOUS
10
92.4672939999999954
20
-263.0600759999999809
11
92.6577699999999993
21
-262.9648379999999861
0
LINE
8
BLACK
6
CONTINUOUS
10
92.6577699999999993
20
-262.9648379999999861
11
93.1339609999999993
21
-262.9648379999999861
0
LINE
8
BLACK
6
CONTINUOUS
10
93.1339609999999993
20
-262.9648379999999861
11
93.324436999999989
21
-263.0600759999999809
0
LINE
8
BLACK
6
CONTINUOUS
10
93.324436999999989
20
-263.0600759999999809
11
93.419674999999998
21
-263.1553139999999757
0
LINE
8
BLACK
6
CONTINUOUS
10
93.419674999999998
20
-263.1553139999999757
11
93.5149129999999928
21
-263.3457899999999654
0
LINE
8
BLACK
6
CONTINUOUS
10
93.5149129999999928
20
-263.3457899999999654
11
93.5149129999999928
21
-263.5362660000000119
0
LINE
8
BLACK
6
CONTINUOUS
10
93.5149129999999928
20
-263.5362660000000119
11
93.419674999999998
21
-263.8219799999999964
0
LINE
8
BLACK
6
CONTINUOUS
10
93.419674999999998
20
-263.8219799999999964
11
92.2768179999999916
21
-264.9648379999999861
0
LINE
8
BLACK
6
CONTINUOUS
10
92.2768179999999916
20
-264.9648379999999861
11
93.5149129999999928
21
-264.9648379999999861
0
LINE
8
BLACK
6
CONTINUOUS
10
94.1815799999999967
20
-262.9648379999999861
11
95.419674999999998
21
-262.9648379999999861
0
LINE
8
BLACK
6
CONTINUOUS
10
95.419674999999998
20
-262.9648379999999861
11
94.7530079999999941
21
-263.7267420000000016
0
LINE
8
BLACK
6
CONTINUOUS
10
94.7530079999999941
20
-263.7267420000000016
11
95.0387229999999903
21
-263.7267420000000016
0
LINE
8
BLACK
6
CONTINUOUS
10
95.0387229999999903
20
-263.7267420000000016
11
95.2291989999999942
21
-263.8219799999999964
0
LINE
8
BLACK
6
CONTINUOUS
10
95.2291989999999942
20
-263.8219799999999964
11
95.324436999999989
21
-263.9172189999999887
0
LINE
8
BLACK
6
CONTINUOUS
10
95.324436999999989
20
-263.9172189999999887
11
95.419674999999998
21
-264.1076949999999783
0
LINE
8
BLACK
6
CONTINUOUS
10
95.419674999999998
20
-264.1076949999999783
11
95.419674999999998
21
-264.5838850000000093
0
LINE
8
BLACK
6
CONTINUOUS
10
95.419674999999998
20
-264.5838850000000093
11
95.324436999999989
21
-264.774360999999999
0
LINE
8
BLACK
6
CONTINUOUS
10
95.324436999999989
20
-264.774360999999999
11
95.2291989999999942
21
-264.8695999999999913
0
LINE
8
BLACK
6
CONTINUOUS
10
95.2291989999999942
20
-264.8695999999999913
11
95.0387229999999903
21
-264.9648379999999861
0
LINE
8
BLACK
6
CONTINUOUS
10
95.0387229999999903
20
-264.9648379999999861
11
94.4672939999999954
21
-264.9648379999999861
0
LINE
8
BLACK
6
CONTINUOUS
10
94.4672939999999954
20
-264.9648379999999861
11
94.2768179999999916
21
-264.8695999999999913
0
LINE
8
BLACK
6
CONTINUOUS
10
94.2768179999999916
20
-264.8695999999999913
11
94.1815799999999967
21
-264.774360999999999
0
LINE
8
BLACK
6
CONTINUOUS
10
97.1339609999999993
20
-262.9648379999999861
11
96.7530079999999941
21
-262.9648379999999861
0
LINE
8
BLACK
6
CONTINUOUS
10
96.7530079999999941
20
-262.9648379999999861
11
96.5625319999999903
21
-263.0600759999999809
0
LINE
8
BLACK
6
CONTINUOUS
10
96.5625319999999903
20
-263.0600759999999809
11
96.4672939999999954
21
-263.1553139999999757
0
LINE
8
BLACK
6
CONTINUOUS
10
96.4672939999999954
20
-263.1553139999999757
11
96.2768179999999916
21
-263.4410279999999602
0
LINE
8
BLACK
6
CONTINUOUS
10
96.2768179999999916
20
-263.4410279999999602
11
96.1815799999999967
21
-263.8219799999999964
0
LINE
8
BLACK
6
CONTINUOUS
10
96.1815799999999967
20
-263.8219799999999964
11
96.1815799999999967
21
-264.5838850000000093
0
LINE
8
BLACK
6
CONTINUOUS
10
96.1815799999999967
20
-264.5838850000000093
11
96.2768179999999916
21
-264.774360999999999
0
LINE
8
BLACK
6
CONTINUOUS
10
96.2768179999999916
20
-264.774360999999999
11
96.3720560000000006
21
-264.8695999999999913
0
LINE
8
BLACK
6
CONTINUOUS
10
96.3720560000000006
20
-264.8695999999999913
11
96.5625319999999903
21
-264.9648379999999861
0
LINE
8
BLACK
6
CONTINUOUS
10
96.5625319999999903
20
-264.9648379999999861
11
96.9434849999999955
21
-264.9648379999999861
0
LINE
8
BLACK
6
CONTINUOUS
10
96.9434849999999955
20
-264.9648379999999861
11
97.1339609999999993
21
-264.8695999999999913
0
LINE
8
BLACK
6
CONTINUOUS
10
97.1339609999999993
20
-264.8695999999999913
11
97.2291989999999942
21
-264.774360999999999
0
LINE
8
BLACK
6
CONTINUOUS
10
97.2291989999999942
20
-264.774360999999999
11
97.324436999999989
21
-264.5838850000000093
0
LINE
8
BLACK
6
CONTINUOUS
10
97.324436999999989
20
-264.5838850000000093
11
97.324436999999989
21
-264.1076949999999783
0
LINE
8
BLACK
6
CONTINUOUS
10
97.324436999999989
20
-264.1076949999999783
11
97.2291989999999942
21
-263.9172189999999887
0
LINE
8
BLACK
6
CONTINUOUS
10
97.2291989999999942
20
-263.9172189999999887
11
97.1339609999999993
21
-263.8219799999999964
0
LINE
8
BLACK
6
CONTINUOUS
10
97.1339609999999993
20
-263.8219799999999964
11
96.9434849999999955
21
-263.7267420000000016
0
LINE
8
BLACK
6
CONTINUOUS
10
96.9434849999999955
20
-263.7267420000000016
11
96.5625319999999903
21
-263.7267420000000016
0
LINE
8
BLACK
6
CONTINUOUS
10
96.5625319999999903
20
-263.7267420000000016
11
96.3720560000000006
21
-263.8219799999999964
0
LINE
8
BLACK
6
CONTINUOUS
10
96.3720560000000006
20
-263.8219799999999964
11
96.2768179999999916
21
-263.9172189999999887
0
LINE
8
BLACK
6
CONTINUOUS
10
96.2768179999999916
20
-263.9172189999999887
11
96.1815799999999967
21
-264.1076949999999783
0
LINE
8
BLACK
6
CONTINUOUS
10
98.0863420000000019
20
-262.9648379999999861
11
98.0863420000000019
21
-263.3457899999999654
0
LINE
8
BLACK
6
CONTINUOUS
10
98.8482470000000006
20
-262.9648379999999861
11
98.8482470000000006
21
-263.3457899999999654
0
LINE
8
BLACK
6
CONTINUOUS
10
101.8006290000000007
20
-265.7267420000000016
11
101.7053899999999942
21
-265.6315040000000067
0
LINE
8
BLACK
6
CONTINUOUS
10
101.7053899999999942
20
-265.6315040000000067
11
101.5149139999999903
21
-265.3457899999999654
0
LINE
8
BLACK
6
CONTINUOUS
10
101.5149139999999903
20
-265.3457899999999654
11
101.4196759999999955
21
-265.1553139999999757
0
LINE
8
BLACK
6
CONTINUOUS
10
101.4196759999999955
20
-265.1553139999999757
11
101.3244380000000007
21
-264.8695999999999913
0
LINE
8
BLACK
6
CONTINUOUS
10
101.3244380000000007
20
-264.8695999999999913
11
101.2291999999999916
21
-264.3934089999999628
0
LINE
8
BLACK
6
CONTINUOUS
10
101.2291999999999916
20
-264.3934089999999628
11
101.2291999999999916
21
-264.0124569999999835
0
LINE
8
BLACK
6
CONTINUOUS
10
101.2291999999999916
20
-264.0124569999999835
11
101.3244380000000007
21
-263.5362660000000119
0
LINE
8
BLACK
6
CONTINUOUS
10
101.3244380000000007
20
-263.5362660000000119
11
101.4196759999999955
21
-263.2505519999999706
0
LINE
8
BLACK
6
CONTINUOUS
10
101.4196759999999955
20
-263.2505519999999706
11
101.5149139999999903
21
-263.0600759999999809
0
LINE
8
BLACK
6
CONTINUOUS
10
101.5149139999999903
20
-263.0600759999999809
11
101.7053899999999942
21
-262.774360999999999
0
LINE
8
BLACK
6
CONTINUOUS
10
101.7053899999999942
20
-262.774360999999999
11
101.8006290000000007
21
-262.6791230000000041
0
LINE
8
BLACK
6
CONTINUOUS
10
102.6577709999999968
20
-264.9648379999999861
11
103.0387229999999903
21
-264.9648379999999861
0
LINE
8
BLACK
6
CONTINUOUS
10
103.0387229999999903
20
-264.9648379999999861
11
103.2291999999999916
21
-264.8695999999999913
0
LINE
8
BLACK
6
CONTINUOUS
10
103.2291999999999916
20
-264.8695999999999913
11
103.3244380000000007
21
-264.774360999999999
0
LINE
8
BLACK
6
CONTINUOUS
10
103.3244380000000007
20
-264.774360999999999
11
103.5149139999999903
21
-264.4886470000000145
0
LINE
8
BLACK
6
CONTINUOUS
10
103.5149139999999903
20
-264.4886470000000145
11
103.6101519999999994
21
-264.1076949999999783
0
LINE
8
BLACK
6
CONTINUOUS
10
103.6101519999999994
20
-264.1076949999999783
11
103.6101519999999994
21
-263.3457899999999654
0
LINE
8
BLACK
6
CONTINUOUS
10
103.6101519999999994
20
-263.3457899999999654
11
103.5149139999999903
21
-263.1553139999999757
0
LINE
8
BLACK
6
CONTINUOUS
10
103.5149139999999903
20
-263.1553139999999757
11
103.4196759999999955
21
-263.0600759999999809
0
LINE
8
BLACK
6
CONTINUOUS
10
103.4196759999999955
20
-263.0600759999999809
11
103.2291999999999916
21
-262.9648379999999861
0
LINE
8
BLACK
6
CONTINUOUS
10
103.2291999999999916
20
-262.9648379999999861
11
102.8482470000000006
21
-262.9648379999999861
0
LINE
8
BLACK
6
CONTINUOUS
10
102.8482470000000006
20
-262.9648379999999861
11
102.6577709999999968
21
-263.0600759999999809
0
LINE
8
BLACK
6
CONTINUOUS
10
102.6577709999999968
20
-263.0600759999999809
11
102.5625330000000019
21
-263.1553139999999757
0
LINE
8
BLACK
6
CONTINUOUS
10
102.5625330000000019
20
-263.1553139999999757
11
102.4672949999999929
21
-263.3457899999999654
0
LINE
8
BLACK
6
CONTINUOUS
10
102.4672949999999929
20
-263.3457899999999654
11
102.4672949999999929
21
-263.8219799999999964
0
LINE
8
BLACK
6
CONTINUOUS
10
102.4672949999999929
20
-263.8219799999999964
11
102.5625330000000019
21
-264.0124569999999835
0
LINE
8
BLACK
6
CONTINUOUS
10
102.5625330000000019
20
-264.0124569999999835
11
102.6577709999999968
21
-264.1076949999999783
0
LINE
8
BLACK
6
CONTINUOUS
10
102.6577709999999968
20
-264.1076949999999783
11
102.8482470000000006
21
-264.2029329999999732
0
LINE
8
BLACK
6
CONTINUOUS
10
102.8482470000000006
20
-264.2029329999999732
11
103.2291999999999916
21
-264.2029329999999732
0
LINE
8
BLACK
6
CONTINUOUS
10
103.2291999999999916
20
-264.2029329999999732
11
103.4196759999999955
21
-264.1076949999999783
0
LINE
8
BLACK
6
CONTINUOUS
10
103.4196759999999955
20
-264.1076949999999783
11
103.5149139999999903
21
-264.0124569999999835
0
LINE
8
BLACK
6
CONTINUOUS
10
103.5149139999999903
20
-264.0124569999999835
11
103.6101519999999994
21
-263.8219799999999964
0
LINE
8
BLACK
6
CONTINUOUS
10
105.3244380000000007
20
-262.9648379999999861
11
104.9434849999999955
21
-262.9648379999999861
0
LINE
8
BLACK
6
CONTINUOUS
10
104.9434849999999955
20
-262.9648379999999861
11
104.7530089999999916
21
-263.0600759999999809
0
LINE
8
BLACK
6
CONTINUOUS
10
104.7530089999999916
20
-263.0600759999999809
11
104.6577709999999968
21
-263.1553139999999757
0
LINE
8
BLACK
6
CONTINUOUS
10
104.6577709999999968
20
-263.1553139999999757
11
104.4672949999999929
21
-263.4410279999999602
0
LINE
8
BLACK
6
CONTINUOUS
10
104.4672949999999929
20
-263.4410279999999602
11
104.3720569999999981
21
-263.8219799999999964
0
LINE
8
BLACK
6
CONTINUOUS
10
104.3720569999999981
20
-263.8219799999999964
11
104.3720569999999981
21
-264.5838850000000093
0
LINE
8
BLACK
6
CONTINUOUS
10
104.3720569999999981
20
-264.5838850000000093
11
104.4672949999999929
21
-264.774360999999999
0
LINE
8
BLACK
6
CONTINUOUS
10
104.4672949999999929
20
-264.774360999999999
11
104.5625330000000019
21
-264.8695999999999913
0
LINE
8
BLACK
6
CONTINUOUS
10
104.5625330000000019
20
-264.8695999999999913
11
104.7530089999999916
21
-264.9648379999999861
0
LINE
8
BLACK
6
CONTINUOUS
10
104.7530089999999916
20
-264.9648379999999861
11
105.1339619999999968
21
-264.9648379999999861
0
LINE
8
BLACK
6
CONTINUOUS
10
105.1339619999999968
20
-264.9648379999999861
11
105.3244380000000007
21
-264.8695999999999913
0
LINE
8
BLACK
6
CONTINUOUS
10
105.3244380000000007
20
-264.8695999999999913
11
105.4196759999999955
21
-264.774360999999999
0
LINE
8
BLACK
6
CONTINUOUS
10
105.4196759999999955
20
-264.774360999999999
11
105.5149139999999903
21
-264.5838850000000093
0
LINE
8
BLACK
6
CONTINUOUS
10
105.5149139999999903
20
-264.5838850000000093
11
105.5149139999999903
21
-264.1076949999999783
0
LINE
8
BLACK
6
CONTINUOUS
10
105.5149139999999903
20
-264.1076949999999783
11
105.4196759999999955
21
-263.9172189999999887
0
LINE
8
BLACK
6
CONTINUOUS
10
105.4196759999999955
20
-263.9172189999999887
11
105.3244380000000007
21
-263.8219799999999964
0
LINE
8
BLACK
6
CONTINUOUS
10
105.3244380000000007
20
-263.8219799999999964
11
105.1339619999999968
21
-263.7267420000000016
0
LINE
8
BLACK
6
CONTINUOUS
10
105.1339619999999968
20
-263.7267420000000016
11
104.7530089999999916
21
-263.7267420000000016
0
LINE
8
BLACK
6
CONTINUOUS
10
104.7530089999999916
20
-263.7267420000000016
11
104.5625330000000019
21
-263.8219799999999964
0
LINE
8
BLACK
6
CONTINUOUS
10
104.5625330000000019
20
-263.8219799999999964
11
104.4672949999999929
21
-263.9172189999999887
0
LINE
8
BLACK
6
CONTINUOUS
10
104.4672949999999929
20
-263.9172189999999887
11
104.3720569999999981
21
-264.1076949999999783
0
LINE
8
BLACK
6
CONTINUOUS
10
107.8958669999999955
20
-264.9648379999999861
11
107.8958669999999955
21
-262.9648379999999861
0
LINE
8
BLACK
6
CONTINUOUS
10
108.7530099999999891
20
-264.9648379999999861
11
108.7530099999999891
21
-263.9172189999999887
0
LINE
8
BLACK
6
CONTINUOUS
10
108.7530099999999891
20
-263.9172189999999887
11
108.6577719999999943
21
-263.7267420000000016
0
LINE
8
BLACK
6
CONTINUOUS
10
108.6577719999999943
20
-263.7267420000000016
11
108.4672959999999904
21
-263.6315040000000067
0
LINE
8
BLACK
6
CONTINUOUS
10
108.4672959999999904
20
-263.6315040000000067
11
108.1815809999999942
21
-263.6315040000000067
0
LINE
8
BLACK
6
CONTINUOUS
10
108.1815809999999942
20
-263.6315040000000067
11
107.9911049999999904
21
-263.7267420000000016
0
LINE
8
BLACK
6
CONTINUOUS
10
107.9911049999999904
20
-263.7267420000000016
11
107.8958669999999955
21
-263.8219799999999964
0
LINE
8
BLACK
6
CONTINUOUS
10
109.9911049999999904
20
-264.9648379999999861
11
109.8006290000000007
21
-264.8695999999999913
0
LINE
8
BLACK
6
CONTINUOUS
10
109.8006290000000007
20
-264.8695999999999913
11
109.7053909999999917
21
-264.774360999999999
0
LINE
8
BLACK
6
CONTINUOUS
10
109.7053909999999917
20
-264.774360999999999
11
109.6101529999999968
21
-264.5838850000000093
0
LINE
8
BLACK
6
CONTINUOUS
10
109.6101529999999968
20
-264.5838850000000093
11
109.6101529999999968
21
-264.0124569999999835
0
LINE
8
BLACK
6
CONTINUOUS
10
109.6101529999999968
20
-264.0124569999999835
11
109.7053909999999917
21
-263.8219799999999964
0
LINE
8
BLACK
6
CONTINUOUS
10
109.7053909999999917
20
-263.8219799999999964
11
109.8006290000000007
21
-263.7267420000000016
0
LINE
8
BLACK
6
CONTINUOUS
10
109.8006290000000007
20
-263.7267420000000016
11
109.9911049999999904
21
-263.6315040000000067
0
LINE
8
BLACK
6
CONTINUOUS
10
109.9911049999999904
20
-263.6315040000000067
11
110.2768200000000007
21
-263.6315040000000067
0
LINE
8
BLACK
6
CONTINUOUS
10
110.2768200000000007
20
-263.6315040000000067
11
110.4672959999999904
21
-263.7267420000000016
0
LINE
8
BLACK
6
CONTINUOUS
10
110.4672959999999904
20
-263.7267420000000016
11
110.5625339999999994
21
-263.8219799999999964
0
LINE
8
BLACK
6
CONTINUOUS
10
110.5625339999999994
20
-263.8219799999999964
11
110.6577719999999943
21
-264.0124569999999835
0
LINE
8
BLACK
6
CONTINUOUS
10
110.6577719999999943
20
-264.0124569999999835
11
110.6577719999999943
21
-264.5838850000000093
0
LINE
8
BLACK
6
CONTINUOUS
10
110.6577719999999943
20
-264.5838850000000093
11
110.5625339999999994
21
-264.774360999999999
0
LINE
8
BLACK
6
CONTINUOUS
10
110.5625339999999994
20
-264.774360999999999
11
110.4672959999999904
21
-264.8695999999999913
0
LINE
8
BLACK
6
CONTINUOUS
10
110.4672959999999904
20
-264.8695999999999913
11
110.2768200000000007
21
-264.9648379999999861
0
LINE
8
BLACK
6
CONTINUOUS
10
110.2768200000000007
20
-264.9648379999999861
11
109.9911049999999904
21
-264.9648379999999861
0
LINE
8
BLACK
6
CONTINUOUS
10
111.8006290000000007
20
-264.9648379999999861
11
111.6101529999999968
21
-264.8695999999999913
0
LINE
8
BLACK
6
CONTINUOUS
10
111.6101529999999968
20
-264.8695999999999913
11
111.514915000000002
21
-264.6791230000000041
0
LINE
8
BLACK
6
CONTINUOUS
10
111.514915000000002
20
-264.6791230000000041
11
111.514915000000002
21
-262.9648379999999861
0
LINE
8
BLACK
6
CONTINUOUS
10
113.3244389999999981
20
-264.8695999999999913
11
113.1339629999999943
21
-264.9648379999999861
0
LINE
8
BLACK
6
CONTINUOUS
10
113.1339629999999943
20
-264.9648379999999861
11
112.7530099999999891
21
-264.9648379999999861
0
LINE
8
BLACK
6
CONTINUOUS
10
112.7530099999999891
20
-264.9648379999999861
11
112.5625339999999994
21
-264.8695999999999913
0
LINE
8
BLACK
6
CONTINUOUS
10
112.5625339999999994
20
-264.8695999999999913
11
112.4672959999999904
21
-264.6791230000000041
0
LINE
8
BLACK
6
CONTINUOUS
10
112.4672959999999904
20
-264.6791230000000041
11
112.4672959999999904
21
-263.9172189999999887
0
LINE
8
BLACK
6
CONTINUOUS
10
112.4672959999999904
20
-263.9172189999999887
11
112.5625339999999994
21
-263.7267420000000016
0
LINE
8
BLACK
6
CONTINUOUS
10
112.5625339999999994
20
-263.7267420000000016
11
112.7530099999999891
21
-263.6315040000000067
0
LINE
8
BLACK
6
CONTINUOUS
10
112.7530099999999891
20
-263.6315040000000067
11
113.1339629999999943
21
-263.6315040000000067
0
LINE
8
BLACK
6
CONTINUOUS
10
113.1339629999999943
20
-263.6315040000000067
11
113.3244389999999981
21
-263.7267420000000016
0
LINE
8
BLACK
6
CONTINUOUS
10
113.3244389999999981
20
-263.7267420000000016
11
113.419676999999993
21
-263.9172189999999887
0
LINE
8
BLACK
6
CONTINUOUS
10
113.419676999999993
20
-263.9172189999999887
11
113.419676999999993
21
-264.1076949999999783
0
LINE
8
BLACK
6
CONTINUOUS
10
113.419676999999993
20
-264.1076949999999783
11
112.4672959999999904
21
-264.298170999999968
0
LINE
8
BLACK
6
CONTINUOUS
10
114.1815819999999917
20
-264.8695999999999913
11
114.3720579999999956
21
-264.9648379999999861
0
LINE
8
BLACK
6
CONTINUOUS
10
114.3720579999999956
20
-264.9648379999999861
11
114.7530099999999891
21
-264.9648379999999861
0
LINE
8
BLACK
6
CONTINUOUS
10
114.7530099999999891
20
-264.9648379999999861
11
114.9434869999999904
21
-264.8695999999999913
0
LINE
8
BLACK
6
CONTINUOUS
10
114.9434869999999904
20
-264.8695999999999913
11
115.0387249999999995
21
-264.6791230000000041
0
LINE
8
BLACK
6
CONTINUOUS
10
115.0387249999999995
20
-264.6791230000000041
11
115.0387249999999995
21
-264.5838850000000093
0
LINE
8
BLACK
6
CONTINUOUS
10
115.0387249999999995
20
-264.5838850000000093
11
114.9434869999999904
21
-264.3934089999999628
0
LINE
8
BLACK
6
CONTINUOUS
10
114.9434869999999904
20
-264.3934089999999628
11
114.7530099999999891
21
-264.298170999999968
0
LINE
8
BLACK
6
CONTINUOUS
10
114.7530099999999891
20
-264.298170999999968
11
114.4672959999999904
21
-264.298170999999968
0
LINE
8
BLACK
6
CONTINUOUS
10
114.4672959999999904
20
-264.298170999999968
11
114.2768200000000007
21
-264.2029329999999732
0
LINE
8
BLACK
6
CONTINUOUS
10
114.2768200000000007
20
-264.2029329999999732
11
114.1815819999999917
21
-264.0124569999999835
0
LINE
8
BLACK
6
CONTINUOUS
10
114.1815819999999917
20
-264.0124569999999835
11
114.1815819999999917
21
-263.9172189999999887
0
LINE
8
BLACK
6
CONTINUOUS
10
114.1815819999999917
20
-263.9172189999999887
11
114.2768200000000007
21
-263.7267420000000016
0
LINE
8
BLACK
6
CONTINUOUS
10
114.2768200000000007
20
-263.7267420000000016
11
114.4672959999999904
21
-263.6315040000000067
0
LINE
8
BLACK
6
CONTINUOUS
10
114.4672959999999904
20
-263.6315040000000067
11
114.7530099999999891
21
-263.6315040000000067
0
LINE
8
BLACK
6
CONTINUOUS
10
114.7530099999999891
20
-263.6315040000000067
11
114.9434869999999904
21
-263.7267420000000016
0
LINE
8
BLACK
6
CONTINUOUS
10
115.7053919999999891
20
-265.7267420000000016
11
115.8006299999999982
21
-265.6315040000000067
0
LINE
8
BLACK
6
CONTINUOUS
10
115.8006299999999982
20
-265.6315040000000067
11
115.9911059999999878
21
-265.3457899999999654
0
LINE
8
BLACK
6
CONTINUOUS
10
115.9911059999999878
20
-265.3457899999999654
11
116.0863439999999969
21
-265.1553139999999757
0
LINE
8
BLACK
6
CONTINUOUS
10
116.0863439999999969
20
-265.1553139999999757
11
116.1815819999999917
21
-264.8695999999999913
0
LINE
8
BLACK
6
CONTINUOUS
10
116.1815819999999917
20
-264.8695999999999913
11
116.2768200000000007
21
-264.3934089999999628
0
LINE
8
BLACK
6
CONTINUOUS
10
116.2768200000000007
20
-264.3934089999999628
11
116.2768200000000007
21
-264.0124569999999835
0
LINE
8
BLACK
6
CONTINUOUS
10
116.2768200000000007
20
-264.0124569999999835
11
116.1815819999999917
21
-263.5362660000000119
0
LINE
8
BLACK
6
CONTINUOUS
10
116.1815819999999917
20
-263.5362660000000119
11
116.0863439999999969
21
-263.2505519999999706
0
LINE
8
BLACK
6
CONTINUOUS
10
116.0863439999999969
20
-263.2505519999999706
11
115.9911059999999878
21
-263.0600759999999809
0
LINE
8
BLACK
6
CONTINUOUS
10
115.9911059999999878
20
-263.0600759999999809
11
115.8006299999999982
21
-262.774360999999999
0
LINE
8
BLACK
6
CONTINUOUS
10
115.8006299999999982
20
-262.774360999999999
11
115.7053919999999891
21
-262.6791230000000041
0
CIRCLE
8
BLACK
10
65.0499999999999972
20
-266.6899999999999977
40
1.
0
LINE
8
BLACK
6
CONTINUOUS
10
68.4672920000000005
20
-265.6048379999999725
11
69.7053870000000018
21
-265.6048379999999725
0
LINE
8
BLACK
6
CONTINUOUS
10
69.7053870000000018
20
-265.6048379999999725
11
69.0387199999999979
21
-266.3667419999999879
0
LINE
8
BLACK
6
CONTINUOUS
10
69.0387199999999979
20
-266.3667419999999879
11
69.324434999999994
21
-266.3667419999999879
0
LINE
8
BLACK
6
CONTINUOUS
10
69.324434999999994
20
-266.3667419999999879
11
69.5149109999999979
21
-266.4619799999999827
0
LINE
8
BLACK
6
CONTINUOUS
10
69.5149109999999979
20
-266.4619799999999827
11
69.6101489999999927
21
-266.557218999999975
0
LINE
8
BLACK
6
CONTINUOUS
10
69.6101489999999927
20
-266.557218999999975
11
69.7053870000000018
21
-266.7476949999999647
0
LINE
8
BLACK
6
CONTINUOUS
10
69.7053870000000018
20
-266.7476949999999647
11
69.7053870000000018
21
-267.2238849999999957
0
LINE
8
BLACK
6
CONTINUOUS
10
69.7053870000000018
20
-267.2238849999999957
11
69.6101489999999927
21
-267.4143609999999853
0
LINE
8
BLACK
6
CONTINUOUS
10
69.6101489999999927
20
-267.4143609999999853
11
69.5149109999999979
21
-267.5095999999999776
0
LINE
8
BLACK
6
CONTINUOUS
10
69.5149109999999979
20
-267.5095999999999776
11
69.324434999999994
21
-267.6048379999999725
0
LINE
8
BLACK
6
CONTINUOUS
10
69.324434999999994
20
-267.6048379999999725
11
68.7530059999999992
21
-267.6048379999999725
0
LINE
8
BLACK
6
CONTINUOUS
10
68.7530059999999992
20
-267.6048379999999725
11
68.5625299999999953
21
-267.5095999999999776
0
LINE
8
BLACK
6
CONTINUOUS
10
68.5625299999999953
20
-267.5095999999999776
11
68.4672920000000005
21
-267.4143609999999853
0
LINE
8
BLACK
6
CONTINUOUS
10
70.5625299999999953
20
-267.4143609999999853
11
70.6577679999999901
21
-267.5095999999999776
0
LINE
8
BLACK
6
CONTINUOUS
10
70.6577679999999901
20
-267.5095999999999776
11
70.5625299999999953
21
-267.6048379999999725
0
LINE
8
BLACK
6
CONTINUOUS
10
70.5625299999999953
20
-267.6048379999999725
11
70.4672920000000005
21
-267.5095999999999776
0
LINE
8
BLACK
6
CONTINUOUS
10
70.4672920000000005
20
-267.5095999999999776
11
70.5625299999999953
21
-267.4143609999999853
0
LINE
8
BLACK
6
CONTINUOUS
10
70.5625299999999953
20
-267.4143609999999853
11
70.5625299999999953
21
-267.6048379999999725
0
LINE
8
BLACK
6
CONTINUOUS
10
71.4196730000000031
20
-265.7953139999999621
11
71.5149109999999979
21
-265.7000759999999673
0
LINE
8
BLACK
6
CONTINUOUS
10
71.5149109999999979
20
-265.7000759999999673
11
71.7053870000000018
21
-265.6048379999999725
0
LINE
8
BLACK
6
CONTINUOUS
10
71.7053870000000018
20
-265.6048379999999725
11
72.1815780000000018
21
-265.6048379999999725
0
LINE
8
BLACK
6
CONTINUOUS
10
72.1815780000000018
20
-265.6048379999999725
11
72.3720539999999914
21
-265.7000759999999673
0
LINE
8
BLACK
6
CONTINUOUS
10
72.3720539999999914
20
-265.7000759999999673
11
72.4672920000000005
21
-265.7953139999999621
0
LINE
8
BLACK
6
CONTINUOUS
10
72.4672920000000005
20
-265.7953139999999621
11
72.5625299999999953
21
-265.9857900000000086
0
LINE
8
BLACK
6
CONTINUOUS
10
72.5625299999999953
20
-265.9857900000000086
11
72.5625299999999953
21
-266.1762659999999983
0
LINE
8
BLACK
6
CONTINUOUS
10
72.5625299999999953
20
-266.1762659999999983
11
72.4672920000000005
21
-266.4619799999999827
0
LINE
8
BLACK
6
CONTINUOUS
10
72.4672920000000005
20
-266.4619799999999827
11
71.324434999999994
21
-267.6048379999999725
0
LINE
8
BLACK
6
CONTINUOUS
10
71.324434999999994
20
-267.6048379999999725
11
72.5625299999999953
21
-267.6048379999999725
0
LINE
8
BLACK
6
CONTINUOUS
10
73.8006249999999966
20
-265.6048379999999725
11
73.9911019999999979
21
-265.6048379999999725
0
LINE
8
BLACK
6
CONTINUOUS
10
73.9911019999999979
20
-265.6048379999999725
11
74.1815780000000018
21
-265.7000759999999673
0
LINE
8
BLACK
6
CONTINUOUS
10
74.1815780000000018
20
-265.7000759999999673
11
74.2768159999999966
21
-265.7953139999999621
0
LINE
8
BLACK
6
CONTINUOUS
10
74.2768159999999966
20
-265.7953139999999621
11
74.3720539999999914
21
-265.9857900000000086
0
LINE
8
BLACK
6
CONTINUOUS
10
74.3720539999999914
20
-265.9857900000000086
11
74.4672920000000005
21
-266.3667419999999879
0
LINE
8
BLACK
6
CONTINUOUS
10
74.4672920000000005
20
-266.3667419999999879
11
74.4672920000000005
21
-266.8429329999999595
0
LINE
8
BLACK
6
CONTINUOUS
10
74.4672920000000005
20
-266.8429329999999595
11
74.3720539999999914
21
-267.2238849999999957
0
LINE
8
BLACK
6
CONTINUOUS
10
74.3720539999999914
20
-267.2238849999999957
11
74.2768159999999966
21
-267.4143609999999853
0
LINE
8
BLACK
6
CONTINUOUS
10
74.2768159999999966
20
-267.4143609999999853
11
74.1815780000000018
21
-267.5095999999999776
0
LINE
8
BLACK
6
CONTINUOUS
10
74.1815780000000018
20
-267.5095999999999776
11
73.9911019999999979
21
-267.6048379999999725
0
LINE
8
BLACK
6
CONTINUOUS
10
73.9911019999999979
20
-267.6048379999999725
11
73.8006249999999966
21
-267.6048379999999725
0
LINE
8
BLACK
6
CONTINUOUS
10
73.8006249999999966
20
-267.6048379999999725
11
73.6101489999999927
21
-267.5095999999999776
0
LINE
8
BLACK
6
CONTINUOUS
10
73.6101489999999927
20
-267.5095999999999776
11
73.5149109999999979
21
-267.4143609999999853
0
LINE
8
BLACK
6
CONTINUOUS
10
73.5149109999999979
20
-267.4143609999999853
11
73.4196730000000031
21
-267.2238849999999957
0
LINE
8
BLACK
6
CONTINUOUS
10
73.4196730000000031
20
-267.2238849999999957
11
73.324434999999994
21
-266.8429329999999595
0
LINE
8
BLACK
6
CONTINUOUS
10
73.324434999999994
20
-266.8429329999999595
11
73.324434999999994
21
-266.3667419999999879
0
LINE
8
BLACK
6
CONTINUOUS
10
73.324434999999994
20
-266.3667419999999879
11
73.4196730000000031
21
-265.9857900000000086
0
LINE
8
BLACK
6
CONTINUOUS
10
73.4196730000000031
20
-265.9857900000000086
11
73.5149109999999979
21
-265.7953139999999621
0
LINE
8
BLACK
6
CONTINUOUS
10
73.5149109999999979
20
-265.7953139999999621
11
73.6101489999999927
21
-265.7000759999999673
0
LINE
8
BLACK
6
CONTINUOUS
10
73.6101489999999927
20
-265.7000759999999673
11
73.8006249999999966
21
-265.6048379999999725
0
LINE
8
BLACK
6
CONTINUOUS
10
75.7053870000000018
20
-265.6048379999999725
11
75.8958640000000031
21
-265.6048379999999725
0
LINE
8
BLACK
6
CONTINUOUS
10
75.8958640000000031
20
-265.6048379999999725
11
76.0863399999999928
21
-265.7000759999999673
0
LINE
8
BLACK
6
CONTINUOUS
10
76.0863399999999928
20
-265.7000759999999673
11
76.1815780000000018
21
-265.7953139999999621
0
LINE
8
BLACK
6
CONTINUOUS
10
76.1815780000000018
20
-265.7953139999999621
11
76.2768159999999966
21
-265.9857900000000086
0
LINE
8
BLACK
6
CONTINUOUS
10
76.2768159999999966
20
-265.9857900000000086
11
76.3720539999999914
21
-266.3667419999999879
0
LINE
8
BLACK
6
CONTINUOUS
10
76.3720539999999914
20
-266.3667419999999879
11
76.3720539999999914
21
-266.8429329999999595
0
LINE
8
BLACK
6
CONTINUOUS
10
76.3720539999999914
20
-266.8429329999999595
11
76.2768159999999966
21
-267.2238849999999957
0
LINE
8
BLACK
6
CONTINUOUS
10
76.2768159999999966
20
-267.2238849999999957
11
76.1815780000000018
21
-267.4143609999999853
0
LINE
8
BLACK
6
CONTINUOUS
10
76.1815780000000018
20
-267.4143609999999853
11
76.0863399999999928
21
-267.5095999999999776
0
LINE
8
BLACK
6
CONTINUOUS
10
76.0863399999999928
20
-267.5095999999999776
11
75.8958640000000031
21
-267.6048379999999725
0
LINE
8
BLACK
6
CONTINUOUS
10
75.8958640000000031
20
-267.6048379999999725
11
75.7053870000000018
21
-267.6048379999999725
0
LINE
8
BLACK
6
CONTINUOUS
10
75.7053870000000018
20
-267.6048379999999725
11
75.5149109999999979
21
-267.5095999999999776
0
LINE
8
BLACK
6
CONTINUOUS
10
75.5149109999999979
20
-267.5095999999999776
11
75.4196730000000031
21
-267.4143609999999853
0
LINE
8
BLACK
6
CONTINUOUS
10
75.4196730000000031
20
-267.4143609999999853
11
75.324434999999994
21
-267.2238849999999957
0
LINE
8
BLACK
6
CONTINUOUS
10
75.324434999999994
20
-267.2238849999999957
11
75.2291969999999992
21
-266.8429329999999595
0
LINE
8
BLACK
6
CONTINUOUS
10
75.2291969999999992
20
-266.8429329999999595
11
75.2291969999999992
21
-266.3667419999999879
0
LINE
8
BLACK
6
CONTINUOUS
10
75.2291969999999992
20
-266.3667419999999879
11
75.324434999999994
21
-265.9857900000000086
0
LINE
8
BLACK
6
CONTINUOUS
10
75.324434999999994
20
-265.9857900000000086
11
75.4196730000000031
21
-265.7953139999999621
0
LINE
8
BLACK
6
CONTINUOUS
10
75.4196730000000031
20
-265.7953139999999621
11
75.5149109999999979
21
-265.7000759999999673
0
LINE
8
BLACK
6
CONTINUOUS
10
75.5149109999999979
20
-265.7000759999999673
11
75.7053870000000018
21
-265.6048379999999725
0
LINE
8
BLACK
6
CONTINUOUS
10
77.2291969999999992
20
-267.6048379999999725
11
77.2291969999999992
21
-266.2715039999999931
0
LINE
8
BLACK
6
CONTINUOUS
10
77.2291969999999992
20
-266.4619799999999827
11
77.324434999999994
21
-266.3667419999999879
0
LINE
8
BLACK
6
CONTINUOUS
10
77.324434999999994
20
-266.3667419999999879
11
77.5149109999999979
21
-266.2715039999999931
0
LINE
8
BLACK
6
CONTINUOUS
10
77.5149109999999979
20
-266.2715039999999931
11
77.8006259999999941
21
-266.2715039999999931
0
LINE
8
BLACK
6
CONTINUOUS
10
77.8006259999999941
20
-266.2715039999999931
11
77.9911019999999979
21
-266.3667419999999879
0
LINE
8
BLACK
6
CONTINUOUS
10
77.9911019999999979
20
-266.3667419999999879
11
78.0863399999999928
21
-266.557218999999975
0
LINE
8
BLACK
6
CONTINUOUS
10
78.0863399999999928
20
-266.557218999999975
11
78.0863399999999928
21
-267.6048379999999725
0
LINE
8
BLACK
6
CONTINUOUS
10
78.0863399999999928
20
-266.557218999999975
11
78.1815780000000018
21
-266.3667419999999879
0
LINE
8
BLACK
6
CONTINUOUS
10
78.1815780000000018
20
-266.3667419999999879
11
78.3720539999999914
21
-266.2715039999999931
0
LINE
8
BLACK
6
CONTINUOUS
10
78.3720539999999914
20
-266.2715039999999931
11
78.6577679999999901
21
-266.2715039999999931
0
LINE
8
BLACK
6
CONTINUOUS
10
78.6577679999999901
20
-266.2715039999999931
11
78.8482449999999915
21
-266.3667419999999879
0
LINE
8
BLACK
6
CONTINUOUS
10
78.8482449999999915
20
-266.3667419999999879
11
78.9434830000000005
21
-266.557218999999975
0
LINE
8
BLACK
6
CONTINUOUS
10
78.9434830000000005
20
-266.557218999999975
11
78.9434830000000005
21
-267.6048379999999725
0
LINE
8
BLACK
6
CONTINUOUS
10
79.8958640000000031
20
-267.6048379999999725
11
79.8958640000000031
21
-266.2715039999999931
0
LINE
8
BLACK
6
CONTINUOUS
10
79.8958640000000031
20
-266.4619799999999827
11
79.9911019999999979
21
-266.3667419999999879
0
LINE
8
BLACK
6
CONTINUOUS
10
79.9911019999999979
20
-266.3667419999999879
11
80.1815780000000018
21
-266.2715039999999931
0
LINE
8
BLACK
6
CONTINUOUS
10
80.1815780000000018
20
-266.2715039999999931
11
80.467292999999998
21
-266.2715039999999931
0
LINE
8
BLACK
6
CONTINUOUS
10
80.467292999999998
20
-266.2715039999999931
11
80.6577690000000018
21
-266.3667419999999879
0
LINE
8
BLACK
6
CONTINUOUS
10
80.6577690000000018
20
-266.3667419999999879
11
80.7530069999999967
21
-266.557218999999975
0
LINE
8
BLACK
6
CONTINUOUS
10
80.7530069999999967
20
-266.557218999999975
11
80.7530069999999967
21
-267.6048379999999725
0
LINE
8
BLACK
6
CONTINUOUS
10
80.7530069999999967
20
-266.557218999999975
11
80.8482449999999915
21
-266.3667419999999879
0
LINE
8
BLACK
6
CONTINUOUS
10
80.8482449999999915
20
-266.3667419999999879
11
81.0387209999999953
21
-266.2715039999999931
0
LINE
8
BLACK
6
CONTINUOUS
10
81.0387209999999953
20
-266.2715039999999931
11
81.324434999999994
21
-266.2715039999999931
0
LINE
8
BLACK
6
CONTINUOUS
10
81.324434999999994
20
-266.2715039999999931
11
81.5149119999999954
21
-266.3667419999999879
0
LINE
8
BLACK
6
CONTINUOUS
10
81.5149119999999954
20
-266.3667419999999879
11
81.6101499999999902
21
-266.557218999999975
0
LINE
8
BLACK
6
CONTINUOUS
10
81.6101499999999902
20
-266.557218999999975
11
81.6101499999999902
21
-267.6048379999999725
0
LINE
8
BLACK
6
CONTINUOUS
10
85.5149119999999954
20
-265.5095999999999776
11
83.8006269999999915
21
-268.0810280000000034
0
LINE
8
BLACK
6
CONTINUOUS
10
88.0863409999999902
20
-265.6048379999999725
11
88.2768179999999916
21
-265.6048379999999725
0
LINE
8
BLACK
6
CONTINUOUS
10
88.2768179999999916
20
-265.6048379999999725
11
88.4672939999999954
21
-265.7000759999999673
0
LINE
8
BLACK
6
CONTINUOUS
10
88.4672939999999954
20
-265.7000759999999673
11
88.5625319999999903
21
-265.7953139999999621
0
LINE
8
BLACK
6
CONTINUOUS
10
88.5625319999999903
20
-265.7953139999999621
11
88.6577699999999993
21
-265.9857900000000086
0
LINE
8
BLACK
6
CONTINUOUS
10
88.6577699999999993
20
-265.9857900000000086
11
88.7530079999999941
21
-266.3667419999999879
0
LINE
8
BLACK
6
CONTINUOUS
10
88.7530079999999941
20
-266.3667419999999879
11
88.7530079999999941
21
-266.8429329999999595
0
LINE
8
BLACK
6
CONTINUOUS
10
88.7530079999999941
20
-266.8429329999999595
11
88.6577699999999993
21
-267.2238849999999957
0
LINE
8
BLACK
6
CONTINUOUS
10
88.6577699999999993
20
-267.2238849999999957
11
88.5625319999999903
21
-267.4143609999999853
0
LINE
8
BLACK
6
CONTINUOUS
10
88.5625319999999903
20
-267.4143609999999853
11
88.4672939999999954
21
-267.5095999999999776
0
LINE
8
BLACK
6
CONTINUOUS
10
88.4672939999999954
20
-267.5095999999999776
11
88.2768179999999916
21
-267.6048379999999725
0
LINE
8
BLACK
6
CONTINUOUS
10
88.2768179999999916
20
-267.6048379999999725
11
88.0863409999999902
21
-267.6048379999999725
0
LINE
8
BLACK
6
CONTINUOUS
10
88.0863409999999902
20
-267.6048379999999725
11
87.8958650000000006
21
-267.5095999999999776
0
LINE
8
BLACK
6
CONTINUOUS
10
87.8958650000000006
20
-267.5095999999999776
11
87.8006269999999915
21
-267.4143609999999853
0
LINE
8
BLACK
6
CONTINUOUS
10
87.8006269999999915
20
-267.4143609999999853
11
87.7053889999999967
21
-267.2238849999999957
0
LINE
8
BLACK
6
CONTINUOUS
10
87.7053889999999967
20
-267.2238849999999957
11
87.6101510000000019
21
-266.8429329999999595
0
LINE
8
BLACK
6
CONTINUOUS
10
87.6101510000000019
20
-266.8429329999999595
11
87.6101510000000019
21
-266.3667419999999879
0
LINE
8
BLACK
6
CONTINUOUS
10
87.6101510000000019
20
-266.3667419999999879
11
87.7053889999999967
21
-265.9857900000000086
0
LINE
8
BLACK
6
CONTINUOUS
10
87.7053889999999967
20
-265.9857900000000086
11
87.8006269999999915
21
-265.7953139999999621
0
LINE
8
BLACK
6
CONTINUOUS
10
87.8006269999999915
20
-265.7953139999999621
11
87.8958650000000006
21
-265.7000759999999673
0
LINE
8
BLACK
6
CONTINUOUS
10
87.8958650000000006
20
-265.7000759999999673
11
88.0863409999999902
21
-265.6048379999999725
0
LINE
8
BLACK
6
CONTINUOUS
10
89.6101510000000019
20
-267.4143609999999853
11
89.7053889999999967
21
-267.5095999999999776
0
LINE
8
BLACK
6
CONTINUOUS
10
89.7053889999999967
20
-267.5095999999999776
11
89.6101510000000019
21
-267.6048379999999725
0
LINE
8
BLACK
6
CONTINUOUS
10
89.6101510000000019
20
-267.6048379999999725
11
89.5149129999999928
21
-267.5095999999999776
0
LINE
8
BLACK
6
CONTINUOUS
10
89.5149129999999928
20
-267.5095999999999776
11
89.6101510000000019
21
-267.4143609999999853
0
LINE
8
BLACK
6
CONTINUOUS
10
89.6101510000000019
20
-267.4143609999999853
11
89.6101510000000019
21
-267.6048379999999725
0
LINE
8
BLACK
6
CONTINUOUS
10
91.6101510000000019
20
-267.6048379999999725
11
90.4672939999999954
21
-267.6048379999999725
0
LINE
8
BLACK
6
CONTINUOUS
10
91.0387219999999928
20
-267.6048379999999725
11
91.0387219999999928
21
-265.6048379999999725
0
LINE
8
BLACK
6
CONTINUOUS
10
91.0387219999999928
20
-265.6048379999999725
11
90.848245999999989
21
-265.8905520000000138
0
LINE
8
BLACK
6
CONTINUOUS
10
90.848245999999989
20
-265.8905520000000138
11
90.6577699999999993
21
-266.0810280000000034
0
LINE
8
BLACK
6
CONTINUOUS
10
90.6577699999999993
20
-266.0810280000000034
11
90.4672939999999954
21
-266.1762659999999983
0
LINE
8
BLACK
6
CONTINUOUS
10
92.3720560000000006
20
-265.7953139999999621
11
92.4672939999999954
21
-265.7000759999999673
0
LINE
8
BLACK
6
CONTINUOUS
10
92.4672939999999954
20
-265.7000759999999673
11
92.6577699999999993
21
-265.6048379999999725
0
LINE
8
BLACK
6
CONTINUOUS
10
92.6577699999999993
20
-265.6048379999999725
11
93.1339609999999993
21
-265.6048379999999725
0
LINE
8
BLACK
6
CONTINUOUS
10
93.1339609999999993
20
-265.6048379999999725
11
93.324436999999989
21
-265.7000759999999673
0
LINE
8
BLACK
6
CONTINUOUS
10
93.324436999999989
20
-265.7000759999999673
11
93.419674999999998
21
-265.7953139999999621
0
LINE
8
BLACK
6
CONTINUOUS
10
93.419674999999998
20
-265.7953139999999621
11
93.5149129999999928
21
-265.9857900000000086
0
LINE
8
BLACK
6
CONTINUOUS
10
93.5149129999999928
20
-265.9857900000000086
11
93.5149129999999928
21
-266.1762659999999983
0
LINE
8
BLACK
6
CONTINUOUS
10
93.5149129999999928
20
-266.1762659999999983
11
93.419674999999998
21
-266.4619799999999827
0
LINE
8
BLACK
6
CONTINUOUS
10
93.419674999999998
20
-266.4619799999999827
11
92.2768179999999916
21
-267.6048379999999725
0
LINE
8
BLACK
6
CONTINUOUS
10
92.2768179999999916
20
-267.6048379999999725
11
93.5149129999999928
21
-267.6048379999999725
0
LINE
8
BLACK
6
CONTINUOUS
10
95.2291989999999942
20
-265.6048379999999725
11
94.848245999999989
21
-265.6048379999999725
0
LINE
8
BLACK
6
CONTINUOUS
10
94.848245999999989
20
-265.6048379999999725
11
94.6577699999999993
21
-265.7000759999999673
0
LINE
8
BLACK
6
CONTINUOUS
10
94.6577699999999993
20
-265.7000759999999673
11
94.5625319999999903
21
-265.7953139999999621
0
LINE
8
BLACK
6
CONTINUOUS
10
94.5625319999999903
20
-265.7953139999999621
11
94.3720560000000006
21
-266.0810280000000034
0
LINE
8
BLACK
6
CONTINUOUS
10
94.3720560000000006
20
-266.0810280000000034
11
94.2768179999999916
21
-266.4619799999999827
0
LINE
8
BLACK
6
CONTINUOUS
10
94.2768179999999916
20
-266.4619799999999827
11
94.2768179999999916
21
-267.2238849999999957
0
LINE
8
BLACK
6
CONTINUOUS
10
94.2768179999999916
20
-267.2238849999999957
11
94.3720560000000006
21
-267.4143609999999853
0
LINE
8
BLACK
6
CONTINUOUS
10
94.3720560000000006
20
-267.4143609999999853
11
94.4672939999999954
21
-267.5095999999999776
0
LINE
8
BLACK
6
CONTINUOUS
10
94.4672939999999954
20
-267.5095999999999776
11
94.6577699999999993
21
-267.6048379999999725
0
LINE
8
BLACK
6
CONTINUOUS
10
94.6577699999999993
20
-267.6048379999999725
11
95.0387229999999903
21
-267.6048379999999725
0
LINE
8
BLACK
6
CONTINUOUS
10
95.0387229999999903
20
-267.6048379999999725
11
95.2291989999999942
21
-267.5095999999999776
0
LINE
8
BLACK
6
CONTINUOUS
10
95.2291989999999942
20
-267.5095999999999776
11
95.324436999999989
21
-267.4143609999999853
0
LINE
8
BLACK
6
CONTINUOUS
10
95.324436999999989
20
-267.4143609999999853
11
95.419674999999998
21
-267.2238849999999957
0
LINE
8
BLACK
6
CONTINUOUS
10
95.419674999999998
20
-267.2238849999999957
11
95.419674999999998
21
-266.7476949999999647
0
LINE
8
BLACK
6
CONTINUOUS
10
95.419674999999998
20
-266.7476949999999647
11
95.324436999999989
21
-266.557218999999975
0
LINE
8
BLACK
6
CONTINUOUS
10
95.324436999999989
20
-266.557218999999975
11
95.2291989999999942
21
-266.4619799999999827
0
LINE
8
BLACK
6
CONTINUOUS
10
95.2291989999999942
20
-266.4619799999999827
11
95.0387229999999903
21
-266.3667419999999879
0
LINE
8
BLACK
6
CONTINUOUS
10
95.0387229999999903
20
-266.3667419999999879
11
94.6577699999999993
21
-266.3667419999999879
0
LINE
8
BLACK
6
CONTINUOUS
10
94.6577699999999993
20
-266.3667419999999879
11
94.4672939999999954
21
-266.4619799999999827
0
LINE
8
BLACK
6
CONTINUOUS
10
94.4672939999999954
20
-266.4619799999999827
11
94.3720560000000006
21
-266.557218999999975
0
LINE
8
BLACK
6
CONTINUOUS
10
94.3720560000000006
20
-266.557218999999975
11
94.2768179999999916
21
-266.7476949999999647
0
LINE
8
BLACK
6
CONTINUOUS
10
96.6577699999999993
20
-265.6048379999999725
11
96.8482470000000006
21
-265.6048379999999725
0
LINE
8
BLACK
6
CONTINUOUS
10
96.8482470000000006
20
-265.6048379999999725
11
97.0387229999999903
21
-265.7000759999999673
0
LINE
8
BLACK
6
CONTINUOUS
10
97.0387229999999903
20
-265.7000759999999673
11
97.1339609999999993
21
-265.7953139999999621
0
LINE
8
BLACK
6
CONTINUOUS
10
97.1339609999999993
20
-265.7953139999999621
11
97.2291989999999942
21
-265.9857900000000086
0
LINE
8
BLACK
6
CONTINUOUS
10
97.2291989999999942
20
-265.9857900000000086
11
97.324436999999989
21
-266.3667419999999879
0
LINE
8
BLACK
6
CONTINUOUS
10
97.324436999999989
20
-266.3667419999999879
11
97.324436999999989
21
-266.8429329999999595
0
LINE
8
BLACK
6
CONTINUOUS
10
97.324436999999989
20
-266.8429329999999595
11
97.2291989999999942
21
-267.2238849999999957
0
LINE
8
BLACK
6
CONTINUOUS
10
97.2291989999999942
20
-267.2238849999999957
11
97.1339609999999993
21
-267.4143609999999853
0
LINE
8
BLACK
6
CONTINUOUS
10
97.1339609999999993
20
-267.4143609999999853
11
97.0387229999999903
21
-267.5095999999999776
0
LINE
8
BLACK
6
CONTINUOUS
10
97.0387229999999903
20
-267.5095999999999776
11
96.8482470000000006
21
-267.6048379999999725
0
LINE
8
BLACK
6
CONTINUOUS
10
96.8482470000000006
20
-267.6048379999999725
11
96.6577699999999993
21
-267.6048379999999725
0
LINE
8
BLACK
6
CONTINUOUS
10
96.6577699999999993
20
-267.6048379999999725
11
96.4672939999999954
21
-267.5095999999999776
0
LINE
8
BLACK
6
CONTINUOUS
10
96.4672939999999954
20
-267.5095999999999776
11
96.3720560000000006
21
-267.4143609999999853
0
LINE
8
BLACK
6
CONTINUOUS
10
96.3720560000000006
20
-267.4143609999999853
11
96.2768179999999916
21
-267.2238849999999957
0
LINE
8
BLACK
6
CONTINUOUS
10
96.2768179999999916
20
-267.2238849999999957
11
96.1815799999999967
21
-266.8429329999999595
0
LINE
8
BLACK
6
CONTINUOUS
10
96.1815799999999967
20
-266.8429329999999595
11
96.1815799999999967
21
-266.3667419999999879
0
LINE
8
BLACK
6
CONTINUOUS
10
96.1815799999999967
20
-266.3667419999999879
11
96.2768179999999916
21
-265.9857900000000086
0
LINE
8
BLACK
6
CONTINUOUS
10
96.2768179999999916
20
-265.9857900000000086
11
96.3720560000000006
21
-265.7953139999999621
0
LINE
8
BLACK
6
CONTINUOUS
10
96.3720560000000006
20
-265.7953139999999621
11
96.4672939999999954
21
-265.7000759999999673
0
LINE
8
BLACK
6
CONTINUOUS
10
96.4672939999999954
20
-265.7000759999999673
11
96.6577699999999993
21
-265.6048379999999725
0
LINE
8
BLACK
6
CONTINUOUS
10
98.0863420000000019
20
-265.6048379999999725
11
98.0863420000000019
21
-265.9857900000000086
0
LINE
8
BLACK
6
CONTINUOUS
10
98.8482470000000006
20
-265.6048379999999725
11
98.8482470000000006
21
-265.9857900000000086
0
LINE
8
BLACK
6
CONTINUOUS
10
101.8006290000000007
20
-268.3667419999999879
11
101.7053899999999942
21
-268.2715039999999931
0
LINE
8
BLACK
6
CONTINUOUS
10
101.7053899999999942
20
-268.2715039999999931
11
101.5149139999999903
21
-267.9857900000000086
0
LINE
8
BLACK
6
CONTINUOUS
10
101.5149139999999903
20
-267.9857900000000086
11
101.4196759999999955
21
-267.7953139999999621
0
LINE
8
BLACK
6
CONTINUOUS
10
101.4196759999999955
20
-267.7953139999999621
11
101.3244380000000007
21
-267.5095999999999776
0
LINE
8
BLACK
6
CONTINUOUS
10
101.3244380000000007
20
-267.5095999999999776
11
101.2291999999999916
21
-267.033409000000006
0
LINE
8
BLACK
6
CONTINUOUS
10
101.2291999999999916
20
-267.033409000000006
11
101.2291999999999916
21
-266.6524569999999699
0
LINE
8
BLACK
6
CONTINUOUS
10
101.2291999999999916
20
-266.6524569999999699
11
101.3244380000000007
21
-266.1762659999999983
0
LINE
8
BLACK
6
CONTINUOUS
10
101.3244380000000007
20
-266.1762659999999983
11
101.4196759999999955
21
-265.8905520000000138
0
LINE
8
BLACK
6
CONTINUOUS
10
101.4196759999999955
20
-265.8905520000000138
11
101.5149139999999903
21
-265.7000759999999673
0
LINE
8
BLACK
6
CONTINUOUS
10
101.5149139999999903
20
-265.7000759999999673
11
101.7053899999999942
21
-265.4143609999999853
0
LINE
8
BLACK
6
CONTINUOUS
10
101.7053899999999942
20
-265.4143609999999853
11
101.8006290000000007
21
-265.3191229999999905
0
LINE
8
BLACK
6
CONTINUOUS
10
102.9434849999999955
20
-265.6048379999999725
11
103.1339619999999968
21
-265.6048379999999725
0
LINE
8
BLACK
6
CONTINUOUS
10
103.1339619999999968
20
-265.6048379999999725
11
103.3244380000000007
21
-265.7000759999999673
0
LINE
8
BLACK
6
CONTINUOUS
10
103.3244380000000007
20
-265.7000759999999673
11
103.4196759999999955
21
-265.7953139999999621
0
LINE
8
BLACK
6
CONTINUOUS
10
103.4196759999999955
20
-265.7953139999999621
11
103.5149139999999903
21
-265.9857900000000086
0
LINE
8
BLACK
6
CONTINUOUS
10
103.5149139999999903
20
-265.9857900000000086
11
103.6101519999999994
21
-266.3667419999999879
0
LINE
8
BLACK
6
CONTINUOUS
10
103.6101519999999994
20
-266.3667419999999879
11
103.6101519999999994
21
-266.8429329999999595
0
LINE
8
BLACK
6
CONTINUOUS
10
103.6101519999999994
20
-266.8429329999999595
11
103.5149139999999903
21
-267.2238849999999957
0
LINE
8
BLACK
6
CONTINUOUS
10
103.5149139999999903
20
-267.2238849999999957
11
103.4196759999999955
21
-267.4143609999999853
0
LINE
8
BLACK
6
CONTINUOUS
10
103.4196759999999955
20
-267.4143609999999853
11
103.3244380000000007
21
-267.5095999999999776
0
LINE
8
BLACK
6
CONTINUOUS
10
103.3244380000000007
20
-267.5095999999999776
11
103.1339619999999968
21
-267.6048379999999725
0
LINE
8
BLACK
6
CONTINUOUS
10
103.1339619999999968
20
-267.6048379999999725
11
102.9434849999999955
21
-267.6048379999999725
0
LINE
8
BLACK
6
CONTINUOUS
10
102.9434849999999955
20
-267.6048379999999725
11
102.7530089999999916
21
-267.5095999999999776
0
LINE
8
BLACK
6
CONTINUOUS
10
102.7530089999999916
20
-267.5095999999999776
11
102.6577709999999968
21
-267.4143609999999853
0
LINE
8
BLACK
6
CONTINUOUS
10
102.6577709999999968
20
-267.4143609999999853
11
102.5625330000000019
21
-267.2238849999999957
0
LINE
8
BLACK
6
CONTINUOUS
10
102.5625330000000019
20
-267.2238849999999957
11
102.4672949999999929
21
-266.8429329999999595
0
LINE
8
BLACK
6
CONTINUOUS
10
102.4672949999999929
20
-266.8429329999999595
11
102.4672949999999929
21
-266.3667419999999879
0
LINE
8
BLACK
6
CONTINUOUS
10
102.4672949999999929
20
-266.3667419999999879
11
102.5625330000000019
21
-265.9857900000000086
0
LINE
8
BLACK
6
CONTINUOUS
10
102.5625330000000019
20
-265.9857900000000086
11
102.6577709999999968
21
-265.7953139999999621
0
LINE
8
BLACK
6
CONTINUOUS
10
102.6577709999999968
20
-265.7953139999999621
11
102.7530089999999916
21
-265.7000759999999673
0
LINE
8
BLACK
6
CONTINUOUS
10
102.7530089999999916
20
-265.7000759999999673
11
102.9434849999999955
21
-265.6048379999999725
0
LINE
8
BLACK
6
CONTINUOUS
10
105.9911049999999904
20
-267.6048379999999725
11
105.9911049999999904
21
-265.6048379999999725
0
LINE
8
BLACK
6
CONTINUOUS
10
106.8482479999999981
20
-267.6048379999999725
11
106.8482479999999981
21
-266.557218999999975
0
LINE
8
BLACK
6
CONTINUOUS
10
106.8482479999999981
20
-266.557218999999975
11
106.7530099999999891
21
-266.3667419999999879
0
LINE
8
BLACK
6
CONTINUOUS
10
106.7530099999999891
20
-266.3667419999999879
11
106.5625339999999994
21
-266.2715039999999931
0
LINE
8
BLACK
6
CONTINUOUS
10
106.5625339999999994
20
-266.2715039999999931
11
106.276818999999989
21
-266.2715039999999931
0
LINE
8
BLACK
6
CONTINUOUS
10
106.276818999999989
20
-266.2715039999999931
11
106.0863429999999994
21
-266.3667419999999879
0
LINE
8
BLACK
6
CONTINUOUS
10
106.0863429999999994
20
-266.3667419999999879
11
105.9911049999999904
21
-266.4619799999999827
0
LINE
8
BLACK
6
CONTINUOUS
10
108.0863429999999994
20
-267.6048379999999725
11
107.8958669999999955
21
-267.5095999999999776
0
LINE
8
BLACK
6
CONTINUOUS
10
107.8958669999999955
20
-267.5095999999999776
11
107.8006290000000007
21
-267.4143609999999853
0
LINE
8
BLACK
6
CONTINUOUS
10
107.8006290000000007
20
-267.4143609999999853
11
107.7053909999999917
21
-267.2238849999999957
0
LINE
8
BLACK
6
CONTINUOUS
10
107.7053909999999917
20
-267.2238849999999957
11
107.7053909999999917
21
-266.6524569999999699
0
LINE
8
BLACK
6
CONTINUOUS
10
107.7053909999999917
20
-266.6524569999999699
11
107.8006290000000007
21
-266.4619799999999827
0
LINE
8
BLACK
6
CONTINUOUS
10
107.8006290000000007
20
-266.4619799999999827
11
107.8958669999999955
21
-266.3667419999999879
0
LINE
8
BLACK
6
CONTINUOUS
10
107.8958669999999955
20
-266.3667419999999879
11
108.0863429999999994
21
-266.2715039999999931
0
LINE
8
BLACK
6
CONTINUOUS
10
108.0863429999999994
20
-266.2715039999999931
11
108.3720579999999956
21
-266.2715039999999931
0
LINE
8
BLACK
6
CONTINUOUS
10
108.3720579999999956
20
-266.2715039999999931
11
108.5625339999999994
21
-266.3667419999999879
0
LINE
8
BLACK
6
CONTINUOUS
10
108.5625339999999994
20
-266.3667419999999879
11
108.6577719999999943
21
-266.4619799999999827
0
LINE
8
BLACK
6
CONTINUOUS
10
108.6577719999999943
20
-266.4619799999999827
11
108.7530099999999891
21
-266.6524569999999699
0
LINE
8
BLACK
6
CONTINUOUS
10
108.7530099999999891
20
-266.6524569999999699
11
108.7530099999999891
21
-267.2238849999999957
0
LINE
8
BLACK
6
CONTINUOUS
10
108.7530099999999891
20
-267.2238849999999957
11
108.6577719999999943
21
-267.4143609999999853
0
LINE
8
BLACK
6
CONTINUOUS
10
108.6577719999999943
20
-267.4143609999999853
11
108.5625339999999994
21
-267.5095999999999776
0
LINE
8
BLACK
6
CONTINUOUS
10
108.5625339999999994
20
-267.5095999999999776
11
108.3720579999999956
21
-267.6048379999999725
0
LINE
8
BLACK
6
CONTINUOUS
10
108.3720579999999956
20
-267.6048379999999725
11
108.0863429999999994
21
-267.6048379999999725
0
LINE
8
BLACK
6
CONTINUOUS
10
109.8958669999999955
20
-267.6048379999999725
11
109.7053909999999917
21
-267.5095999999999776
0
LINE
8
BLACK
6
CONTINUOUS
10
109.7053909999999917
20
-267.5095999999999776
11
109.6101529999999968
21
-267.3191229999999905
0
LINE
8
BLACK
6
CONTINUOUS
10
109.6101529999999968
20
-267.3191229999999905
11
109.6101529999999968
21
-265.6048379999999725
0
LINE
8
BLACK
6
CONTINUOUS
10
111.419676999999993
20
-267.5095999999999776
11
111.2292009999999891
21
-267.6048379999999725
0
LINE
8
BLACK
6
CONTINUOUS
10
111.2292009999999891
20
-267.6048379999999725
11
110.8482479999999981
21
-267.6048379999999725
0
LINE
8
BLACK
6
CONTINUOUS
10
110.8482479999999981
20
-267.6048379999999725
11
110.6577719999999943
21
-267.5095999999999776
0
LINE
8
BLACK
6
CONTINUOUS
10
110.6577719999999943
20
-267.5095999999999776
11
110.5625339999999994
21
-267.3191229999999905
0
LINE
8
BLACK
6
CONTINUOUS
10
110.5625339999999994
20
-267.3191229999999905
11
110.5625339999999994
21
-266.557218999999975
0
LINE
8
BLACK
6
CONTINUOUS
10
110.5625339999999994
20
-266.557218999999975
11
110.6577719999999943
21
-266.3667419999999879
0
LINE
8
BLACK
6
CONTINUOUS
10
110.6577719999999943
20
-266.3667419999999879
11
110.8482479999999981
21
-266.2715039999999931
0
LINE
8
BLACK
6
CONTINUOUS
10
110.8482479999999981
20
-266.2715039999999931
11
111.2292009999999891
21
-266.2715039999999931
0
LINE
8
BLACK
6
CONTINUOUS
10
111.2292009999999891
20
-266.2715039999999931
11
111.419676999999993
21
-266.3667419999999879
0
LINE
8
BLACK
6
CONTINUOUS
10
111.419676999999993
20
-266.3667419999999879
11
111.514915000000002
21
-266.557218999999975
0
LINE
8
BLACK
6
CONTINUOUS
10
111.514915000000002
20
-266.557218999999975
11
111.514915000000002
21
-266.7476949999999647
0
LINE
8
BLACK
6
CONTINUOUS
10
111.514915000000002
20
-266.7476949999999647
11
110.5625339999999994
21
-266.9381710000000112
0
LINE
8
BLACK
6
CONTINUOUS
10
112.2768200000000007
20
-267.5095999999999776
11
112.4672959999999904
21
-267.6048379999999725
0
LINE
8
BLACK
6
CONTINUOUS
10
112.4672959999999904
20
-267.6048379999999725
11
112.8482479999999981
21
-267.6048379999999725
0
LINE
8
BLACK
6
CONTINUOUS
10
112.8482479999999981
20
-267.6048379999999725
11
113.0387249999999995
21
-267.5095999999999776
0
LINE
8
BLACK
6
CONTINUOUS
10
113.0387249999999995
20
-267.5095999999999776
11
113.1339629999999943
21
-267.3191229999999905
0
LINE
8
BLACK
6
CONTINUOUS
10
113.1339629999999943
20
-267.3191229999999905
11
113.1339629999999943
21
-267.2238849999999957
0
LINE
8
BLACK
6
CONTINUOUS
10
113.1339629999999943
20
-267.2238849999999957
11
113.0387249999999995
21
-267.033409000000006
0
LINE
8
BLACK
6
CONTINUOUS
10
113.0387249999999995
20
-267.033409000000006
11
112.8482479999999981
21
-266.9381710000000112
0
LINE
8
BLACK
6
CONTINUOUS
10
112.8482479999999981
20
-266.9381710000000112
11
112.5625339999999994
21
-266.9381710000000112
0
LINE
8
BLACK
6
CONTINUOUS
10
112.5625339999999994
20
-266.9381710000000112
11
112.3720579999999956
21
-266.8429329999999595
0
LINE
8
BLACK
6
CONTINUOUS
10
112.3720579999999956
20
-266.8429329999999595
11
112.2768200000000007
21
-266.6524569999999699
0
LINE
8
BLACK
6
CONTINUOUS
10
112.2768200000000007
20
-266.6524569999999699
11
112.2768200000000007
21
-266.557218999999975
0
LINE
8
BLACK
6
CONTINUOUS
10
112.2768200000000007
20
-266.557218999999975
11
112.3720579999999956
21
-266.3667419999999879
0
LINE
8
BLACK
6
CONTINUOUS
10
112.3720579999999956
20
-266.3667419999999879
11
112.5625339999999994
21
-266.2715039999999931
0
LINE
8
BLACK
6
CONTINUOUS
10
112.5625339999999994
20
-266.2715039999999931
11
112.8482479999999981
21
-266.2715039999999931
0
LINE
8
BLACK
6
CONTINUOUS
10
112.8482479999999981
20
-266.2715039999999931
11
113.0387249999999995
21
-266.3667419999999879
0
LINE
8
BLACK
6
CONTINUOUS
10
115.5149159999999995
20
-266.8429329999999595
11
117.0387259999999969
21
-266.8429329999999595
0
LINE
8
BLACK
6
CONTINUOUS
10
116.2768209999999982
20
-267.6048379999999725
11
116.2768209999999982
21
-266.0810280000000034
0
LINE
8
BLACK
6
CONTINUOUS
10
120.372058999999993
20
-266.2715039999999931
11
120.372058999999993
21
-267.6048379999999725
0
LINE
8
BLACK
6
CONTINUOUS
10
119.895867999999993
20
-265.5095999999999776
11
119.4196779999999904
21
-266.9381710000000112
0
LINE
8
BLACK
6
CONTINUOUS
10
119.4196779999999904
20
-266.9381710000000112
11
120.6577729999999917
21
-266.9381710000000112
0
LINE
8
BLACK
6
CONTINUOUS
10
122.8482499999999931
20
-267.5095999999999776
11
123.0387259999999969
21
-267.6048379999999725
0
LINE
8
BLACK
6
CONTINUOUS
10
123.0387259999999969
20
-267.6048379999999725
11
123.4196779999999904
21
-267.6048379999999725
0
LINE
8
BLACK
6
CONTINUOUS
10
123.4196779999999904
20
-267.6048379999999725
11
123.6101549999999918
21
-267.5095999999999776
0
LINE
8
BLACK
6
CONTINUOUS
10
123.6101549999999918
20
-267.5095999999999776
11
123.7053930000000008
21
-267.3191229999999905
0
LINE
8
BLACK
6
CONTINUOUS
10
123.7053930000000008
20
-267.3191229999999905
11
123.7053930000000008
21
-267.2238849999999957
0
LINE
8
BLACK
6
CONTINUOUS
10
123.7053930000000008
20
-267.2238849999999957
11
123.6101549999999918
21
-267.033409000000006
0
LINE
8
BLACK
6
CONTINUOUS
10
123.6101549999999918
20
-267.033409000000006
11
123.4196779999999904
21
-266.9381710000000112
0
LINE
8
BLACK
6
CONTINUOUS
10
123.4196779999999904
20
-266.9381710000000112
11
123.1339639999999918
21
-266.9381710000000112
0
LINE
8
BLACK
6
CONTINUOUS
10
123.1339639999999918
20
-266.9381710000000112
11
122.9434879999999879
21
-266.8429329999999595
0
LINE
8
BLACK
6
CONTINUOUS
10
122.9434879999999879
20
-266.8429329999999595
11
122.8482499999999931
21
-266.6524569999999699
0
LINE
8
BLACK
6
CONTINUOUS
10
122.8482499999999931
20
-266.6524569999999699
11
122.8482499999999931
21
-266.557218999999975
0
LINE
8
BLACK
6
CONTINUOUS
10
122.8482499999999931
20
-266.557218999999975
11
122.9434879999999879
21
-266.3667419999999879
0
LINE
8
BLACK
6
CONTINUOUS
10
122.9434879999999879
20
-266.3667419999999879
11
123.1339639999999918
21
-266.2715039999999931
0
LINE
8
BLACK
6
CONTINUOUS
10
123.1339639999999918
20
-266.2715039999999931
11
123.4196779999999904
21
-266.2715039999999931
0
LINE
8
BLACK
6
CONTINUOUS
10
123.4196779999999904
20
-266.2715039999999931
11
123.6101549999999918
21
-266.3667419999999879
0
LINE
8
BLACK
6
CONTINUOUS
10
124.8482499999999931
20
-267.6048379999999725
11
124.6577739999999892
21
-267.5095999999999776
0
LINE
8
BLACK
6
CONTINUOUS
10
124.6577739999999892
20
-267.5095999999999776
11
124.5625359999999944
21
-267.3191229999999905
0
LINE
8
BLACK
6
CONTINUOUS
10
124.5625359999999944
20
-267.3191229999999905
11
124.5625359999999944
21
-265.6048379999999725
0
LINE
8
BLACK
6
CONTINUOUS
10
125.8958689999999905
20
-267.6048379999999725
11
125.7053930000000008
21
-267.5095999999999776
0
LINE
8
BLACK
6
CONTINUOUS
10
125.7053930000000008
20
-267.5095999999999776
11
125.6101549999999918
21
-267.4143609999999853
0
LINE
8
BLACK
6
CONTINUOUS
10
125.6101549999999918
20
-267.4143609999999853
11
125.514916999999997
21
-267.2238849999999957
0
LINE
8
BLACK
6
CONTINUOUS
10
125.514916999999997
20
-267.2238849999999957
11
125.514916999999997
21
-266.6524569999999699
0
LINE
8
BLACK
6
CONTINUOUS
10
125.514916999999997
20
-266.6524569999999699
11
125.6101549999999918
21
-266.4619799999999827
0
LINE
8
BLACK
6
CONTINUOUS
10
125.6101549999999918
20
-266.4619799999999827
11
125.7053930000000008
21
-266.3667419999999879
0
LINE
8
BLACK
6
CONTINUOUS
10
125.7053930000000008
20
-266.3667419999999879
11
125.8958689999999905
21
-266.2715039999999931
0
LINE
8
BLACK
6
CONTINUOUS
10
125.8958689999999905
20
-266.2715039999999931
11
126.1815840000000009
21
-266.2715039999999931
0
LINE
8
BLACK
6
CONTINUOUS
10
126.1815840000000009
20
-266.2715039999999931
11
126.3720599999999905
21
-266.3667419999999879
0
LINE
8
BLACK
6
CONTINUOUS
10
126.3720599999999905
20
-266.3667419999999879
11
126.4672979999999995
21
-266.4619799999999827
0
LINE
8
BLACK
6
CONTINUOUS
10
126.4672979999999995
20
-266.4619799999999827
11
126.5625359999999944
21
-266.6524569999999699
0
LINE
8
BLACK
6
CONTINUOUS
10
126.5625359999999944
20
-266.6524569999999699
11
126.5625359999999944
21
-267.2238849999999957
0
LINE
8
BLACK
6
CONTINUOUS
10
126.5625359999999944
20
-267.2238849999999957
11
126.4672979999999995
21
-267.4143609999999853
0
LINE
8
BLACK
6
CONTINUOUS
10
126.4672979999999995
20
-267.4143609999999853
11
126.3720599999999905
21
-267.5095999999999776
0
LINE
8
BLACK
6
CONTINUOUS
10
126.3720599999999905
20
-267.5095999999999776
11
126.1815840000000009
21
-267.6048379999999725
0
LINE
8
BLACK
6
CONTINUOUS
10
126.1815840000000009
20
-267.6048379999999725
11
125.8958689999999905
21
-267.6048379999999725
0
LINE
8
BLACK
6
CONTINUOUS
10
127.1339649999999892
20
-266.2715039999999931
11
127.8958689999999905
21
-266.2715039999999931
0
LINE
8
BLACK
6
CONTINUOUS
10
127.4196789999999879
20
-265.6048379999999725
11
127.4196789999999879
21
-267.3191229999999905
0
LINE
8
BLACK
6
CONTINUOUS
10
127.4196789999999879
20
-267.3191229999999905
11
127.514916999999997
21
-267.5095999999999776
0
LINE
8
BLACK
6
CONTINUOUS
10
127.514916999999997
20
-267.5095999999999776
11
127.7053930000000008
21
-267.6048379999999725
0
LINE
8
BLACK
6
CONTINUOUS
10
127.7053930000000008
20
-267.6048379999999725
11
127.8958689999999905
21
-267.6048379999999725
0
LINE
8
BLACK
6
CONTINUOUS
10
128.4672979999999995
20
-267.5095999999999776
11
128.6577739999999892
21
-267.6048379999999725
0
LINE
8
BLACK
6
CONTINUOUS
10
128.6577739999999892
20
-267.6048379999999725
11
129.0387259999999969
21
-267.6048379999999725
0
LINE
8
BLACK
6
CONTINUOUS
10
129.0387259999999969
20
-267.6048379999999725
11
129.2292029999999841
21
-267.5095999999999776
0
LINE
8
BLACK
6
CONTINUOUS
10
129.2292029999999841
20
-267.5095999999999776
11
129.3244410000000073
21
-267.3191229999999905
0
LINE
8
BLACK
6
CONTINUOUS
10
129.3244410000000073
20
-267.3191229999999905
11
129.3244410000000073
21
-267.2238849999999957
0
LINE
8
BLACK
6
CONTINUOUS
10
129.3244410000000073
20
-267.2238849999999957
11
129.2292029999999841
21
-267.033409000000006
0
LINE
8
BLACK
6
CONTINUOUS
10
129.2292029999999841
20
-267.033409000000006
11
129.0387259999999969
21
-266.9381710000000112
0
LINE
8
BLACK
6
CONTINUOUS
10
129.0387259999999969
20
-266.9381710000000112
11
128.753011999999984
21
-266.9381710000000112
0
LINE
8
BLACK
6
CONTINUOUS
10
128.753011999999984
20
-266.9381710000000112
11
128.5625359999999944
21
-266.8429329999999595
0
LINE
8
BLACK
6
CONTINUOUS
10
128.5625359999999944
20
-266.8429329999999595
11
128.4672979999999995
21
-266.6524569999999699
0
LINE
8
BLACK
6
CONTINUOUS
10
128.4672979999999995
20
-266.6524569999999699
11
128.4672979999999995
21
-266.557218999999975
0
LINE
8
BLACK
6
CONTINUOUS
10
128.4672979999999995
20
-266.557218999999975
11
128.5625359999999944
21
-266.3667419999999879
0
LINE
8
BLACK
6
CONTINUOUS
10
128.5625359999999944
20
-266.3667419999999879
11
128.753011999999984
21
-266.2715039999999931
0
LINE
8
BLACK
6
CONTINUOUS
10
128.753011999999984
20
-266.2715039999999931
11
129.0387259999999969
21
-266.2715039999999931
0
LINE
8
BLACK
6
CONTINUOUS
10
129.0387259999999969
20
-266.2715039999999931
11
129.2292029999999841
21
-266.3667419999999879
0
LINE
8
BLACK
6
CONTINUOUS
10
129.991107999999997
20
-268.3667419999999879
11
130.0863459999999918
21
-268.2715039999999931
0
LINE
8
BLACK
6
CONTINUOUS
10
130.0863459999999918
20
-268.2715039999999931
11
130.2768219999999815
21
-267.9857900000000086
0
LINE
8
BLACK
6
CONTINUOUS
10
130.2768219999999815
20
-267.9857900000000086
11
130.3720600000000047
21
-267.7953139999999621
0
LINE
8
BLACK
6
CONTINUOUS
10
130.3720600000000047
20
-267.7953139999999621
11
130.4672979999999995
21
-267.5095999999999776
0
LINE
8
BLACK
6
CONTINUOUS
10
130.4672979999999995
20
-267.5095999999999776
11
130.5625359999999944
21
-267.033409000000006
0
LINE
8
BLACK
6
CONTINUOUS
10
130.5625359999999944
20
-267.033409000000006
11
130.5625359999999944
21
-266.6524569999999699
0
LINE
8
BLACK
6
CONTINUOUS
10
130.5625359999999944
20
-266.6524569999999699
11
130.4672979999999995
21
-266.1762659999999983
0
LINE
8
BLACK
6
CONTINUOUS
10
130.4672979999999995
20
-266.1762659999999983
11
130.3720600000000047
21
-265.8905520000000138
0
LINE
8
BLACK
6
CONTINUOUS
10
130.3720600000000047
20
-265.8905520000000138
11
130.2768219999999815
21
-265.7000759999999673
0
LINE
8
BLACK
6
CONTINUOUS
10
130.2768219999999815
20
-265.7000759999999673
11
130.0863459999999918
21
-265.4143609999999853
0
LINE
8
BLACK
6
CONTINUOUS
10
130.0863459999999918
20
-265.4143609999999853
11
129.991107999999997
21
-265.3191229999999905
  0
ENDSEC
  0
EOF
